P3
30 7
255
5
0
221
0
0
0
0
0
0
0
0
0
12
12
12
0
0
0
0
0
0
0
0
0
0
0
0
0
0
0
0
0
0
0
0
0
0
0
0
0
0
0
0
0
0
0
0
0
0
0
0
0
0
0
0
0
0
4
4
4
1
1
1
0
0
0
5
5
5
6
6
6
0
0
0
0
0
0
0
0
0
1
1
1
5
5
5
5
0
240
10
10
10
8
8
8
1
1
1
3
3
3
247
247
247
245
245
245
245
245
245
247
247
247
4
4
4
8
8
8
227
227
227
0
0
0
0
0
0
1
1
1
1
1
1
0
0
0
9
9
9
240
240
240
243
243
243
5
5
5
2
2
2
7
7
7
240
240
240
7
7
7
4
4
4
5
5
5
242
242
242
0
0
0
1
1
1
0
0
0
0
0
0
0
0
0
0
0
0
5
5
5
246
246
246
18
18
18
9
9
9
242
242
242
0
0
0
1
1
1
231
231
231
7
7
7
0
0
0
1
1
1
0
0
0
0
0
0
252
252
252
9
9
9
9
9
9
235
235
235
5
5
5
4
4
4
1
1
1
240
240
240
1
1
1
237
237
237
27
27
27
2
2
2
0
0
0
0
0
0
0
0
0
0
0
0
0
0
0
7
7
7
253
253
253
247
247
247
245
245
245
247
247
247
0
0
0
1
1
1
240
240
240
1
1
1
0
0
0
0
0
0
2
2
2
13
13
13
248
248
248
246
246
246
240
240
240
236
236
236
5
5
5
1
1
1
0
0
0
0
0
0
233
233
233
4
4
4
1
1
1
0
0
0
0
0
0
0
0
0
10
10
10
0
0
0
0
0
0
13
13
13
250
250
250
7
7
7
8
8
8
2
2
2
0
0
0
2
2
2
235
235
235
4
4
4
1
1
1
12
12
12
0
0
0
3
3
3
245
245
245
13
13
13
5
5
5
232
232
232
4
4
4
0
0
0
0
0
0
0
0
0
233
233
233
4
4
4
1
1
1
0
0
0
0
0
0
0
0
0
0
0
0
3
3
3
0
0
0
0
0
0
249
249
249
4
4
4
0
0
0
5
5
5
2
2
2
1
1
1
240
240
240
226
226
226
243
243
243
249
249
249
0
0
0
17
17
17
239
239
239
12
12
12
0
0
0
236
236
236
9
9
9
1
1
1
0
0
0
0
0
0
236
236
236
1
1
1
1
1
1
0
0
0
0
0
0
0
0
0
5
0
250
0
0
0
0
0
0
0
0
0
0
0
0
0
0
0
0
0
0
0
0
0
0
0
0
0
0
0
0
0
0
6
6
6
5
5
5
0
0
0
0
0
0
0
0
0
17
17
17
15
15
15
0
0
0
9
9
9
2
2
2
1
1
1
0
0
0
0
0
0
41
41
41
0
0
0
0
0
0
0
0
0
0
0
0
5
0
250