P3
10 10
255
0
0
0
255
255
255
255
255
255
255
255
255
0
0
0
0
0
0
0
0
0
0
0
0
0
0
0
0
0
0
255
255
255
0
0
0
0
0
0
0
0
0
255
255
255
0
0
0
0
0
0
0
0
0
0
0
0
0
0
0
255
255
255
0
0
0
255
255
255
0
0
0
255
255
255
0
0
0
0
0
0
0
0
0
0
0
0
0
0
0
255
255
255
0
0
0
0
0
0
0
0
0
255
255
255
0
0
0
0
0
0
0
0
0
0
0
0
0
0
0
0
0
0
255
255
255
255
255
255
255
255
255
0
0
0
0
0
0
0
0
0
0
0
0
0
0
0
0
0
0
0
0
0
51
139
13
51
139
13
51
139
13
0
0
0
0
0
0
246
28
16
246
28
16
246
28
16
0
0
0
51
139
13
51
139
13
10
229
98
51
139
13
51
139
13
246
28
16
233
65
109
246
28
16
233
65
109
246
28
16
51
139
13
10
229
98
51
139
13
10
229
98
51
139
13
246
28
16
246
28
16
246
28
16
246
28
16
246
28
16
51
139
13
51
139
13
10
229
98
51
139
13
51
139
13
246
28
16
233
65
109
246
28
16
233
65
109
246
28
16
0
0
0
51
139
13
51
139
13
51
139
13
0
0
0
0
0
0
246
28
16
246
28
16
246
28
16
0
0
0
