P3
80 60
255
0
0
0
0
0
0
0
0
0
0
0
0
0
0
0
0
0
0
0
0
0
0
0
0
0
0
0
0
0
0
0
0
0
0
0
0
0
0
0
0
0
0
0
0
0
0
0
0
0
0
0
0
0
0
0
0
0
0
0
0
0
0
0
0
0
0
0
0
0
0
0
0
0
0
0
1
0
0
0
0
0
0
0
0
0
0
0
0
0
0
0
0
1
0
0
0
0
0
0
0
0
0
0
0
0
0
0
0
0
0
0
1
0
0
0
0
0
0
0
0
0
0
0
0
0
0
0
0
0
0
0
0
0
0
0
0
0
0
0
0
0
0
0
0
0
0
0
0
0
0
0
0
0
0
0
0
0
0
0
0
0
0
0
0
0
0
0
0
0
0
0
0
0
0
0
0
0
0
0
0
0
0
0
0
0
0
0
0
0
0
0
0
0
0
0
0
0
0
0
0
0
0
0
0
0
0
0
0
0
0
0
0
0
0
0
0
0
0
0
0
0
0
0
0
0
0
0
0
0
0
0
0
0
0
0
0
0
0
0
0
0
0
0
0
0
0
0
0
0
0
0
0
0
0
0
0
0
0
0
0
0
0
0
0
0
0
0
0
0
0
0
0
0
0
0
0
0
0
0
0
0
0
0
0
0
0
0
0
0
0
0
0
0
0
0
0
0
0
0
0
0
1
0
0
0
1
0
0
0
0
0
0
0
0
0
0
1
0
0
0
0
0
0
0
0
0
0
0
0
0
0
0
0
0
0
0
0
0
0
0
0
0
0
0
0
0
0
0
0
0
0
0
0
0
0
0
0
0
0
0
0
0
0
0
0
0
0
0
0
0
0
0
0
0
0
0
0
0
0
0
0
0
0
0
0
0
0
0
0
0
0
0
0
0
0
0
0
0
0
0
0
0
0
0
0
0
0
0
0
0
0
0
0
0
0
0
0
0
0
0
0
0
0
0
0
0
0
0
0
0
0
0
0
0
0
0
0
0
0
0
0
0
0
0
0
0
0
0
0
0
0
0
0
0
0
0
0
0
0
0
0
0
0
0
0
0
0
0
0
0
0
0
0
0
0
0
0
0
0
0
0
0
0
0
0
0
0
0
0
0
0
0
0
0
0
0
0
0
0
0
0
0
0
0
0
0
0
0
0
0
1
0
0
0
0
0
0
0
0
0
0
0
0
0
0
0
0
0
0
0
0
0
0
0
0
0
0
0
0
0
0
0
0
0
1
0
0
0
0
0
0
0
0
0
0
0
0
0
0
0
0
0
0
1
0
0
0
0
0
0
0
0
0
0
0
0
0
0
0
0
0
0
0
0
0
0
0
0
0
0
0
0
0
0
0
0
0
0
0
0
0
0
0
0
0
0
0
0
0
0
0
0
0
0
0
0
0
0
0
0
0
0
0
0
0
0
0
1
0
0
0
0
0
0
0
0
0
0
0
0
0
0
0
0
0
0
0
0
0
0
0
0
0
0
0
0
0
0
0
0
0
0
0
0
0
0
0
0
0
0
0
0
0
0
0
0
0
0
0
0
0
0
0
0
0
0
0
0
0
0
0
0
0
0
0
0
0
0
0
0
0
0
0
0
0
0
0
0
0
0
0
0
0
0
0
0
0
0
0
0
0
0
0
0
0
0
0
0
0
0
0
0
0
0
0
0
1
0
0
0
0
0
0
0
0
0
0
0
0
0
0
0
0
0
0
0
0
0
0
0
0
0
0
0
0
0
0
0
0
0
0
0
0
0
0
0
0
0
0
0
0
0
0
0
0
0
0
0
0
0
0
0
0
0
0
0
0
0
0
0
0
0
0
0
0
0
0
0
0
0
0
0
0
0
0
0
0
0
0
0
0
0
0
0
0
0
0
0
0
0
0
0
0
0
0
0
0
0
0
0
0
0
0
0
0
0
0
0
0
0
0
0
0
0
0
0
0
0
0
0
0
0
0
0
0
0
0
0
0
0
0
0
0
0
0
0
0
1
0
0
0
0
0
0
0
0
0
0
0
0
0
0
0
0
0
0
0
0
0
0
0
0
1
0
0
0
0
0
0
0
0
0
0
0
0
0
0
0
0
0
0
0
0
0
0
0
0
0
0
0
0
0
0
0
0
0
0
0
0
0
0
0
0
0
0
0
0
0
0
0
0
0
0
0
0
0
0
0
0
0
0
0
0
0
0
0
0
0
0
0
0
0
0
0
0
0
0
0
0
0
0
0
0
0
0
0
0
0
0
0
0
0
0
0
0
1
0
0
0
0
0
0
0
0
0
0
0
1
0
0
0
0
0
0
0
0
0
0
0
0
0
0
0
0
0
0
0
0
0
0
0
0
0
0
0
0
0
0
0
0
0
0
0
0
0
0
0
0
0
0
0
0
0
0
0
0
0
0
0
0
0
0
0
0
0
0
0
0
0
0
0
0
0
0
0
0
0
1
0
0
0
0
0
0
0
0
0
0
0
0
0
0
0
0
0
0
0
0
0
0
0
0
0
0
0
0
0
0
0
0
0
0
0
0
0
0
0
0
0
0
0
0
0
0
0
0
0
0
0
0
0
0
0
0
0
0
0
0
0
0
0
0
0
0
0
0
0
0
0
0
0
0
0
0
0
0
0
0
0
0
0
0
0
0
0
0
0
0
0
0
0
0
0
0
0
0
0
0
0
0
0
0
0
0
0
0
0
0
0
0
0
0
0
0
0
0
0
0
0
0
0
0
0
1
0
0
0
0
1
0
0
0
0
0
0
0
0
0
0
0
0
0
0
0
0
0
0
0
0
0
0
0
0
0
0
0
0
0
0
0
0
0
0
0
0
0
0
0
0
0
0
0
0
0
1
0
0
0
0
0
0
0
0
0
0
0
0
0
0
0
0
0
0
0
0
0
0
0
0
0
0
0
0
0
0
0
0
0
0
0
0
0
0
0
0
0
0
0
0
0
0
0
0
0
0
0
0
0
0
0
0
0
0
0
0
0
0
0
0
0
0
0
0
0
0
0
0
0
0
0
0
0
0
0
0
0
1
0
0
0
0
0
0
0
0
0
0
0
0
0
0
0
0
0
0
0
0
0
0
0
0
0
0
0
0
0
0
0
0
0
0
0
0
0
0
0
0
0
0
0
0
0
0
0
0
0
0
0
0
0
0
0
0
0
0
0
0
0
0
1
1
0
0
0
0
0
0
0
0
0
0
0
0
0
0
0
0
0
0
0
0
0
0
0
0
0
0
0
0
0
0
0
0
0
0
0
0
0
0
0
0
0
0
0
0
0
0
0
0
0
0
0
0
1
0
0
0
0
0
0
0
0
0
0
0
0
0
0
0
0
0
0
0
0
0
0
0
0
0
0
0
0
0
0
0
0
0
0
0
0
0
0
0
0
0
0
0
0
0
0
0
0
0
0
0
0
0
0
0
0
0
0
0
0
0
0
0
0
0
0
0
0
0
0
0
0
0
0
0
0
0
0
0
0
0
0
0
0
0
0
0
0
0
0
0
0
0
0
0
0
0
0
0
0
0
0
0
0
0
0
0
0
0
0
0
0
0
0
0
0
0
0
0
0
0
0
0
0
0
0
0
0
0
0
0
0
0
0
0
0
0
0
0
0
0
0
0
0
0
0
0
0
0
0
0
0
0
0
0
0
0
0
0
0
0
0
0
0
0
0
0
0
0
0
0
0
0
0
0
0
1
0
0
0
0
0
0
0
0
0
0
0
0
0
0
0
0
0
0
0
0
0
0
0
0
0
0
0
0
0
0
0
0
0
0
0
0
0
0
0
0
0
0
0
0
0
0
0
0
0
0
0
0
0
0
0
0
0
0
0
0
0
0
0
0
0
0
0
0
0
0
0
0
0
0
0
0
0
0
0
0
0
0
0
0
0
1
0
0
0
0
0
0
0
0
0
0
1
0
0
0
0
0
0
0
0
0
0
0
0
0
0
0
0
1
0
0
0
0
0
0
0
0
0
0
0
0
0
0
0
0
0
0
0
0
0
0
0
0
0
0
0
0
0
0
0
0
0
0
0
0
0
0
0
0
0
0
0
0
0
0
0
0
0
0
0
0
0
0
0
0
0
0
0
0
0
0
0
1
0
0
0
0
0
0
0
0
0
0
0
0
0
0
0
0
0
0
1
0
0
0
0
0
0
0
0
0
0
0
0
0
0
0
0
0
0
0
0
0
0
0
0
0
0
0
0
0
0
0
0
0
0
0
0
0
0
0
0
0
0
0
0
0
0
1
0
0
0
0
0
0
0
0
0
0
0
0
0
0
0
0
0
0
0
0
0
0
0
0
0
0
0
0
0
0
0
0
0
0
0
0
0
0
0
0
0
0
0
0
0
0
0
0
0
0
0
0
0
0
0
0
0
0
0
0
0
0
0
0
0
0
0
0
0
0
0
0
0
0
0
0
0
0
0
0
0
0
0
0
0
0
0
0
0
0
0
0
0
0
0
0
0
0
0
0
0
0
0
0
0
0
0
0
0
0
0
0
0
0
0
0
0
0
0
0
0
0
0
0
0
0
0
0
0
0
0
0
0
0
0
0
0
0
0
0
0
0
0
0
0
0
0
1
0
0
0
0
0
0
0
0
0
0
0
0
0
0
0
0
0
0
0
0
0
0
0
0
0
0
0
0
0
1
0
0
0
0
0
0
0
0
0
0
0
0
0
0
0
0
0
0
0
0
0
0
0
0
0
0
0
0
0
0
0
0
0
0
0
0
0
0
0
0
0
0
0
0
0
0
0
0
1
0
0
0
0
0
0
0
0
0
0
0
0
0
0
0
0
0
0
0
0
0
0
0
0
0
0
0
0
0
0
0
0
0
0
0
0
0
0
0
0
0
0
0
0
0
0
0
0
0
0
0
0
0
0
0
0
0
0
0
0
0
0
0
0
0
0
0
0
0
0
1
0
0
0
0
0
0
0
0
0
0
0
0
0
0
0
0
0
0
0
0
1
0
0
0
0
0
0
0
0
0
0
0
0
0
0
0
0
0
0
0
0
0
0
0
0
0
0
1
0
0
0
0
0
0
0
0
0
0
0
0
0
0
0
0
0
0
0
0
0
0
0
0
0
0
0
0
1
0
0
0
0
0
0
0
0
0
0
1
0
0
0
0
0
0
0
0
0
0
0
0
0
0
0
0
0
0
0
0
0
0
0
0
0
0
0
0
0
0
0
0
0
0
0
0
0
0
0
0
0
0
0
0
0
0
0
0
0
0
0
0
0
0
0
0
0
0
0
0
0
0
0
0
0
0
0
0
0
0
0
0
0
0
0
1
0
0
0
0
0
0
0
0
0
0
0
0
0
0
0
0
0
0
1
0
0
0
0
0
0
0
0
0
0
0
0
0
0
0
0
0
0
0
0
0
0
0
0
0
0
0
0
0
0
0
0
0
0
0
0
0
0
0
0
0
0
0
0
0
0
0
0
0
0
0
0
0
0
0
0
0
0
0
0
0
0
0
0
0
0
0
0
0
0
0
0
0
0
0
0
0
0
0
0
0
0
1
0
0
0
0
0
0
0
0
0
0
0
0
0
1
0
0
0
0
0
0
0
0
0
0
0
0
0
0
0
0
0
0
0
0
0
0
0
0
0
0
0
0
0
0
0
0
0
0
0
0
0
0
0
0
0
0
0
0
0
0
0
0
1
0
0
0
0
0
0
0
0
0
0
0
0
0
0
0
0
0
0
0
0
0
0
0
0
0
0
0
0
0
0
0
0
0
0
0
0
0
0
0
0
0
0
0
0
0
0
0
0
0
0
0
0
0
0
0
0
1
0
0
0
0
0
0
0
0
0
0
0
0
0
0
0
0
0
0
0
0
0
0
0
0
0
0
0
0
0
0
0
0
0
0
0
0
0
0
0
0
0
0
0
0
0
0
0
0
0
0
0
0
0
0
0
0
0
0
0
0
0
0
0
0
0
0
0
0
0
0
0
0
0
0
0
0
0
0
0
0
0
0
0
0
0
0
0
0
0
0
0
0
0
0
0
0
0
0
0
0
0
0
0
0
0
0
0
0
0
0
0
0
0
0
0
0
0
0
0
0
0
0
0
0
0
0
0
0
0
0
0
0
0
0
0
0
0
0
0
0
0
0
0
0
0
0
0
1
0
0
0
0
0
0
0
0
0
0
0
0
0
0
0
0
0
0
0
0
0
0
0
0
0
0
0
0
0
0
0
0
0
0
0
0
0
1
0
0
0
0
0
0
0
0
0
0
0
0
0
0
0
0
0
0
0
0
0
0
0
0
0
0
0
0
0
0
0
0
1
0
0
0
0
0
0
0
0
0
0
0
0
0
0
0
0
0
0
0
1
1
0
0
0
0
0
0
0
0
0
0
0
0
0
0
0
0
0
0
0
0
0
1
0
0
0
0
0
0
0
0
0
0
0
0
0
0
0
0
0
0
0
0
0
0
0
0
0
0
0
0
0
0
0
0
0
0
0
0
0
0
0
0
0
0
0
0
0
0
0
0
0
0
0
0
0
0
0
0
0
0
0
0
0
0
0
0
0
0
0
0
0
0
0
0
0
0
0
0
0
0
0
0
0
0
0
0
0
0
0
0
0
0
0
0
0
0
0
0
0
0
0
0
0
0
0
0
0
0
0
0
0
0
0
0
0
0
0
0
0
0
0
0
0
0
0
0
1
0
0
0
0
0
0
0
0
0
0
0
0
0
0
0
0
0
0
0
0
0
0
0
0
0
0
0
0
0
0
0
0
0
0
0
0
0
0
0
0
0
0
0
0
0
0
0
0
0
0
0
0
0
0
0
0
0
0
0
0
0
0
0
0
0
0
0
0
0
0
0
0
0
0
0
0
0
0
0
0
0
0
0
0
0
0
0
0
0
0
0
0
0
0
0
0
0
0
0
0
0
0
0
0
0
0
0
0
0
0
0
0
0
0
0
0
0
0
0
0
0
0
0
0
0
0
0
0
0
0
0
0
0
0
0
0
0
0
0
0
0
0
0
0
0
0
0
0
0
0
0
0
1
0
0
0
0
0
0
0
1
1
0
0
0
0
0
0
0
0
0
0
0
0
1
0
1
1
0
1
1
0
1
1
0
1
1
0
1
1
0
1
1
0
1
1
1
1
1
1
1
1
0
1
1
0
1
1
0
1
1
0
1
1
1
1
1
1
1
1
0
1
1
1
1
1
0
2
1
1
1
1
0
1
1
0
1
1
0
1
1
0
1
1
1
1
1
0
1
1
0
1
0
0
0
0
0
0
1
0
1
1
0
1
1
0
0
1
0
1
1
1
0
1
0
0
0
0
1
1
0
1
1
0
0
0
0
0
0
1
1
1
0
0
0
0
1
0
0
0
0
0
1
1
0
1
1
0
1
1
0
1
1
0
1
0
0
0
0
0
0
0
0
1
0
0
0
0
0
1
0
1
1
0
0
0
0
0
0
0
0
0
0
0
0
0
0
0
0
0
0
0
0
0
0
0
0
0
0
0
0
0
0
0
0
0
0
0
0
0
0
0
0
0
0
0
0
0
0
0
0
0
0
0
0
0
0
0
0
0
0
0
0
0
1
0
0
0
0
0
0
0
0
0
0
0
0
0
1
0
0
0
0
0
3
0
3
3
0
3
3
0
3
3
1
3
2
1
3
3
1
4
3
0
3
3
0
3
2
0
3
3
0
3
3
1
3
3
1
3
3
0
3
3
1
3
3
0
3
3
1
3
3
1
3
3
1
3
3
1
3
3
1
3
3
0
3
3
0
3
3
1
3
3
1
3
3
0
3
3
0
3
2
0
4
3
1
3
3
1
2
2
0
2
2
0
3
3
1
3
3
0
2
3
1
2
3
0
3
3
0
3
2
0
2
3
0
2
3
0
2
2
0
3
3
0
2
2
1
2
2
0
2
2
1
3
2
0
3
3
0
3
2
0
3
3
1
3
2
0
3
3
1
3
2
0
2
2
0
2
3
1
2
3
1
3
2
1
2
2
0
2
2
1
2
2
0
2
2
0
2
2
0
2
2
0
2
2
0
2
2
0
2
2
0
3
2
0
2
2
0
2
2
1
2
2
0
2
2
0
2
2
0
2
2
0
2
2
1
2
2
0
2
2
0
2
2
1
2
2
0
3
2
0
2
2
0
2
2
0
2
2
1
2
5
0
5
5
0
6
5
1
5
4
0
5
5
1
5
5
0
6
5
0
5
5
0
5
5
0
5
4
1
6
5
0
6
4
0
5
5
0
5
5
1
5
5
1
5
5
1
5
5
1
6
5
1
5
5
1
5
4
1
6
5
1
5
5
1
6
5
1
5
5
1
5
4
1
5
5
1
5
5
1
6
4
1
5
4
0
4
5
1
5
4
0
5
5
0
5
5
0
5
5
1
5
5
0
5
4
1
5
4
0
4
4
1
4
5
0
5
4
1
5
4
1
5
4
1
5
4
0
5
5
1
5
5
1
5
4
1
5
5
1
5
4
0
4
4
1
5
5
0
5
5
0
5
4
0
5
4
0
5
5
1
5
4
0
5
4
1
5
4
1
4
4
0
4
4
0
4
4
1
4
4
1
4
4
0
4
4
1
4
4
0
4
4
1
4
4
1
5
4
1
4
4
0
4
4
0
5
4
0
4
4
1
4
4
1
4
4
1
5
4
0
4
4
1
4
4
1
5
4
0
4
4
0
4
3
1
4
3
0
4
7
1
7
7
1
7
7
1
7
7
1
7
7
1
8
7
1
7
7
1
7
7
1
7
6
1
7
7
1
7
7
1
7
7
1
7
7
1
7
7
1
7
7
1
7
6
1
7
7
1
7
7
1
7
6
1
7
7
1
7
7
1
8
7
1
7
7
1
7
7
1
7
6
1
7
7
1
7
7
1
7
7
1
6
7
1
7
6
1
7
6
1
7
6
1
6
6
1
6
7
1
6
6
1
7
6
1
7
7
1
7
6
1
7
6
1
7
6
1
7
6
1
7
7
1
6
7
1
7
6
1
7
7
1
6
6
1
6
7
0
7
6
1
7
6
1
7
7
0
7
6
1
7
6
1
7
7
1
7
6
0
7
6
1
6
6
1
7
6
1
6
6
1
6
6
1
7
6
0
6
5
1
6
6
1
6
6
1
6
6
0
6
6
1
7
6
0
6
6
1
6
6
1
6
6
0
7
6
1
6
6
1
6
6
1
6
6
1
6
6
1
7
6
0
6
6
1
6
6
1
6
6
1
6
6
1
6
6
1
6
9
2
9
8
2
10
9
2
9
8
1
9
8
2
9
8
1
9
9
2
9
9
2
10
9
1
10
9
1
9
9
1
10
9
2
10
9
1
9
9
2
10
8
1
9
9
1
9
9
1
10
9
2
9
8
1
10
9
1
9
9
1
9
9
1
9
8
2
10
9
1
9
9
1
9
9
1
10
9
1
9
9
1
9
8
2
9
8
2
9
8
2
9
8
1
9
8
1
9
9
1
9
8
2
9
9
1
9
8
1
8
8
1
9
8
2
9
8
1
9
9
2
9
9
1
9
8
1
9
8
1
9
8
1
8
8
1
9
9
1
9
8
1
9
8
1
9
8
1
9
8
1
8
9
1
9
8
2
9
8
1
9
8
2
9
8
2
8
8
1
9
8
1
9
7
1
8
8
1
8
8
1
8
7
2
8
7
1
9
8
2
8
8
1
8
7
1
8
8
1
8
8
2
8
7
1
8
7
1
9
8
1
9
8
2
8
8
2
8
7
1
8
7
1
8
7
1
8
8
1
9
7
1
8
8
1
9
8
1
8
11
1
11
11
2
12
11
2
11
11
2
11
10
2
11
11
1
12
11
2
12
10
1
11
10
1
12
10
2
12
10
2
11
11
2
12
11
2
11
10
2
11
11
1
11
11
2
11
11
2
12
11
2
11
11
2
11
11
2
11
10
2
11
11
1
11
11
2
12
10
1
12
11
1
12
11
2
11
11
2
11
11
1
12
10
1
11
10
2
11
10
2
11
10
2
10
10
1
11
10
2
11
11
1
11
10
1
11
10
1
11
10
1
11
11
1
11
10
1
11
11
1
11
10
2
11
10
1
11
10
1
11
11
1
11
10
1
11
10
1
11
11
1
11
11
1
11
10
1
11
10
1
11
10
1
11
10
2
11
10
1
11
10
1
11
10
2
11
10
1
10
10
2
11
10
1
10
10
1
10
10
1
10
9
2
10
10
2
11
10
2
10
10
1
10
9
2
10
10
2
11
10
1
11
10
2
10
10
1
10
9
2
10
10
1
11
10
2
11
9
1
10
9
1
10
10
2
10
10
2
11
10
1
10
10
1
10
9
1
10
13
2
13
13
2
13
13
1
13
13
2
14
13
2
13
13
2
14
13
2
14
13
2
14
13
2
14
13
2
14
13
2
14
12
2
14
12
2
13
13
2
13
13
2
13
13
1
13
13
2
13
13
2
13
13
2
14
12
2
14
12
2
13
13
2
13
12
2
14
13
2
13
13
2
13
13
2
13
12
2
14
12
1
14
13
2
13
12
2
13
12
2
13
12
2
13
12
2
13
12
2
13
12
1
13
12
2
13
13
2
13
12
2
13
13
2
13
12
2
13
12
2
13
13
2
13
12
2
13
12
1
13
12
1
13
13
1
13
12
2
13
12
1
13
12
2
13
12
2
13
12
2
12
12
2
13
12
2
13
12
2
13
12
2
13
12
2
13
12
1
13
11
2
12
12
2
13
11
2
12
12
2
13
12
2
12
11
2
13
11
1
12
12
1
12
12
2
13
11
2
13
12
1
13
12
2
12
11
2
12
12
2
13
12
1
13
11
1
13
12
1
12
12
2
13
12
2
13
11
2
12
12
2
12
12
2
12
12
1
13
15
2
15
14
2
15
15
2
15
14
2
15
14
3
15
14
2
16
15
2
16
14
2
16
15
2
15
15
2
15
15
2
15
15
2
16
15
2
16
15
2
16
15
2
16
15
2
16
14
2
15
15
2
16
14
2
16
15
2
16
14
2
16
15
2
16
14
2
15
15
2
15
14
2
16
15
2
15
15
2
16
15
2
15
14
2
15
14
2
15
14
2
15
14
2
15
14
2
15
14
2
15
14
2
15
14
2
15
14
2
15
14
2
15
14
2
15
15
2
15
14
2
15
14
3
15
14
2
15
14
2
15
14
2
15
14
2
15
14
2
15
14
2
15
14
2
15
14
2
15
14
2
15
14
2
15
14
2
15
14
2
15
14
2
15
15
2
15
14
2
15
14
2
15
14
2
14
13
2
15
13
2
14
14
2
15
14
2
15
13
2
14
13
2
15
13
2
14
14
2
15
14
2
14
13
2
14
14
2
14
14
2
14
13
2
15
14
2
14
14
2
14
14
2
15
13
2
15
14
2
14
13
1
14
13
2
14
13
2
14
16
2
18
16
2
17
17
2
18
16
3
18
17
2
18
17
2
18
16
2
18
16
3
18
16
2
18
16
2
18
17
2
17
17
2
18
16
2
17
16
2
18
17
3
17
17
2
17
17
2
18
16
2
18
17
3
17
17
2
18
16
2
18
16
2
17
16
2
18
17
2
18
17
2
18
17
3
17
17
2
17
17
3
18
17
2
18
16
2
17
16
3
17
16
3
17
16
2
17
16
2
17
16
3
17
16
2
17
16
2
17
16
2
17
16
2
17
16
2
17
16
3
18
16
2
17
16
2
17
16
3
17
16
2
17
16
3
17
16
2
17
16
2
17
16
2
17
16
3
17
16
2
17
16
3
17
16
2
17
16
2
17
16
3
17
16
3
17
16
2
17
16
2
17
16
2
16
16
2
16
16
2
17
15
3
16
15
2
16
15
2
17
16
2
16
15
2
16
16
2
17
16
2
16
16
2
17
15
2
17
16
3
16
16
2
16
15
3
17
16
2
16
15
3
16
16
2
16
16
2
16
15
3
16
16
2
16
16
2
16
19
3
20
18
2
20
19
3
20
19
3
19
18
2
20
18
2
20
18
3
20
19
3
20
18
3
20
18
2
20
19
3
20
18
2
20
19
3
19
19
2
20
19
3
20
18
2
19
18
3
19
19
3
19
19
3
20
19
2
20
18
2
20
18
2
19
18
3
19
19
3
20
18
3
20
19
3
20
19
2
20
19
2
20
18
3
20
18
3
20
18
3
19
18
2
19
18
2
19
18
2
19
18
2
19
18
2
19
18
3
19
18
3
19
18
3
19
18
2
19
18
3
20
18
3
19
18
2
19
18
2
19
18
2
19
18
2
19
18
2
19
18
3
19
18
2
19
18
2
20
18
2
19
18
3
19
18
3
19
18
2
19
18
3
19
18
3
19
18
3
19
18
3
19
18
2
20
18
2
19
18
2
18
17
2
18
17
2
19
17
2
18
18
3
18
18
3
19
17
3
19
18
2
19
17
3
19
17
2
18
18
2
19
18
3
19
18
2
19
18
2
19
18
3
18
17
3
19
17
2
19
17
2
19
18
3
18
18
3
19
21
3
22
21
3
21
21
2
22
20
3
22
20
3
21
21
3
22
20
3
22
20
3
22
20
3
21
20
3
21
20
3
22
21
3
21
20
3
22
21
3
22
20
3
22
21
3
21
21
3
22
20
3
22
21
3
21
20
3
21
20
3
22
20
2
22
20
3
22
21
3
22
21
3
21
21
3
21
21
3
21
21
3
21
21
3
22
20
3
22
20
3
21
20
3
21
20
3
21
20
3
21
20
3
21
19
3
21
20
3
21
20
3
22
20
2
21
20
3
21
20
2
21
20
3
21
20
3
21
20
3
21
20
3
21
20
2
22
20
3
21
20
3
21
20
3
22
20
3
21
20
3
21
20
3
22
20
3
21
20
3
21
20
3
21
20
3
21
20
3
21
20
3
21
20
3
21
20
3
21
20
3
21
20
3
21
20
2
21
19
3
21
19
3
21
19
2
20
20
3
21
20
3
21
20
3
21
20
3
21
19
3
21
19
3
21
20
3
21
20
3
21
19
3
21
20
3
20
19
3
21
19
3
20
19
3
21
20
2
21
23
4
24
23
4
24
22
3
24
22
3
24
23
3
24
22
3
24
22
3
24
23
4
24
23
3
23
22
3
23
22
3
24
22
3
24
23
3
24
22
3
24
22
3
24
22
4
24
22
3
24
22
3
24
23
4
24
22
4
24
22
3
24
22
3
23
22
3
24
23
3
24
22
3
23
23
3
24
23
3
24
22
4
24
22
3
24
22
3
24
22
3
24
22
3
23
22
3
23
22
3
23
22
3
23
22
3
24
22
3
23
21
3
24
22
3
23
22
3
23
22
3
23
22
3
24
22
3
23
21
3
24
22
3
23
22
3
23
22
3
23
22
3
24
22
3
23
22
4
24
22
3
23
21
3
23
22
3
23
22
3
24
22
3
23
22
3
24
21
3
23
22
3
23
22
3
24
21
3
23
22
4
23
21
3
22
22
3
22
21
3
23
21
3
22
22
3
23
22
4
23
21
3
23
22
3
23
22
3
23
21
4
23
22
3
23
21
3
23
22
3
23
21
3
23
21
3
22
21
3
23
22
3
22
21
3
22
21
3
22
25
4
26
25
4
27
24
3
26
25
4
25
24
4
26
24
4
26
25
3
26
24
3
26
24
4
26
24
4
26
24
4
26
24
3
26
24
4
26
24
4
26
24
4
26
24
4
26
24
4
26
24
4
26
24
3
26
24
4
26
24
4
26
24
4
26
25
3
26
24
3
26
24
4
26
24
3
26
25
4
26
25
3
26
24
4
26
24
4
26
24
3
26
23
3
26
24
3
25
24
3
26
24
4
25
24
3
25
24
3
25
24
3
25
24
3
25
24
4
25
23
3
25
24
4
25
23
4
26
24
3
26
24
3
25
24
4
26
24
3
25
24
3
25
23
3
25
24
3
25
24
4
25
24
3
25
24
3
25
24
3
25
24
4
25
24
3
25
23
4
25
24
3
26
24
3
26
24
4
25
23
3
25
23
3
25
23
3
25
23
4
25
24
3
24
24
3
25
24
3
25
23
4
25
23
3
25
23
3
24
24
4
24
23
4
25
23
3
25
23
3
25
24
3
25
24
3
25
23
3
25
23
3
25
23
3
25
24
4
25
27
3
28
27
3
29
26
4
28
26
3
28
26
4
28
26
3
28
26
3
28
26
3
28
26
4
27
26
4
28
26
3
28
27
4
28
26
4
28
27
4
28
26
3
28
26
4
28
26
4
28
27
4
28
26
4
28
26
4
28
26
3
28
26
4
28
26
3
28
26
4
28
26
3
28
26
4
28
26
3
28
26
4
28
26
3
28
26
4
28
27
4
28
26
3
27
26
3
27
26
4
28
26
3
27
26
3
27
26
4
27
26
4
28
25
3
27
25
3
28
26
4
28
25
4
27
26
4
28
26
3
27
26
4
27
26
3
27
26
4
27
25
4
27
26
3
28
26
3
28
25
3
27
26
3
27
26
4
27
26
4
27
26
4
27
25
3
27
26
4
27
25
4
27
26
4
28
26
3
28
25
4
27
25
4
27
25
3
27
25
4
27
26
3
27
25
4
27
25
3
27
25
4
27
25
4
27
26
3
27
25
4
27
26
4
27
25
4
27
25
4
27
26
3
27
25
4
27
25
4
27
25
4
27
26
3
27
25
4
27
29
5
30
29
4
30
28
4
30
28
4
30
29
4
30
28
4
30
28
4
30
28
5
30
28
4
31
29
4
30
28
4
30
28
4
30
28
4
30
29
4
30
28
4
30
28
4
30
28
4
30
28
4
31
28
4
30
28
4
30
29
4
30
28
4
30
28
4
30
29
4
30
28
4
30
28
4
30
28
4
30
28
4
30
28
4
30
28
4
30
28
4
30
28
4
30
28
4
30
28
4
30
28
4
29
28
4
29
28
4
30
28
4
29
28
4
29
27
4
29
27
4
29
28
4
30
28
4
29
28
4
30
28
4
29
27
3
30
27
4
30
27
4
30
28
4
30
28
4
29
27
4
30
27
4
29
28
4
30
28
4
30
28
4
29
27
4
30
27
4
29
28
4
29
28
4
29
28
4
29
28
4
30
27
4
29
27
4
29
27
4
29
27
4
29
28
3
29
28
4
29
27
4
29
27
4
29
27
4
29
27
4
29
27
4
29
28
4
29
27
4
29
27
4
29
27
4
29
28
4
29
27
4
29
27
4
29
27
4
29
31
4
33
30
5
32
31
5
33
30
5
32
30
5
32
30
5
33
30
4
33
31
4
32
30
4
32
31
4
32
31
5
32
30
4
32
30
4
32
30
4
33
30
5
32
30
4
32
30
4
32
30
4
32
30
5
32
30
5
32
30
5
32
30
4
32
31
4
32
31
5
32
30
5
32
31
5
32
30
4
32
30
5
32
30
5
32
30
4
32
30
4
32
30
4
32
30
4
32
29
4
32
30
4
32
30
5
31
30
4
32
30
4
31
30
5
31
29
4
31
29
4
32
30
4
31
30
4
32
29
5
32
29
5
31
30
4
32
29
4
32
29
4
32
30
4
32
30
5
32
30
4
31
29
4
32
30
4
32
29
4
32
29
4
31
30
4
32
30
5
32
29
5
31
29
4
31
29
4
32
30
5
32
29
4
31
29
4
31
29
4
31
29
4
31
29
4
31
29
4
31
30
4
31
29
5
31
30
4
31
29
5
31
29
4
31
29
4
31
29
4
31
29
4
31
29
4
31
29
4
31
29
4
31
30
4
31
30
4
31
33
5
35
33
5
35
33
5
35
33
4
34
32
4
34
32
4
34
32
4
34
32
5
34
32
4
34
32
5
34
32
4
34
32
4
34
32
5
34
33
4
35
32
4
34
32
4
34
32
5
34
32
5
34
32
5
35
32
5
34
32
5
35
32
4
35
32
4
34
32
4
34
32
4
34
32
5
34
32
4
35
32
5
34
32
5
34
32
4
34
32
5
34
32
5
34
32
5
34
32
4
34
32
4
34
31
4
34
32
5
34
31
5
33
32
5
34
31
5
34
32
5
33
31
4
34
32
5
33
31
5
33
31
4
34
32
4
33
32
5
34
31
4
33
31
5
34
32
5
34
32
5
33
31
4
33
31
4
33
31
5
33
31
4
33
32
4
34
32
4
34
31
5
34
31
5
34
32
4
33
32
4
34
32
5
34
31
5
33
31
4
33
31
4
33
31
5
33
31
4
33
31
5
34
31
5
33
31
4
33
31
5
33
31
4
34
31
5
34
31
4
33
31
5
33
31
5
33
31
5
33
31
4
33
31
5
33
31
4
33
35
5
37
34
5
37
35
5
37
34
5
36
34
4
36
34
5
37
34
5
37
34
4
36
34
4
36
34
5
36
34
5
37
34
5
36
34
5
36
34
5
37
34
5
36
34
5
36
34
5
36
34
5
37
34
4
36
34
5
37
34
5
36
34
5
37
34
5
36
34
4
36
34
5
37
34
5
37
34
5
36
34
5
37
34
5
36
34
5
36
34
5
37
34
4
36
34
4
36
34
5
36
33
4
36
33
5
35
34
5
36
33
5
35
34
5
35
33
5
36
33
5
35
34
5
36
33
4
36
34
4
35
33
5
36
34
5
36
34
5
35
33
5
35
34
4
35
34
5
36
34
5
36
34
5
36
33
5
36
34
5
35
34
5
36
33
5
35
34
5
36
33
5
36
34
4
36
34
5
36
33
4
36
33
5
36
34
5
36
33
4
35
33
5
35
33
5
35
33
5
35
33
5
35
33
5
35
33
5
35
33
5
35
33
5
35
33
5
35
33
4
35
33
5
35
33
5
35
33
5
35
33
4
36
33
5
35
33
5
36
36
5
39
36
5
39
36
5
39
36
5
39
36
5
39
36
5
38
36
5
38
36
5
38
36
5
38
36
5
38
36
5
38
36
5
38
36
5
38
36
5
39
36
5
39
36
5
38
36
5
39
36
5
39
36
6
39
36
5
38
36
5
39
36
5
38
36
6
39
36
6
39
36
5
38
36
6
38
36
5
38
36
5
38
36
5
38
36
5
39
36
5
38
36
5
38
36
5
38
35
6
38
36
5
38
35
5
38
35
5
38
36
6
38
35
5
37
36
5
38
35
5
37
35
5
38
36
5
38
35
5
38
35
5
38
36
5
37
35
5
38
35
5
38
35
5
38
36
5
37
35
5
37
35
5
37
35
5
38
35
5
38
36
5
38
36
5
38
35
5
38
35
5
38
35
5
38
35
5
38
36
5
38
35
5
37
35
5
37
35
5
38
35
5
37
35
5
37
35
5
38
35
5
37
35
5
37
35
5
38
35
5
37
35
5
37
35
5
38
35
5
37
35
5
37
35
5
37
35
5
37
35
5
38
35
5
37
35
5
38
38
5
41
39
5
41
39
6
41
38
6
41
38
5
41
38
6
41
38
5
40
38
6
40
37
5
41
38
6
41
38
6
40
38
5
40
38
6
40
38
5
40
38
6
40
38
6
40
38
5
41
38
6
40
37
5
40
38
6
40
38
5
41
38
5
41
37
5
41
38
6
41
38
6
40
38
5
41
37
5
41
38
5
40
38
6
40
38
5
40
38
5
40
38
5
41
38
5
40
38
6
41
37
5
40
37
5
40
38
5
40
37
5
40
38
6
40
37
5
40
38
5
40
37
5
40
37
5
40
37
5
40
38
6
39
37
5
40
37
6
40
38
5
40
37
5
40
37
5
40
37
5
40
38
6
40
37
6
40
37
5
40
38
6
40
38
6
40
37
5
40
37
5
39
37
5
40
38
5
40
37
5
40
37
5
40
37
6
40
36
6
39
37
5
40
37
5
40
37
6
40
37
5
39
37
5
39
37
5
39
36
5
40
37
5
39
37
5
39
37
5
39
37
6
39
37
5
40
36
5
39
37
5
39
37
5
39
37
5
39
40
6
43
41
5
43
40
6
43
40
5
43
40
6
43
39
5
42
40
6
43
40
6
42
40
6
43
40
6
42
40
5
42
40
6
43
40
6
42
40
6
42
40
6
42
40
6
43
39
6
42
40
6
42
39
6
43
40
6
43
39
6
43
40
6
42
40
6
42
40
6
43
39
6
43
40
6
42
39
5
43
40
5
43
40
6
42
40
6
43
39
6
42
39
6
42
40
5
42
39
5
42
39
6
42
40
5
42
39
6
42
40
6
42
39
5
42
39
6
42
39
5
42
39
5
42
40
5
42
40
6
42
39
6
42
39
6
41
39
5
42
39
6
42
40
6
42
39
6
42
39
5
42
39
6
41
40
6
42
40
6
42
39
6
42
40
6
42
39
6
42
40
5
42
39
6
42
39
6
42
39
6
42
39
6
42
39
6
42
38
6
41
39
6
41
38
5
41
39
6
42
39
5
41
39
5
42
39
5
41
39
6
42
39
5
41
39
6
42
39
6
42
39
6
42
39
6
41
39
6
41
38
5
42
39
6
42
39
6
41
42
6
45
43
6
45
42
6
45
42
6
46
42
6
46
42
6
45
42
6
45
41
6
44
42
6
44
42
6
45
42
6
44
41
6
45
41
6
44
42
6
45
42
6
44
42
6
44
41
6
45
42
6
44
42
6
44
42
6
44
42
6
44
42
6
45
41
6
45
42
6
44
42
6
44
42
6
45
42
6
45
41
6
45
42
6
45
42
6
45
42
6
45
42
5
45
42
6
44
42
6
45
42
6
44
41
6
44
41
6
44
41
6
44
42
6
44
41
6
44
41
6
44
41
6
45
41
6
44
42
5
44
42
6
44
42
6
44
42
6
44
41
6
44
41
5
44
42
6
44
42
6
44
42
6
44
41
6
44
41
6
44
41
6
44
41
6
44
41
6
44
41
6
44
42
6
44
42
6
44
41
6
44
41
6
44
41
6
44
42
6
44
41
6
44
41
5
44
41
6
44
41
6
44
41
5
44
41
6
43
41
6
43
41
5
44
40
6
44
41
6
43
41
6
43
41
6
43
41
6
43
41
6
43
41
6
43
41
5
43
44
6
47
45
7
47
45
6
47
44
6
47
44
6
47
44
6
47
44
7
46
43
7
46
44
6
47
44
6
47
44
6
46
44
6
47
43
6
47
44
6
47
44
6
47
44
7
46
44
6
47
44
6
47
43
6
47
44
6
46
44
6
46
43
6
46
44
7
47
44
6
47
44
6
46
44
6
47
43
6
47
44
6
47
43
7
46
44
6
46
44
6
47
44
6
47
44
6
47
44
6
47
43
6
47
43
6
46
44
6
46
43
6
46
43
6
46
43
6
46
43
6
46
43
7
46
43
6
46
44
6
46
44
7
46
44
6
46
44
6
46
43
6
46
44
6
46
44
6
47
43
6
46
43
7
47
43
6
46
43
6
46
43
6
46
44
6
46
43
7
46
43
6
46
44
6
46
43
6
46
43
6
46
43
6
46
43
6
46
43
7
46
43
7
45
43
6
46
43
6
46
43
7
45
43
6
46
43
6
46
43
6
46
43
6
45
43
6
46
42
6
46
43
6
46
43
7
46
43
6
45
43
6
46
43
6
45
42
6
45
46
7
49
46
7
49
47
6
49
46
7
50
46
7
49
46
7
49
46
6
49
45
7
48
46
7
49
45
7
48
46
7
49
46
6
49
45
7
49
46
7
49
45
6
48
45
6
49
45
7
48
45
6
48
46
6
49
46
6
49
46
7
48
46
6
49
46
6
48
45
6
49
46
6
49
46
6
49
46
7
48
46
6
48
45
7
48
46
6
48
46
6
48
46
6
48
45
6
48
46
7
49
46
7
48
45
6
48
45
6
48
45
7
48
46
7
48
45
6
48
45
6
48
45
7
48
46
7
48
46
6
48
45
7
48
45
6
48
46
6
48
45
7
48
45
7
49
45
6
48
45
7
48
45
6
48
45
7
49
45
6
48
45
7
48
45
6
48
45
7
48
45
7
48
45
6
48
46
6
48
45
7
48
46
6
48
45
7
48
45
6
48
45
7
47
45
6
48
44
6
48
45
6
48
45
6
48
44
7
48
45
7
47
45
7
48
44
7
48
45
6
48
44
7
47
44
6
48
44
6
48
45
6
48
45
6
48
45
7
48
48
7
51
48
7
51
48
7
51
48
7
51
48
7
51
48
7
52
48
7
51
47
6
51
48
7
51
47
7
51
48
7
51
47
7
51
47
7
51
48
7
51
48
7
51
48
7
51
48
6
51
47
7
51
48
7
51
48
7
51
47
7
51
47
7
51
48
7
51
47
7
51
48
7
51
48
7
50
48
7
51
47
7
51
47
7
51
48
7
51
47
7
51
47
7
50
48
7
50
47
6
51
48
7
51
47
7
51
47
7
50
47
7
51
47
7
50
47
7
50
48
6
50
47
7
50
47
7
50
48
7
51
47
7
51
47
6
50
47
7
50
47
7
51
47
7
50
47
7
50
47
7
50
47
7
51
47
7
51
47
6
50
47
7
50
47
7
50
47
7
50
47
6
50
47
7
50
47
6
51
47
7
50
47
7
50
47
7
50
47
7
51
47
7
50
46
7
50
47
6
50
47
7
49
46
6
50
47
7
50
47
6
50
47
6
50
46
6
50
47
7
50
47
6
50
46
6
49
46
6
49
46
6
50
47
6
50
46
7
50
50
7
53
50
7
54
50
7
53
50
8
53
50
7
54
50
7
53
50
7
53
50
7
53
49
7
53
50
7
53
50
7
53
50
7
52
50
7
53
49
7
53
49
7
53
49
7
53
50
7
53
49
7
52
50
7
53
50
8
53
49
7
53
49
8
53
50
8
53
49
7
53
50
7
52
50
7
53
49
7
53
49
7
52
49
7
53
50
7
52
49
7
53
50
7
53
50
7
52
49
7
53
49
7
53
50
8
53
49
7
52
49
7
52
49
7
52
50
7
52
49
7
53
49
7
52
49
7
52
49
7
52
49
7
52
49
7
52
49
7
53
49
7
52
49
7
52
49
7
53
49
7
53
49
7
53
50
7
52
49
7
52
49
7
53
49
7
53
49
7
52
49
7
53
49
7
52
49
7
53
49
7
52
49
7
52
49
7
53
49
7
53
49
7
53
48
7
52
49
7
52
49
7
52
49
7
52
49
7
51
48
7
52
49
7
52
48
7
52
49
7
51
49
7
51
49
7
52
49
7
52
49
7
52
49
7
52
49
7
52
52
8
55
52
7
55
52
8
56
52
7
55
52
7
56
52
7
55
52
8
55
52
8
56
51
7
55
52
7
55
52
7
55
52
7
55
51
7
54
52
8
55
51
8
55
51
7
55
51
7
55
52
8
55
51
8
55
52
8
55
51
7
55
52
7
55
51
8
55
52
7
55
51
8
55
51
7
55
51
8
55
51
7
55
51
7
54
52
7
55
52
7
55
51
7
55
51
7
55
51
7
55
52
7
55
51
8
55
51
8
55
51
7
54
51
8
55
51
8
55
51
7
55
51
7
54
51
7
55
51
7
54
51
8
54
51
8
55
51
7
54
51
7
54
51
7
55
51
7
55
51
8
54
51
7
54
51
7
54
51
7
54
51
8
54
51
7
54
51
7
54
51
7
54
51
7
55
51
7
55
51
8
54
51
7
55
51
8
55
51
8
54
51
8
54
51
7
54
50
8
54
51
7
54
51
8
53
50
7
54
50
7
53
51
8
53
51
7
54
50
7
54
51
7
54
51
7
54
51
7
54
51
7
54
50
7
54
50
7
54
53
8
57
54
8
57
54
8
57
54
8
57
54
7
58
54
8
58
53
7
57
54
8
58
53
8
57
53
7
57
54
8
57
53
7
57
54
8
57
54
7
57
53
7
57
53
7
57
54
8
57
53
8
57
54
8
57
53
8
57
54
8
57
53
8
57
54
8
57
53
7
57
53
7
57
54
8
57
53
8
57
54
8
57
53
8
57
53
8
57
53
8
57
53
8
57
54
7
57
54
8
57
53
7
56
53
8
57
54
7
57
53
7
57
52
8
57
53
7
56
53
8
56
53
8
56
53
7
57
53
7
57
53
7
56
53
7
57
53
8
56
53
7
56
53
8
56
53
8
56
53
8
57
53
7
57
53
8
57
53
8
56
53
8
56
53
8
57
53
7
56
53
8
56
53
8
57
53
8
56
53
8
57
53
7
56
53
7
57
53
8
57
53
8
56
53
7
56
52
7
56
53
8
56
52
8
55
53
8
56
52
7
56
53
7
56
52
7
56
53
8
56
53
7
56
53
8
56
52
7
56
53
7
56
53
7
56
52
7
56
56
8
59
56
7
59
56
8
60
56
8
59
55
8
60
56
8
60
56
8
59
56
8
59
56
7
60
56
8
59
56
8
59
55
8
59
56
8
59
56
8
59
56
8
59
55
8
59
55
8
59
55
8
59
56
8
59
55
8
60
55
8
59
55
8
60
56
8
59
55
8
59
55
8
59
56
8
59
55
8
59
56
8
59
55
8
59
56
8
59
55
8
59
55
8
59
55
8
59
55
8
59
55
8
60
55
8
59
56
8
59
55
8
58
55
8
59
55
8
59
54
7
58
54
7
58
55
8
58
55
8
59
55
8
58
55
8
59
55
8
59
55
7
59
55
8
58
55
8
58
55
8
59
55
8
58
55
8
58
55
8
58
55
8
59
55
8
58
55
7
58
55
8
59
55
8
59
55
8
59
55
8
58
55
8
59
55
8
58
55
8
58
55
8
58
55
8
59
54
8
58
55
8
58
55
8
58
54
8
58
54
8
58
54
8
58
55
8
58
55
7
58
54
8
58
55
8
58
54
7
58
55
8
58
54
8
58
55
8
58
58
8
62
58
8
62
58
8
62
58
8
62
58
9
62
57
9
61
58
8
61
57
9
62
58
8
62
57
8
61
58
8
61
58
8
61
57
8
61
57
9
61
57
8
61
58
8
61
58
8
61
58
8
61
58
8
61
58
8
61
57
8
61
57
8
61
57
8
61
57
8
61
58
8
61
58
8
61
57
8
61
58
8
61
57
8
61
57
8
61
57
8
61
58
9
61
57
8
61
58
8
61
57
8
61
58
8
61
57
8
61
58
9
62
57
8
61
57
8
61
56
8
61
57
8
61
57
8
61
57
8
60
57
8
61
57
9
61
57
8
61
57
8
61
57
8
61
57
8
61
57
9
61
57
8
60
57
8
61
56
8
61
57
8
61
57
8
60
57
8
61
57
8
60
57
8
60
57
8
61
57
8
61
56
8
61
57
8
61
57
8
61
57
8
60
57
8
60
57
8
61
56
8
60
57
8
60
56
8
60
56
8
60
56
8
60
56
8
60
56
8
60
56
8
60
56
8
60
57
8
60
56
9
61
56
9
60
57
8
60
60
9
64
60
8
64
59
9
64
60
8
64
60
9
63
60
9
64
60
9
63
59
9
64
60
8
64
59
8
63
59
9
63
60
8
63
60
9
64
59
9
63
59
9
63
59
8
63
59
8
64
60
8
63
60
8
63
59
9
63
59
9
63
59
9
64
59
9
63
59
8
64
60
9
63
59
9
63
60
8
63
59
8
63
59
9
63
59
8
63
59
8
63
59
8
63
60
8
63
59
8
63
59
8
63
60
8
63
59
8
63
59
8
63
59
9
63
59
8
62
59
9
63
58
9
63
58
8
63
58
8
63
59
8
63
59
9
63
58
8
63
59
9
63
59
9
62
59
9
62
59
8
62
59
8
63
59
8
62
58
9
63
59
8
63
59
8
62
59
8
63
59
8
63
59
8
63
58
8
62
58
8
63
58
8
62
59
8
63
58
9
63
59
8
63
59
8
63
59
8
63
59
9
62
58
8
62
58
8
62
58
8
62
59
8
62
59
8
62
58
8
62
58
8
63
59
8
62
59
8
62
59
8
62
58
8
62
58
8
62
62
8
66
62
9
66
62
9
66
62
8
66
61
9
66
62
9
66
62
9
66
62
9
66
61
9
65
62
9
66
62
9
65
61
9
66
61
9
65
61
9
65
62
9
65
62
9
65
62
9
65
62
9
65
62
9
65
61
9
65
62
9
66
61
8
66
61
9
65
61
9
65
61
9
65
61
8
66
62
8
65
61
9
65
61
9
65
61
9
65
61
8
65
61
9
66
61
9
66
61
9
66
61
8
65
61
9
66
61
8
65
61
9
65
61
9
66
60
9
65
60
9
65
61
9
64
61
9
64
61
8
64
61
9
65
61
9
64
61
9
65
61
8
65
61
9
65
60
9
65
61
9
64
61
8
65
61
8
64
60
9
65
60
9
65
61
8
65
61
9
65
61
8
65
60
9
65
61
9
65
60
9
65
61
9
65
61
9
64
61
8
65
61
9
65
61
9
65
61
8
64
61
9
65
60
8
64
60
9
64
61
8
65
60
8
64
60
9
64
60
8
65
60
9
64
60
8
64
60
9
64
60
9
64
60
9
64
60
8
64
62
9
66
61
9
65
62
9
66
62
9
65
62
9
66
62
9
66
61
9
65
62
9
66
62
8
66
62
9
65
61
9
66
62
9
65
61
9
66
61
9
66
61
9
65
61
9
66
61
9
65
62
9
66
62
8
66
62
9
65
62
9
66
61
8
66
62
9
66
61
9
66
61
9
66
62
9
66
62
9
66
62
9
66
61
9
66
62
9
66
62
9
66
61
9
65
62
8
65
62
9
65
62
8
66
62
8
66
62
9
66
62
9
66
62
8
66
61
9
66
61
9
66
62
8
66
62
8
66
62
8
65
62
9
66
61
9
65
62
9
66
61
8
66
62
9
66
62
9
66
61
9
66
62
9
65
62
9
66
62
9
66
61
9
66
62
9
66
62
9
66
62
9
66
62
9
65
62
8
66
61
8
66
62
9
65
62
9
65
62
9
66
62
9
65
62
9
66
62
9
66
61
8
66
62
9
66
61
9
66
62
8
65
62
9
66
62
9
66
61
9
66
62
9
66
62
9
66
62
8
66
61
9
65
62
9
66
62
9
65
61
9
66
62
9
66
62
9
66
62
8
66
61
9
66
61
9
66
61
9
66
61
9
65
61
9
66
62
8
66
62
9
65
62
9
66
61
9
66
62
9
65
61
9
66
62
9
66
62
9
65
62
9
66
62
8
65
61
9
65
62
8
65
62
9
65
62
9
66
62
8
66
61
9
66
62
9
66
62
9
66
62
9
65
62
9
66
62
8
66
62
9
66
62
9
65
61
9
66
61
9
66
62
9
66
62
9
66
62
9
66
62
9
66
61
8
66
62
9
66
62
9
66
62
9
66
61
9
65
62
9
66
62
9
66
62
8
66
61
9
66
62
9
66
62
9
66
61
9
65
62
9
66
62
9
65
62
9
66
61
8
66
62
8
65
62
9
66
62
9
65
62
9
66
62
9
65
62
9
66
62
9
66
62
9
66
62
9
66
62
9
66
61
9
66
62
9
66
62
9
65
61
9
66
62
8
65
62
8
66
61
8
66
62
8
66
62
9
66
62
9
66
61
9
65
61
9
65
62
9
66
62
9
66
62
9
66
62
9
66
62
8
66
61
9
66
62
9
66
61
9
66
61
9
66
62
9
66
62
9
66
62
9
66
62
9
66
61
9
65
62
9
66
61
8
65
62
9
66
62
9
65
61
9
65
62
9
65
62
9
66
62
9
66
62
9
65
62
9
66
62
9
66
61
9
65
62
9
66
62
8
66
61
8
66
62
9
65
62
9
66
62
9
66
62
8
66
62
9
65
61
9
65
62
8
66
62
8
65
61
8
66
62
9
65
62
9
65
62
9
66
62
9
66
62
8
65
62
9
66
62
9
65
62
9
66
62
9
66
62
8
66
62
8
66
62
9
66
62
9
66
61
9
66
62
9
66
62
9
66
61
9
66
62
9
66
61
9
65
62
8
66
62
9
66
62
9
66
62
8
66
61
9
66
62
8
66
62
9
65
62
9
66
62
8
66
62
9
66
62
8
65
62
9
66
61
9
66
61
9
66
62
9
66
62
9
66
62
9
66
61
9
65
62
9
65
61
9
65
61
9
66
62
9
65
62
9
66
62
9
66
62
9
66
62
9
66
62
9
66
62
9
66
62
9
65
62
9
66
61
9
66
62
9
66
62
8
66
61
9
66
61
9
66
61
9
65
62
9
66
62
9
66
62
9
66
61
9
66
62
9
65
62
9
66
62
8
66
62
9
66
62
9
66
62
9
66
61
9
66
62
8
65
62
9
66
61
9
65
62
9
65
61
9
66
62
9
66
62
9
66
61
9
65
62
8
66
62
8
65
61
9
66
62
9
66
62
9
65
62
9
66
62
9
66
62
9
65
62
8
66
62
8
65
62
9
66
62
9
66
61
9
66
62
9
66
62
8
66
62
9
66
61
9
66
62
8
66
61
9
65
62
9
66
62
8
66
62
9
65
62
9
66
62
8
65
62
9
65
61
9
66
61
9
66
62
9
66
62
9
66
62
9
66
62
9
66
62
9
66
61
8
66
61
9
66
61
9
66
62
9
66
62
9
66
62
9
66
62
8
65
62
9
66
62
9
66
61
8
66
62
9
66
62
8
66
62
9
66
62
9
66
61
9
66
62
9
66
62
9
66
62
8
65
62
8
66
61
9
65
62
9
66
62
9
66
61
9
66
62
8
66
62
9
66
61
9
65
62
8
66
62
9
66
61
8
66
62
9
66
62
9
66
62
8
65
62
9
66
62
9
66
62
9
66
61
8
65
62
9
66
62
9
66
62
9
66
62
9
66
61
9
66
61
8
65
61
9
66
61
9
66
62
9
65
62
9
66
62
9
65
62
8
66
61
9
66
62
9
65
61
9
66
62
8
65
62
8
66
62
9
66
61
8
66
62
9
66
62
9
66
62
9
66
62
9
65
62
9
66
62
9
66
62
9
66
62
9
66
62
9
66
62
9
65
61
9
66
61
9
66
62
9
66
62
8
66
62
8
66
62
8
66
62
9
66
62
9
66
62
8
66
61
8
65
62
9
66
62
8
66
62
8
65
62
9
66
61
9
66
62
8
66
61
9
66
61
8
66
62
9
66
61
9
66
62
9
66
62
9
66
61
8
66
61
9
65
62
9
65
62
9
66
62
9
65
62
9
66
62
9
65
61
9
66
62
9
66
62
9
66
62
9
66
62
9
65
62
9
66
61
8
66
62
9
66
62
9
65
62
9
66
62
8
66
62
9
66
62
8
66
62
9
66
62
9
66
62
8
66
62
9
66
61
8
66
61
9
66
62
9
66
61
8
66
62
9
66
62
9
66
61
8
66
62
9
65
62
9
65
62
9
66
61
8
66
62
9
65
61
9
66
61
8
66
62
9
66
62
9
66
62
9
66
62
9
66
62
8
66
61
9
66
61
8
66
62
9
65
62
8
66
62
8
66
62
9
66
62
8
66
62
9
65
62
9
66
61
9
66
62
9
66
61
9
66
62
9
66
62
9
66
61
9
65
61
8
66
62
9
66
62
9
66
62
8
66
61
9
66
62
9
66
61
9
66
62
9
66
61
8
66
62
9
66
62
9
65
61
9
66
62
9
66
62
9
66
61
9
66
62
9
66
62
9
66
62
9
66
62
9
65
61
9
66
62
9
65
62
9
66
61
9
66
62
9
66
61
9
65
62
9
65
61
9
66
62
8
66
62
8
66
61
9
66
62
9
66
61
9
65
61
9
66
62
9
66
62
9
65
62
9
65
62
8
66
61
8
66
62
9
66
62
9
66
62
9
66
62
9
66
61
9
65
62
9
65
62
9
66
61
9
66
61
8
66
62
9
66
61
9
66
61
9
66
62
8
66
62
9
66
62
8
65
61
9
66
62
9
66
61
9
66
62
9
66
61
9
66
62
9
66
62
9
66
61
8
66
61
9
66
61
9
66
62
9
66
62
9
66
61
9
65
61
9
66
61
9
66
62
9
65
62
9
66
62
9
66
62
8
65
62
9
66
62
9
66
62
8
66
61
9
66
61
8
66
62
9
66
62
9
65
61
9
66
62
9
66
62
9
66
61
9
66
62
9
66
62
9
66
62
9
66
61
9
66
62
8
65
62
8
66
62
9
65
62
9
66
62
9
66
61
9
66
62
9
65
61
9
66
62
9
66
61
9
66
62
9
66
61
9
66
61
9
66
62
9
66
62
8
66
62
9
66
62
9
66
61
9
66
62
9
66
61
9
66
62
9
65
62
9
66
62
8
65
61
9
66
62
9
66
62
9
65
62
8
66
62
9
66
62
9
66
62
8
66
62
9
66
62
9
66
62
9
66
62
9
66
62
9
66
62
9
65
62
9
65
62
9
66
62
9
66
62
9
66
62
9
65
61
9
66
61
9
66
62
9
66
62
9
66
62
9
66
61
9
66
62
9
66
61
9
66
61
9
66
62
8
65
62
9
65
62
9
66
62
8
66
62
9
66
62
9
66
62
9
66
62
9
65
61
9
66
62
9
66
62
8
66
62
9
66
62
9
66
61
9
66
61
9
66
62
9
66
61
9
65
62
9
66
62
9
66
62
9
66
62
9
66
62
9
66
61
9
65
62
9
66
62
9
66
61
9
66
62
9
65
61
9
65
62
9
66
62
9
66
62
9
66
62
9
66
61
8
66
61
9
66
61
9
66
61
9
65
61
9
66
62
9
66
62
8
66
62
9
66
62
9
66
62
9
66
61
9
66
62
9
65
61
9
66
62
9
65
61
8
65
62
9
66
62
9
66
62
9
66
62
9
66
62
9
66
62
9
66
61
8
66
61
9
66
61
9
66
62
9
66
61
9
66
62
9
66
62
9
65
61
9
66
62
8
66
62
9
65
62
9
66
61
9
66
61
8
66
62
9
66
62
9
66
61
9
66
62
8
66
62
9
66
61
9
66
62
9
66
61
9
66
62
8
66
62
8
66
61
9
66
62
9
66
62
9
66
62
9
66
62
9
66
62
9
66
61
9
66
62
9
66
61
8
66
62
9
66
62
9
65
62
9
65
62
8
66
62
8
65
62
9
66
62
9
66
62
9
66
62
9
66
62
9
66
61
9
66
62
9
66
62
8
65
61
8
66
62
8
66
62
9
66
62
9
65
62
8
66
62
8
66
62
9
66
62
8
65
61
9
65
62
9
66
61
8
65
62
8
66
62
9
66
62
8
66
62
8
66
61
9
65
62
9
66
62
9
66
61
8
66
62
9
65
61
8
65
62
8
65
62
8
66
62
9
65
62
9
66
62
9
65
61
8
66
62
9
66
62
9
66
62
9
66
62
9
66
62
8
66
62
9
66
62
8
66
62
9
66
61
9
66
62
9
66
61
9
65
62
9
66
62
9
66
62
9
66
61
8
66
62
9
66
62
9
66
61
9
66
62
9
66
62
9
65
62
9
66
62
9
65
62
8
66
62
8
66
62
9
66
61
9
65
61
9
66
62
8
66
62
9
66
62
9
66
61
8
65
62
8
66
62
8
66
62
8
66
62
9
66
61
8
65
62
9
66
61
9
66
62
9
66
62
9
66
62
9
65
61
9
65
62
9
66
62
9
66
62
9
65
62
9
66
61
9
66
62
9
66
62
9
66
61
9
66
62
9
66
62
9
66
62
9
66
62
9
66
61
9
66
62
9
66
62
9
66
62
9
66
62
9
65
61
9
66
62
9
66
62
9
66
62
9
66
62
9
66
62
8
66
62
9
66
61
9
66
62
8
66
61
9
66
61
9
66
62
8
66
61
9
66
61
9
66
62
9
66
62
9
66
62
8
65
62
9
66
62
9
65
62
9
65
62
8
66
61
9
66
61
9
66
62
9
65
62
9
66
61
9
66
61
8
66
62
8
66
62
9
65
62
9
65
62
9
66
61
9
65
61
9
65
61
9
66
62
8
66
62
9
65
62
9
65
62
9
66
61
9
66
62
9
66
62
9
66
61
8
66
62
9
66
62
9
66
62
9
65
62
9
66
61
9
65
61
9
65
62
9
66
62
9
66
61
9
66
61
9
66
62
9
66
62
9
66
61
9
66
62
9
66
61
8
66
61
8
66
62
9
66
62
9
66
61
9
65
61
9
66
61
9
66
62
8
66
62
8
66
61
8
66
61
8
66
61
9
65
62
9
65
62
9
66
62
8
65
61
9
66
61
9
66
62
9
66
61
9
66
62
9
65
62
9
66
62
8
66
62
9
66
62
9
65
62
9
66
61
9
66
62
9
66
62
9
66
62
9
66
62
8
66
62
9
66
61
8
66
62
9
66
61
9
66
62
9
65
62
9
66
61
9
66
62
9
66
61
9
66
62
9
66
61
9
66
62
9
66
62
8
65
62
9
66
62
9
66
61
9
65
62
9
65
62
8
65
62
9
66
62
8
66
62
9
66
62
9
66
62
9
66
62
9
66
61
9
66
62
9
66
62
8
66
62
9
66
62
8
66
62
8
66
62
9
66
62
9
66
61
9
66
62
9
65
61
9
66
61
8
66
61
9
65
62
9
66
62
8
66
61
9
66
61
9
66
62
9
66
62
9
66
62
9
66
62
9
66
62
8
65
62
8
66
61
9
66
61
9
66
62
9
66
62
9
66
62
9
66
62
9
66
62
9
66
62
9
65
62
9
65
62
9
65
62
9
65
61
9
66
61
9
66
61
9
66
61
9
66
61
9
66
62
9
66
62
9
66
62
9
66
61
9
66
62
8
65
61
9
66
62
9
66
61
8
66
62
9
66
62
9
66
62
9
66
62
9
65
61
8
66
62
9
66
62
9
66
62
9
66
62
9
66
62
9
66
62
9
65
62
9
66
61
8
66
62
9
66
62
9
66
61
9
66
62
9
66
62
9
66
62
9
66
61
8
66
62
9
65
62
9
66
62
9
66
62
9
66
61
9
65
62
8
65
61
8
66
62
9
66
62
9
66
61
8
66
62
8
66
61
9
66
61
9
66
61
9
66
62
9
66
61
9
66
62
9
66
62
9
65
61
8
65
62
9
65
61
9
66
62
9
66
62
9
66
61
9
65
62
8
66
62
8
66
61
9
66
62
9
66
62
8
66
62
8
66
61
9
66
62
9
66
61
9
66
62
9
65
62
9
66
61
9
66
62
9
66
62
9
66
62
9
66
62
9
65
62
8
66
61
9
66
61
9
66
61
9
66
62
9
66
62
9
66
62
9
65
62
9
66
62
9
66
62
9
66
62
9
66
62
9
66
62
9
66
61
8
65
62
9
65
61
9
66
62
9
65
61
9
66
61
9
65
61
9
66
61
9
65
62
9
66
62
9
66
61
8
65
61
9
66
61
9
65
61
9
66
62
9
66
62
9
66
61
9
66
62
9
65
62
8
66
62
9
66
62
9
66
62
9
66
62
9
66
62
9
66
62
9
66
61
9
66
62
8
66
62
8
66
61
9
66
62
9
66
62
9
66
61
9
65
62
9
66
62
9
66
61
9
66
61
9
65
61
8
66
62
9
66
62
9
66
62
9
66
61
9
66
61
9
65
61
9
66
61
9
66
62
9
66
61
9
66
62
9
66
62
9
65
62
9
65
62
9
66
62
9
65
62
9
66
62
9
65
62
9
65
62
9
66
62
8
66
62
9
66
61
9
66
62
9
66
61
9
66
62
9
66
61
8
65
62
9
66
62
8
65
61
9
66
62
8
65
61
9
66
62
9
66
62
9
66
62
9
66
61
9
66
61
8
66
61
9
65
62
9
66
62
8
65
62
8
66
62
9
65
62
9
65
62
8
65
62
9
66
61
9
66
62
9
66
61
9
66
62
9
66
61
9
66
61
8
66
62
9
66
62
9
66
62
9
66
62
8
66
62
9
65
62
9
65
61
9
66
62
9
66
61
9
66
62
9
66
61
9
65
61
9
66
62
9
65
62
8
66
62
9
65
61
8
65
62
9
66
61
9
66
61
9
65
62
9
66
62
8
65
62
9
66
62
9
66
61
9
66
62
9
66
62
9
65
62
9
66
62
9
66
62
9
66
61
9
66
62
9
66
62
8
66
62
9
66
61
8
65
62
9
66
61
9
66
62
8
66
62
8
66
61
9
66
62
9
66
62
9
66
62
9
66
62
9
65
62
9
66
61
9
66
62
9
66
62
9
66
62
9
66
62
9
66
62
9
66
62
9
65
62
9
65
62
9
65
62
8
66
62
9
66
62
9
66
62
9
66
62
9
65
62
9
66
62
9
66
62
8
65
62
9
66
61
8
66
62
9
65
62
9
66
62
9
66
62
9
66
62
9
66
62
9
65
62
9
66
61
8
66
62
9
66
62
9
66
61
9
65
61
9
66
62
8
65
62
9
66
62
9
66
62
9
65
62
9
66
62
8
66
62
9
66
62
8
66
62
9
66
62
9
65
61
9
66
61
8
65
62
9
65
61
9
65
61
9
65
62
8
65
62
9
66
62
9
65
61
9
66
61
9
66
62
9
66
62
9
66
62
9
66
62
8
66
61
9
66
62
9
66
62
9
66
62
8
66
61
8
66
62
9
65
62
9
66
62
9
66
61
9
66
62
9
65
61
9
66
62
9
65
62
9
66
61
9
66
62
9
66
61
9
65
62
9
66
61
9
65
62
8
66
