P3
10 10
255
9
60
56
9
61
56
10
60
55
10
61
55
9
61
56
9
61
56
10
61
55
9
60
55
9
58
53
9
56
52
9
61
56
9
61
56
9
60
56
9
61
55
9
60
56
10
60
56
10
60
55
9
59
54
9
58
53
9
57
53
9
60
56
10
61
56
9
61
56
10
60
56
10
61
56
10
60
56
9
60
56
9
59
55
9
58
53
8
56
52
9
60
56
9
60
56
10
60
56
9
60
56
10
61
56
9
61
56
10
61
55
9
59
55
9
58
53
9
57
52
9
61
55
9
60
56
9
61
56
10
61
56
10
61
56
9
61
55
10
61
56
9
60
54
9
58
53
9
57
52
10
61
55
9
61
56
9
61
56
9
61
56
9
61
56
10
61
55
9
60
55
9
59
54
8
58
53
9
57
52
9
60
56
9
60
56
10
61
55
10
61
56
9
61
56
10
60
55
9
60
56
10
59
55
9
58
53
9
57
52
9
61
56
10
61
56
10
61
56
10
60
56
10
61
56
10
60
56
10
60
55
10
59
54
9
58
53
9
57
52
9
61
55
9
60
56
9
61
56
9
61
56
10
60
56
10
61
56
9
60
55
9
59
54
9
58
53
9
57
52
10
60
56
9
61
56
10
60
56
10
60
56
9
61
56
9
60
56
9
61
55
9
59
54
9
58
53
9
57
52
