P3
10 10
255
33
0
7
32
0
7
32
0
6
31
0
6
30
0
7
31
0
6
30
0
7
29
0
6
28
0
6
28
0
6
34
0
7
33
0
7
32
0
7
32
0
7
31
0
7
31
0
6
30
0
6
29
0
7
29
0
6
28
0
6
34
0
7
33
0
7
33
0
7
32
0
7
32
0
6
31
0
7
31
0
6
29
0
6
30
0
6
28
0
6
35
0
8
34
0
7
34
0
7
32
0
7
32
0
7
32
0
7
31
0
7
30
1
6
30
0
7
29
0
6
35
0
8
34
0
8
34
0
7
33
0
7
33
0
7
32
0
7
31
0
7
31
0
7
30
0
6
30
0
7
36
0
7
34
1
8
34
0
8
33
0
7
33
0
7
32
0
7
32
0
7
31
0
6
30
0
7
30
0
6
36
0
8
35
0
7
34
0
8
34
0
7
34
0
7
33
0
7
32
0
7
32
0
7
31
0
7
31
0
6
36
0
7
36
0
8
35
0
8
34
1
8
33
0
7
34
0
7
33
0
7
32
0
6
31
0
7
31
0
6
36
0
8
36
0
8
35
0
8
35
0
7
35
0
7
34
0
8
33
0
7
32
0
7
32
0
6
31
0
7
37
0
8
37
0
8
36
0
7
35
0
8
35
0
8
34
0
7
34
0
7
33
0
7
33
0
6
32
0
6
