P3
30 10
255
0
0
0
0
0
0
0
0
0
0
0
0
0
0
0
0
0
0
0
0
0
0
0
0
0
0
0
0
0
0
0
0
0
0
0
0
0
0
0
0
0
0
0
0
0
0
0
0
0
0
0
0
0
0
0
0
0
0
0
0
0
0
0
0
0
0
0
0
0
0
0
0
0
0
0
0
0
0
0
0
0
0
0
0
0
0
0
0
0
0
0
0
0
255
255
255
255
255
255
255
255
255
255
255
255
8
8
8
3
3
3
0
0
0
0
0
0
255
255
255
255
255
255
255
255
255
0
0
0
0
0
0
0
0
0
255
255
255
255
255
255
255
255
255
255
255
255
255
255
255
18
18
18
0
0
0
255
255
255
17
17
17
0
0
0
7
7
7
255
255
255
0
0
0
0
0
0
0
0
0
0
0
0
255
255
255
0
0
0
0
0
0
0
0
0
255
255
255
3
3
3
0
0
0
255
255
255
0
0
0
0
0
0
0
0
0
255
255
255
0
0
0
0
0
0
255
255
255
25
25
25
0
0
0
0
0
0
0
0
0
0
0
0
0
0
0
255
255
255
6
6
6
17
17
17
255
255
255
15
15
15
0
0
0
0
0
0
0
0
0
0
0
0
255
255
255
0
0
0
0
0
0
0
0
0
255
255
255
16
16
16
0
0
0
255
255
255
9
9
9
0
0
0
0
0
0
255
255
255
9
9
9
20
20
20
255
255
255
0
0
0
0
0
0
0
0
0
0
0
0
0
0
0
0
0
0
255
255
255
17
17
17
255
255
255
8
8
8
8
8
8
0
0
0
0
0
0
0
0
0
0
0
0
255
255
255
255
255
255
255
255
255
255
255
255
8
8
8
0
0
0
0
0
0
247
247
247
255
255
255
255
255
255
245
245
245
255
255
255
15
15
15
20
20
20
255
255
255
0
0
0
0
0
0
0
0
0
0
0
0
0
0
0
0
0
0
255
255
255
255
255
255
0
0
0
0
0
0
0
0
0
0
0
0
0
0
0
0
0
0
0
0
0
255
255
255
12
12
12
12
12
12
15
15
15
255
255
255
7
7
7
0
0
0
255
255
255
7
7
7
0
0
0
23
23
23
255
255
255
0
0
0
0
0
0
255
255
255
0
0
0
0
0
0
0
0
0
0
0
0
0
0
0
0
0
0
255
255
255
13
13
13
255
255
255
22
22
22
0
0
0
0
0
0
0
0
0
0
0
0
0
0
0
255
255
255
0
0
0
0
0
0
0
0
0
255
255
255
6
6
6
0
0
0
255
255
255
8
8
8
0
0
0
0
0
0
255
255
255
0
0
0
0
0
0
255
255
255
0
0
0
0
0
0
0
0
0
0
0
0
0
0
0
0
0
0
255
255
255
0
0
0
15
15
15
255
255
255
2
2
2
0
0
0
0
0
0
0
0
0
0
0
0
255
255
255
255
255
255
255
255
255
255
255
255
15
15
15
7
7
7
2
2
2
245
245
245
0
0
0
0
0
0
0
0
0
255
255
255
0
0
0
0
0
0
255
255
255
255
255
255
255
255
255
255
255
255
255
255
255
7
7
7
0
0
0
255
255
255
0
0
0
0
0
0
3
3
3
255
255
255
0
0
0
0
0
0
0
0
0
0
0
0
24
24
24
17
17
17
21
21
21
26
26
26
1
1
1
2
2
2
0
0
0
0
0
0
0
0
0
0
0
0
0
0
0
0
0
0
0
0
0
0
0
0
0
0
0
0
0
0
0
0
0
0
0
0
21
21
21
0
0
0
0
0
0
0
0
0
0
0
0
0
0
0
0
0
0
0
0
0
0
0
0
0
0
0
0
0
0
0
0
0
0
0
0
3
3
3
1
1
1
0
0
0
0
0
0
0
0
0
0
0
0
0
0
0
0
0
0
0
0
0
0
0
0
0
0
0
0
0
0
0
0
0
0
0
0
0
0
0
0
0
0
0
0
0
0
0
0
0
0
0
0
0
0
0
0
0
0
0
0
0
0
0
0
0
0
0
0
0
0
0
0
0
0
0
0
0
0
