P3
80 60
255
28
0
5
27
0
5
26
0
6
25
0
6
25
0
5
24
0
5
24
0
5
24
0
5
23
0
5
23
0
4
22
0
4
21
0
5
21
0
4
20
0
4
19
0
4
18
0
4
18
0
4
18
0
3
17
0
4
16
0
4
15
0
3
15
0
3
15
0
3
14
0
3
13
0
3
13
0
3
12
0
3
12
0
3
11
0
2
11
0
2
10
0
2
9
0
2
9
1
2
9
0
2
8
0
1
7
0
1
7
0
2
6
0
1
5
0
1
5
0
1
5
0
1
4
0
1
3
0
0
2
0
1
2
0
0
2
0
0
1
0
0
1
0
0
1
0
0
1
0
1
1
0
0
1
0
0
1
0
0
0
1
0
0
0
0
0
0
1
1
0
1
1
0
0
1
0
0
1
0
0
1
0
0
0
0
1
1
0
0
0
0
0
1
0
0
1
0
0
0
0
0
1
0
0
0
0
0
0
0
0
1
0
1
1
0
0
0
0
0
0
0
0
0
0
0
0
0
0
0
0
0
1
0
0
0
0
0
0
0
0
27
0
6
27
0
6
27
1
6
26
0
5
26
0
6
25
0
6
24
0
6
24
0
6
24
0
5
22
0
5
22
0
5
22
0
5
20
0
4
21
0
4
20
0
4
19
0
4
18
0
4
17
0
4
17
0
4
17
0
4
16
0
4
16
0
4
15
0
3
15
0
3
14
0
3
13
0
3
13
0
3
12
0
2
12
0
3
11
0
2
10
0
2
10
0
2
9
0
2
8
0
2
8
0
2
8
0
1
7
0
2
6
1
2
6
0
1
5
0
1
5
0
1
4
0
1
3
0
1
3
0
1
2
0
1
1
0
0
1
0
0
1
0
0
1
0
0
0
0
0
1
0
0
1
0
0
1
1
1
1
0
0
1
0
0
1
0
0
1
1
0
1
0
0
1
0
0
1
0
0
1
0
0
1
1
0
1
0
0
1
0
0
1
0
0
0
0
0
0
0
0
1
0
1
1
0
0
0
0
0
0
0
0
1
0
0
0
0
0
0
0
0
0
0
0
0
0
0
0
0
0
0
0
0
1
0
0
0
0
0
29
0
6
27
0
5
27
0
6
27
0
6
26
0
6
25
0
6
25
0
5
24
0
5
23
0
5
23
0
5
23
0
4
21
0
5
21
0
4
21
0
4
20
0
4
20
0
4
19
0
4
18
0
4
18
0
3
17
0
4
16
0
4
16
0
3
15
0
4
15
0
3
14
0
3
14
0
3
13
0
2
12
1
2
12
0
3
12
0
2
11
0
2
10
0
2
10
0
2
9
0
2
9
0
2
8
0
1
8
0
2
7
0
1
6
0
2
5
0
1
5
0
1
4
0
1
4
0
1
3
0
0
3
0
1
2
0
0
2
0
0
0
0
1
1
0
0
1
0
0
0
0
1
1
0
0
1
0
0
1
0
0
1
0
0
1
0
0
1
0
0
0
0
0
1
0
0
1
0
0
1
0
0
0
0
0
0
0
1
0
0
0
0
0
0
1
0
0
1
0
0
1
0
0
1
0
0
1
0
0
0
0
0
0
0
0
1
0
0
1
0
0
1
0
0
1
0
0
0
0
0
0
0
0
0
0
0
0
0
0
29
0
6
28
0
6
28
0
6
26
0
6
27
0
6
26
0
5
25
1
5
25
0
6
24
0
5
23
0
5
22
0
5
22
0
5
22
0
4
21
0
4
20
0
5
20
0
4
20
0
4
19
0
4
18
0
4
18
0
4
18
0
4
16
0
4
16
0
3
15
0
3
15
0
3
14
0
3
14
0
3
13
0
3
12
0
3
12
0
2
12
0
3
11
0
3
10
0
2
9
0
2
9
0
2
8
0
2
8
0
1
7
0
1
7
0
1
6
0
2
5
0
1
5
0
1
4
0
1
4
0
0
3
0
1
2
0
1
2
0
1
2
0
1
1
0
0
1
0
0
1
0
0
1
0
0
0
0
0
1
0
0
1
0
0
1
0
0
1
1
0
1
0
1
0
0
0
0
0
0
1
0
0
0
0
0
1
0
0
1
0
0
0
0
0
1
0
0
0
0
0
1
0
0
1
0
1
1
0
0
0
0
1
0
0
0
1
0
0
0
0
0
1
0
0
0
0
0
0
0
0
0
0
0
0
0
0
1
0
0
29
0
6
29
0
6
28
0
6
27
0
6
27
0
6
26
0
5
26
0
6
25
0
6
25
0
6
24
0
5
24
0
5
23
0
5
23
0
5
21
0
4
21
0
4
21
0
4
20
0
5
19
0
4
19
0
4
18
0
4
18
0
4
16
0
3
16
0
3
16
0
3
16
0
4
14
0
3
14
0
3
14
0
3
13
0
3
13
1
2
12
0
3
11
0
2
10
0
3
10
0
2
9
0
2
8
0
2
8
0
2
8
0
2
7
0
1
7
0
2
6
0
2
5
0
1
5
0
1
4
0
1
4
0
1
3
0
1
3
0
1
2
0
0
2
0
1
1
0
0
1
0
0
1
0
0
1
0
0
1
0
0
0
0
0
1
0
0
1
0
0
1
0
0
1
0
0
0
0
0
0
0
0
0
0
0
0
0
0
1
0
0
0
0
0
0
0
0
1
0
0
1
0
1
1
0
0
1
0
0
1
0
0
0
0
0
1
0
0
1
0
0
1
0
0
0
0
0
1
0
0
0
0
0
0
0
0
0
0
0
30
0
6
28
0
6
28
0
6
27
0
6
27
0
6
27
0
5
26
0
5
25
0
5
25
0
6
24
0
6
24
0
5
23
0
5
22
0
5
22
0
4
21
0
4
21
0
4
20
0
4
19
0
4
19
0
4
18
0
4
18
0
4
17
0
3
16
0
3
16
0
3
16
0
4
15
0
4
14
0
3
14
0
3
13
0
3
13
0
3
12
0
3
12
0
2
11
0
2
10
0
2
10
0
2
10
0
2
9
0
2
8
0
2
7
0
2
7
0
2
6
0
2
6
0
1
5
0
1
5
0
1
4
0
1
3
0
1
3
0
1
3
0
0
1
0
1
1
0
0
1
0
0
1
0
0
1
0
0
1
0
0
1
0
0
1
0
0
1
0
0
1
0
0
0
0
0
1
0
0
1
0
0
1
0
1
1
0
0
1
0
0
1
0
1
1
0
0
0
0
0
0
0
0
0
0
0
1
0
0
0
0
0
1
0
0
1
0
0
1
0
0
0
0
1
1
0
0
0
0
0
0
0
0
0
0
0
1
0
0
30
0
6
29
0
6
29
0
6
28
0
6
27
0
6
27
0
6
26
0
6
26
0
5
25
0
5
25
0
5
24
0
6
23
0
5
23
0
5
23
0
5
22
0
4
22
0
4
20
0
4
20
0
4
19
0
4
18
0
4
19
0
4
18
0
3
17
0
4
17
0
4
16
0
4
15
0
3
15
0
3
14
0
3
14
0
3
13
0
3
13
0
2
12
0
3
11
0
2
11
0
2
10
0
2
9
0
2
9
0
2
8
0
2
8
0
1
7
0
2
6
0
1
6
0
2
5
0
1
5
0
2
4
0
1
4
0
1
4
0
0
3
0
0
2
0
1
1
0
1
1
0
0
1
0
1
1
0
1
1
0
0
0
0
1
1
0
0
1
0
0
0
0
1
1
0
0
0
0
0
1
0
0
0
0
0
1
0
0
1
0
0
1
0
1
1
0
0
0
0
0
1
0
0
1
0
1
0
0
0
1
0
0
1
0
1
1
0
0
0
0
0
1
0
0
0
0
0
0
0
0
0
0
0
0
0
0
0
0
0
30
0
7
30
0
6
29
0
6
29
0
6
28
0
6
28
0
6
27
0
6
27
0
6
25
0
5
25
0
5
24
0
5
24
0
5
23
0
5
23
0
5
22
0
5
22
0
5
21
0
4
21
0
4
20
0
4
19
0
4
18
0
4
18
0
3
18
0
4
17
0
3
17
0
3
16
0
3
15
0
3
14
0
3
14
0
3
14
0
3
13
0
3
12
0
3
11
0
3
11
0
3
10
0
2
10
0
2
10
0
2
8
0
2
8
0
2
7
0
2
7
0
2
6
0
1
6
0
1
5
0
2
5
0
1
4
0
1
3
0
1
3
0
1
3
0
0
2
0
0
1
0
0
1
0
0
1
0
0
1
0
0
1
0
0
1
0
0
1
0
0
0
0
1
1
0
0
1
0
0
1
0
0
1
0
0
1
0
0
1
0
1
1
0
0
1
0
0
1
0
0
0
0
1
1
0
1
1
0
0
1
0
0
0
0
0
1
0
0
0
0
0
0
0
0
1
0
0
1
0
0
1
0
1
1
0
0
0
0
0
30
0
7
30
0
7
29
0
6
29
0
6
28
0
6
28
0
6
27
0
6
27
0
6
26
0
5
25
0
5
25
0
6
24
0
6
24
0
5
23
0
5
22
0
4
22
0
5
21
0
4
21
0
5
20
0
4
20
0
5
19
0
4
19
0
4
18
0
4
17
0
4
17
0
4
16
0
4
16
0
3
15
0
3
15
0
4
14
0
3
13
1
3
13
0
2
12
0
2
12
0
2
11
0
2
11
0
2
10
0
3
9
0
2
9
0
2
8
0
2
7
0
2
7
0
1
6
0
2
6
0
2
5
0
1
5
0
1
4
0
0
4
0
1
3
0
1
2
0
0
2
0
1
2
0
0
1
0
0
1
0
0
1
0
0
1
0
0
1
0
0
1
0
0
1
0
1
0
0
0
1
0
0
1
0
0
1
0
1
0
0
1
0
0
1
1
0
0
1
0
0
1
0
0
1
0
0
0
0
0
0
0
0
0
0
0
0
0
0
1
0
0
0
0
0
0
0
0
0
0
0
1
0
0
0
0
0
1
1
0
32
0
6
31
0
7
30
0
7
29
0
7
29
0
7
28
0
6
28
0
6
27
0
6
26
0
5
27
0
5
26
0
6
24
0
6
24
0
5
24
0
5
23
0
5
22
0
5
22
0
4
22
0
4
20
1
5
20
0
4
19
0
4
19
0
5
19
0
4
18
0
4
17
0
3
16
0
4
16
0
3
16
0
3
15
0
3
14
0
3
14
0
3
14
0
3
13
0
3
12
0
3
11
0
3
10
0
2
11
0
2
10
0
2
9
0
2
8
0
2
8
0
2
8
0
1
7
0
1
6
0
2
6
0
2
5
0
1
5
0
1
4
0
1
4
0
0
3
0
1
3
0
0
2
0
0
1
0
0
1
1
0
1
0
0
1
0
0
1
0
0
1
0
0
1
0
0
1
1
0
0
0
0
1
0
0
1
0
0
1
0
0
1
0
0
1
0
0
1
0
0
1
0
1
1
0
0
1
0
0
1
0
0
1
0
0
0
0
0
0
0
0
0
0
0
1
0
1
0
0
0
0
0
0
0
0
0
1
0
0
32
0
7
31
0
7
30
0
6
30
0
6
30
0
6
29
0
6
28
0
6
27
0
6
27
0
6
26
0
6
26
0
5
25
0
5
24
0
5
24
0
5
24
0
5
23
0
5
22
0
5
21
0
5
22
0
4
20
0
4
20
0
5
19
0
4
19
0
4
18
0
4
18
0
4
18
0
4
17
0
3
16
1
4
16
0
4
15
0
4
14
0
3
14
0
3
13
0
3
12
0
3
12
0
3
12
0
2
11
0
3
11
0
2
10
0
2
9
0
2
8
0
2
8
0
2
8
0
2
7
0
1
6
0
1
5
0
1
5
1
1
5
0
1
4
0
0
3
0
0
3
0
0
3
0
1
1
0
0
1
0
1
1
0
0
1
0
0
1
0
0
0
0
0
1
0
0
1
0
0
0
0
0
1
0
0
1
0
1
1
0
0
1
0
0
1
0
0
1
0
0
1
1
0
1
0
0
0
0
0
0
0
0
1
0
0
1
0
0
0
0
0
0
0
0
0
0
0
0
0
1
0
0
0
0
0
0
0
0
0
32
0
7
31
0
6
31
0
7
30
0
6
30
0
7
29
0
7
28
0
6
28
0
6
27
0
6
27
0
6
27
0
6
26
0
6
25
0
5
24
0
5
24
0
5
23
0
5
23
0
5
22
0
4
22
1
5
21
0
5
20
0
5
20
0
4
20
0
4
19
0
4
18
0
4
18
0
4
17
0
3
16
0
4
16
0
4
15
0
4
14
0
3
14
0
3
14
0
3
13
0
3
12
0
3
12
0
2
11
0
3
10
0
3
11
0
2
9
0
2
9
0
2
8
0
1
8
0
1
7
0
2
7
0
1
6
0
1
6
0
1
4
0
1
5
0
1
4
0
1
3
0
0
3
0
1
2
0
0
2
0
0
1
0
1
0
0
1
1
0
1
1
0
0
1
0
0
1
0
0
1
0
0
1
0
0
0
0
0
1
0
0
1
0
0
1
0
0
1
0
0
1
0
0
0
0
0
0
0
0
0
0
0
1
0
1
1
0
0
0
0
0
0
0
0
0
0
0
0
0
0
0
0
0
0
0
1
0
0
0
32
0
7
32
0
7
31
0
7
31
0
7
30
0
6
30
0
6
29
0
6
29
0
6
28
0
6
27
0
6
27
0
6
26
0
5
26
0
5
25
0
5
24
0
6
24
0
5
24
0
5
23
0
5
22
0
5
21
0
4
21
0
5
20
0
4
20
0
4
19
0
4
19
0
4
18
0
4
17
0
3
17
0
3
16
0
3
16
0
3
15
0
3
14
0
3
14
0
3
14
0
3
12
0
3
12
0
3
12
0
2
11
0
3
11
0
3
10
0
2
10
0
3
9
0
2
8
0
2
7
0
1
7
0
2
6
0
1
6
0
2
6
0
1
5
0
1
4
0
1
4
0
1
3
0
1
3
0
0
1
0
0
1
0
0
1
0
0
1
0
0
1
0
0
1
0
0
1
0
1
0
0
0
1
0
0
1
0
0
1
0
1
1
0
1
0
0
0
1
0
0
0
0
0
1
0
0
0
0
0
0
0
0
1
0
1
0
0
0
1
0
0
0
0
0
1
0
0
1
0
0
1
0
1
0
0
0
0
0
0
33
0
7
33
0
7
32
0
6
31
0
6
30
0
6
30
0
6
29
0
7
29
0
6
28
0
6
28
0
6
27
0
6
27
0
6
27
0
6
26
0
5
25
0
5
24
0
5
24
0
5
23
0
5
22
0
4
22
0
5
21
0
4
21
0
4
21
0
5
20
0
4
19
0
4
18
0
4
18
0
3
18
0
4
17
0
3
16
0
3
16
0
3
15
0
4
14
0
3
13
0
3
13
0
3
13
0
2
12
0
3
11
0
3
11
0
2
11
0
2
9
0
2
10
0
2
9
0
2
8
0
1
8
0
1
7
0
2
7
0
2
6
0
1
5
0
2
4
0
1
4
0
1
3
0
0
3
0
1
2
0
0
2
0
1
1
0
0
1
0
0
1
0
1
1
0
1
1
0
0
1
0
0
0
0
1
1
0
0
1
0
1
1
0
0
1
0
0
1
0
0
1
0
0
0
0
0
1
0
0
0
0
1
0
0
0
1
0
0
1
0
0
0
0
0
1
1
0
1
0
0
0
0
0
0
0
0
0
0
0
33
0
7
32
0
7
32
0
7
31
0
7
31
0
7
31
0
7
29
0
7
30
0
7
29
0
6
29
0
6
27
0
5
27
0
6
26
0
6
26
0
5
25
0
5
25
0
5
24
0
5
24
0
5
23
0
5
22
0
5
22
0
5
21
0
5
20
0
4
20
0
5
19
0
4
19
0
4
19
0
4
17
0
4
17
0
4
16
0
4
16
0
3
15
0
3
15
0
3
14
0
3
14
0
3
13
0
3
13
0
2
12
0
3
11
0
2
11
0
2
11
0
2
9
0
2
9
0
2
8
0
2
8
0
2
7
0
2
7
0
1
6
0
1
6
0
1
5
0
1
4
0
1
4
0
0
3
0
1
2
0
0
2
0
0
2
0
0
1
0
0
1
0
1
1
0
0
1
0
0
1
0
1
1
0
0
1
0
0
1
0
0
1
0
0
1
0
1
1
0
0
1
0
0
0
0
0
1
0
1
1
0
0
0
0
0
1
0
0
1
0
0
1
0
0
0
0
0
0
0
0
1
0
0
0
1
0
1
0
0
34
0
8
33
0
8
33
0
7
32
0
7
32
0
6
31
0
7
31
0
6
30
0
6
29
0
6
29
0
6
28
0
6
28
0
6
27
0
5
26
0
6
25
0
6
25
0
5
24
0
5
24
0
6
23
0
5
23
0
5
23
0
5
22
0
5
21
0
4
21
0
4
20
0
4
20
0
4
19
0
4
18
0
4
18
0
3
17
0
3
16
0
4
15
0
4
15
0
3
15
0
3
14
0
3
13
0
3
13
0
3
13
0
2
12
0
3
12
0
3
10
0
3
10
0
2
10
0
2
9
0
2
8
0
2
8
0
2
8
0
1
7
0
1
6
0
1
6
0
1
4
0
1
4
0
1
4
0
1
3
1
0
2
0
0
2
0
1
2
0
0
1
0
0
0
0
0
1
0
0
0
0
0
1
0
0
0
0
0
1
0
1
1
0
0
1
0
1
1
0
0
1
0
0
1
0
0
0
0
0
1
0
0
0
0
0
0
0
0
1
0
0
0
0
0
0
0
0
1
0
1
1
1
0
1
0
0
1
0
0
34
0
8
33
1
7
33
0
7
32
0
7
32
0
7
31
0
7
30
0
7
30
0
7
29
0
7
29
0
6
28
0
6
28
0
6
27
0
6
26
0
6
27
0
6
25
0
5
25
0
5
24
0
6
24
0
5
23
0
5
22
0
5
22
0
5
22
0
5
21
0
5
21
0
4
20
0
5
19
0
4
18
0
4
18
0
4
17
0
3
17
0
4
16
0
3
16
0
3
15
0
3
15
0
3
14
0
3
13
0
3
13
0
3
13
0
3
12
0
3
11
0
2
11
0
2
10
0
3
9
0
2
9
0
2
8
0
2
8
0
1
7
0
1
7
0
1
6
0
1
6
0
2
5
1
1
4
0
1
4
0
1
3
0
1
2
0
1
2
0
0
1
0
1
1
0
0
0
0
1
1
0
0
1
0
0
0
0
0
1
0
1
1
0
0
1
0
1
1
0
1
0
0
0
0
0
0
1
0
0
0
0
0
0
0
1
1
0
0
0
0
0
0
0
1
0
1
0
1
0
1
1
0
0
0
0
0
0
0
0
34
0
8
34
0
8
34
0
7
33
0
7
33
0
7
32
0
7
32
0
6
31
0
6
30
0
7
29
0
6
29
0
7
28
0
6
27
0
6
27
0
6
27
0
6
26
0
5
25
0
6
25
0
5
24
0
6
24
0
5
23
0
5
23
0
5
22
0
4
22
0
4
21
0
4
20
0
4
20
0
5
19
0
4
19
0
4
18
0
4
17
0
4
17
0
4
16
0
3
15
0
3
15
0
3
15
0
4
14
0
3
13
0
3
13
0
2
12
0
3
12
0
3
11
0
3
10
0
2
10
0
3
10
0
2
9
0
2
8
0
2
7
0
2
6
0
2
6
0
1
6
0
2
6
0
2
4
0
1
4
0
1
3
0
1
3
0
1
3
0
0
1
0
0
1
0
1
1
0
0
1
0
0
1
0
0
1
0
1
1
0
0
0
1
0
1
0
0
1
0
1
1
0
0
0
0
0
1
0
0
1
0
1
1
0
1
1
0
0
0
0
0
1
0
0
0
0
0
1
0
0
1
0
0
1
0
0
1
0
0
35
0
8
35
0
8
34
0
8
34
0
7
33
0
7
33
0
7
32
0
7
31
0
7
31
0
7
30
0
7
29
0
6
29
0
6
28
0
6
28
0
5
27
0
6
27
0
6
26
0
5
26
0
5
25
0
5
24
0
5
23
0
6
23
0
5
22
0
4
21
0
5
21
0
5
21
0
5
20
0
5
20
0
4
19
0
4
18
0
4
18
0
4
17
0
4
16
0
4
16
0
4
15
0
4
15
0
3
14
0
3
14
0
3
13
0
2
13
0
3
12
0
2
11
0
3
11
0
3
11
0
2
9
0
2
9
0
2
9
0
2
8
0
2
7
0
2
7
0
1
6
0
1
6
0
1
5
0
1
5
0
1
4
0
1
4
0
1
3
0
0
2
0
1
1
0
1
1
0
1
1
0
0
1
0
0
1
0
0
1
0
1
1
0
0
1
0
0
1
0
0
1
0
0
1
0
0
0
0
1
1
0
0
1
0
0
1
0
0
0
0
0
1
0
0
0
0
0
0
0
0
1
0
0
1
0
0
1
0
0
35
0
8
35
0
8
35
0
8
34
0
8
33
0
7
32
0
7
32
0
7
32
0
7
31
0
6
31
0
6
30
0
7
29
0
6
29
0
6
28
1
6
28
0
6
27
0
5
26
0
6
25
0
6
25
0
6
24
0
6
24
0
5
24
0
5
23
0
5
22
0
4
22
0
5
21
0
4
21
0
4
20
0
4
19
0
4
19
0
4
18
0
4
18
0
4
17
0
3
16
0
4
16
0
4
15
0
3
15
0
3
14
0
3
14
0
3
13
0
2
13
0
3
12
0
3
11
0
2
11
0
2
10
0
2
10
0
2
9
0
2
9
0
2
8
0
2
7
0
1
7
0
1
6
0
1
5
0
1
5
0
1
4
0
1
4
0
1
3
0
1
2
0
1
2
0
0
1
0
1
1
0
0
1
0
0
1
0
0
1
0
0
1
0
0
0
0
0
1
0
0
1
0
1
1
0
0
1
0
0
1
0
0
0
0
0
1
0
0
0
0
0
1
0
0
0
0
0
0
0
0
0
0
0
0
0
0
0
0
1
36
0
7
36
0
8
35
0
7
34
0
7
34
0
7
33
0
7
32
0
7
31
0
7
31
0
6
30
0
7
30
0
7
30
0
7
29
0
6
28
0
6
28
0
6
27
0
6
27
0
6
27
0
5
26
0
6
25
0
5
24
0
5
24
0
5
23
0
5
22
0
5
22
0
5
22
0
5
21
0
4
20
0
5
20
0
4
19
0
5
19
1
4
18
0
4
18
0
4
17
0
4
16
0
4
16
0
3
15
0
3
14
0
3
14
0
3
13
0
3
13
0
3
12
0
2
12
0
2
11
0
3
11
0
2
10
0
2
10
0
3
9
0
2
8
0
1
7
0
2
7
0
2
6
0
1
6
0
2
5
0
1
5
0
1
4
0
0
4
0
0
3
0
0
3
0
1
2
0
0
2
0
1
1
0
0
1
0
1
1
0
0
1
0
0
1
0
0
0
0
0
1
0
0
0
0
1
1
0
1
1
0
0
1
0
0
1
0
1
0
0
0
1
0
0
0
0
0
0
0
1
0
0
0
0
0
0
1
0
0
37
0
8
35
0
8
35
0
7
35
0
7
34
0
8
34
0
7
33
0
7
32
0
7
32
0
7
31
1
7
31
0
7
30
0
6
30
0
6
29
0
6
29
0
6
28
0
6
27
0
6
26
0
6
26
0
5
26
0
5
25
0
6
25
0
5
24
0
5
23
0
5
22
0
4
22
0
4
21
0
4
21
0
4
20
0
4
20
0
4
19
0
4
19
0
4
18
0
4
17
0
3
16
0
4
16
0
3
16
0
4
15
0
3
14
0
3
14
0
3
13
0
2
12
0
3
12
0
3
12
0
2
11
0
3
10
0
2
9
0
2
9
0
2
8
0
2
8
0
2
7
0
2
6
0
2
7
0
1
6
0
1
5
0
1
5
0
1
4
0
1
4
0
1
3
0
0
2
0
1
1
0
1
1
0
1
1
0
0
1
0
0
0
0
0
1
0
0
0
0
0
1
0
0
0
0
0
1
0
0
0
0
0
0
0
0
1
0
0
0
1
0
0
0
1
1
0
0
0
0
0
1
0
0
0
0
0
1
0
0
37
0
8
36
0
8
36
0
8
35
0
7
35
0
7
34
0
7
33
0
7
33
0
7
32
0
6
32
0
6
31
1
6
31
0
6
30
0
6
29
0
6
29
0
6
28
0
6
27
0
6
27
0
6
26
0
5
26
0
5
25
0
5
25
0
6
25
0
5
23
0
5
23
0
5
23
0
5
22
0
5
22
0
5
21
0
4
20
0
4
19
0
5
19
0
4
18
0
4
18
0
4
17
0
3
17
0
4
16
0
3
16
0
3
14
0
3
14
0
4
14
0
3
13
0
3
12
0
3
12
0
2
11
0
2
11
0
2
10
0
2
10
0
2
9
0
2
9
0
2
8
0
2
8
0
1
7
0
1
6
0
1
5
0
1
5
0
1
4
0
1
4
0
1
3
0
1
2
0
0
2
0
0
2
0
0
1
0
0
0
0
0
1
0
1
0
0
1
1
0
0
1
0
1
1
0
0
0
0
1
1
0
0
1
0
0
1
0
0
1
0
1
1
0
0
1
0
0
0
0
1
1
1
0
0
0
0
1
0
0
37
0
8
36
0
8
36
0
8
35
0
7
35
0
8
35
0
7
34
0
7
34
0
7
32
0
7
32
0
7
32
0
6
31
0
6
30
0
7
30
0
7
29
0
6
28
0
6
28
0
6
27
0
6
27
0
5
26
0
6
25
0
6
25
0
5
25
0
6
24
0
5
23
0
5
23
0
5
22
0
5
22
0
5
21
0
4
21
0
5
20
0
5
19
0
5
19
0
4
18
0
4
18
0
4
17
0
3
16
0
4
16
0
3
15
0
4
15
0
3
15
0
3
14
0
3
13
0
3
12
0
2
11
0
2
11
0
3
11
0
2
10
0
2
9
0
2
8
0
1
8
0
1
8
0
2
7
0
1
7
0
1
6
0
1
6
0
1
5
0
1
4
0
1
4
0
1
3
0
1
2
0
1
2
0
0
2
0
0
0
0
0
1
0
0
1
0
0
1
0
0
0
0
0
0
0
1
1
0
0
0
0
0
1
0
0
0
0
0
0
0
0
0
0
0
0
0
0
1
0
1
1
0
0
0
0
0
1
0
0
37
0
8
37
0
8
37
0
8
36
0
8
36
0
8
34
0
8
34
0
7
33
0
7
33
0
7
33
0
7
31
0
7
31
0
6
31
0
7
30
0
7
30
0
6
29
0
6
29
0
6
28
0
6
28
0
5
27
0
6
26
0
6
26
0
5
25
0
6
24
0
6
24
0
5
23
0
5
23
0
5
22
0
5
22
0
5
21
0
5
20
0
4
20
0
5
19
0
4
19
0
4
18
0
3
17
0
3
17
0
3
16
0
4
15
0
3
15
0
3
15
0
3
14
0
3
13
0
3
13
0
3
12
0
3
12
0
2
11
0
2
10
0
2
10
0
2
10
0
2
9
0
2
8
0
2
8
0
1
7
0
1
7
0
1
6
0
2
6
0
1
5
0
1
4
0
1
4
0
1
3
0
0
2
0
1
2
0
0
2
0
1
0
0
0
1
0
1
1
0
0
1
0
1
1
0
0
1
0
0
1
0
0
1
0
0
1
0
0
1
0
0
1
0
1
1
0
0
1
0
0
1
0
0
0
0
0
1
0
0
39
0
8
38
0
8
37
1
8
36
0
8
36
0
8
35
0
7
35
0
7
34
0
7
34
0
7
33
0
8
32
0
7
31
0
6
31
0
7
31
0
7
30
0
7
30
0
6
29
0
6
28
0
6
28
0
6
27
0
6
26
0
5
26
0
5
25
0
5
25
0
5
25
0
6
24
0
5
23
0
5
23
0
5
22
0
5
22
0
5
21
0
5
20
0
5
20
0
4
19
0
4
19
0
4
18
0
4
17
0
4
17
0
3
16
0
4
16
0
3
15
0
3
15
0
3
14
0
3
14
0
3
13
0
3
12
0
2
12
0
3
11
0
3
11
0
3
10
0
2
9
0
2
8
0
2
8
0
2
7
0
1
7
0
1
6
0
1
6
0
1
5
0
2
4
0
1
4
0
1
4
0
1
3
0
0
2
0
1
2
0
0
1
0
0
1
0
0
1
0
0
1
0
0
1
0
1
1
0
0
1
0
0
0
0
1
1
0
0
1
0
1
1
0
0
0
0
0
1
0
0
1
0
0
0
0
0
0
1
0
39
0
8
38
0
8
38
0
8
37
0
8
36
0
8
36
0
8
35
0
7
35
0
8
34
0
8
33
0
8
33
0
7
32
0
7
32
0
7
31
0
7
31
0
6
30
0
7
30
0
7
29
0
6
28
0
7
28
0
6
27
0
6
26
0
6
26
0
6
25
0
5
25
0
5
24
0
6
24
0
5
23
0
5
23
0
4
22
0
5
21
0
5
21
0
4
20
0
4
20
0
4
19
0
5
19
0
4
18
0
4
17
0
4
17
0
3
16
0
4
16
0
3
15
0
4
14
0
3
14
0
3
13
0
3
12
0
2
12
0
2
11
0
3
11
0
2
10
0
2
9
0
2
9
0
2
9
0
2
8
0
2
8
0
1
6
0
2
6
0
2
5
0
1
5
0
1
5
0
1
4
0
1
3
0
0
2
0
0
2
0
0
2
0
1
1
0
0
0
0
0
1
0
1
1
1
1
0
0
0
1
0
0
1
0
0
1
1
0
1
0
0
1
0
0
1
0
0
0
0
0
1
0
1
1
0
0
1
0
0
39
0
8
38
0
8
38
0
9
37
0
7
37
0
8
36
0
7
36
0
7
35
0
7
35
0
8
34
0
7
33
0
7
33
0
7
32
0
7
31
0
7
31
0
6
31
1
6
30
0
6
29
0
7
29
0
6
28
0
6
27
0
6
26
0
6
26
0
6
26
0
6
25
0
5
24
0
5
24
0
5
24
0
5
23
0
5
22
0
4
22
0
4
21
0
5
20
0
5
20
0
4
20
0
5
19
0
4
18
0
4
18
0
4
17
0
4
17
0
4
15
0
3
16
0
3
14
0
3
14
0
3
13
0
3
13
0
3
12
0
2
12
0
3
11
0
2
11
0
2
10
0
2
10
0
2
9
0
2
9
0
2
8
0
2
7
0
2
7
0
2
5
0
1
5
0
2
4
0
1
4
0
1
4
1
1
3
0
0
2
0
0
2
0
0
2
0
0
1
0
0
1
0
0
1
0
1
1
0
0
1
0
0
1
0
0
1
0
0
1
0
0
1
0
0
1
0
0
0
0
0
1
0
0
1
0
0
0
0
0
39
0
9
39
0
8
38
0
8
38
0
8
37
0
8
36
0
8
36
0
7
36
0
8
35
0
7
34
0
8
34
0
7
33
0
8
32
0
7
32
0
7
32
0
6
30
0
7
30
0
7
29
0
6
29
0
6
28
0
6
28
0
6
28
0
6
27
0
5
26
0
6
26
0
6
25
0
5
25
0
5
24
0
5
24
0
5
23
0
5
22
0
4
21
0
4
21
0
4
21
0
4
20
0
4
19
0
4
19
0
4
18
0
4
17
0
4
17
0
4
16
0
4
16
0
3
15
0
4
15
0
3
14
0
3
14
0
3
13
0
2
13
0
2
12
0
2
11
0
2
11
0
2
10
0
2
10
0
2
8
0
2
8
0
2
7
0
2
7
0
2
7
0
1
6
0
1
5
0
1
4
0
1
4
0
1
4
0
1
3
0
1
3
0
0
2
0
1
1
0
0
1
0
0
1
0
0
1
0
0
1
0
0
1
0
1
1
0
0
1
0
0
0
0
0
1
0
0
1
0
1
1
0
1
1
0
0
1
0
1
40
0
9
39
0
8
39
0
8
38
0
8
38
0
8
37
0
8
36
0
8
36
0
8
35
0
8
35
0
7
34
0
7
34
0
7
33
0
7
32
0
7
31
0
7
31
0
6
31
0
6
30
0
7
30
0
6
29
0
7
29
0
6
28
0
6
27
0
6
26
0
6
26
1
6
25
0
5
25
0
5
24
0
5
24
0
5
23
0
5
23
0
5
22
0
5
21
0
5
21
0
4
20
0
4
19
0
4
19
0
4
19
0
4
18
0
4
18
0
4
16
0
4
16
0
4
16
0
3
15
0
3
15
0
3
13
0
3
13
0
3
13
0
3
12
0
2
11
0
3
11
0
2
10
0
3
10
0
3
9
0
2
8
0
2
8
0
2
7
0
1
7
0
1
6
0
1
5
0
1
6
0
1
4
0
1
4
0
1
4
0
0
3
0
1
2
0
1
2
0
0
1
0
0
1
0
0
1
0
0
1
0
0
1
0
0
0
0
0
1
0
1
1
0
0
1
0
0
1
0
0
1
0
0
1
0
0
0
0
0
40
0
9
40
0
8
39
0
8
39
0
8
38
0
8
37
0
9
37
0
8
36
0
8
36
0
8
35
0
7
34
0
8
34
0
7
33
0
8
33
1
7
33
0
7
31
0
7
31
0
7
31
0
6
30
0
7
30
0
6
28
0
6
28
0
6
27
0
6
27
0
6
26
0
5
25
0
5
25
0
5
25
0
5
25
0
5
24
0
5
23
0
5
23
0
5
22
0
4
21
0
4
20
0
5
20
0
4
20
0
4
19
0
4
19
0
4
18
0
4
17
0
4
17
0
4
16
0
3
16
0
4
15
0
3
15
0
3
14
0
3
13
0
3
12
0
2
12
0
2
11
0
3
11
0
2
10
0
2
9
0
2
9
0
2
9
0
2
8
0
1
8
0
1
6
0
1
6
0
1
6
0
1
5
0
1
4
0
1
3
0
0
3
0
1
3
0
1
2
0
0
1
0
1
1
0
0
1
0
0
1
0
0
1
0
0
1
0
0
1
0
1
1
0
1
1
0
0
1
0
0
0
0
1
0
0
0
1
0
0
41
0
9
41
0
8
40
0
8
39
0
9
38
0
8
38
0
8
37
0
8
36
0
7
36
0
7
36
0
7
35
0
7
34
0
7
34
0
7
33
0
8
33
0
7
32
0
7
32
0
7
31
0
7
31
0
7
29
0
6
30
0
6
28
0
6
28
0
6
27
1
5
27
0
5
26
0
6
25
0
6
26
0
6
25
0
6
24
0
5
24
0
5
23
0
5
22
0
5
21
0
5
21
0
4
20
0
5
19
0
4
19
0
4
19
0
4
18
0
4
18
0
4
17
0
4
16
0
3
16
0
3
16
0
3
15
0
3
14
0
3
13
0
3
13
0
3
13
0
3
11
0
3
11
0
3
11
0
2
10
0
2
10
0
2
9
0
2
9
0
2
7
0
2
7
0
2
7
0
1
6
0
1
5
0
2
5
0
1
4
0
1
4
0
1
3
0
1
2
0
0
2
0
0
2
0
0
1
0
0
1
0
0
1
0
0
1
0
0
1
0
0
1
0
0
1
0
1
0
0
0
1
0
0
0
0
0
0
0
1
41
0
8
41
0
9
40
0
8
39
0
9
39
0
8
39
0
8
38
0
8
37
0
8
37
0
8
36
0
8
36
0
8
35
0
7
35
0
7
33
0
7
33
0
7
33
0
7
32
0
7
31
0
7
31
0
6
30
0
7
30
0
6
29
0
7
29
0
6
28
0
6
27
0
6
27
0
5
26
0
5
25
0
6
25
0
5
24
0
5
24
0
6
23
0
5
23
0
5
22
0
5
21
0
5
21
0
5
20
0
4
20
0
5
20
0
5
19
0
4
18
0
4
17
0
4
17
0
4
16
0
3
15
0
3
15
0
3
14
0
4
14
0
3
13
0
3
13
0
2
13
0
3
12
0
3
11
0
2
11
0
2
10
0
2
10
0
2
9
0
2
8
0
2
7
0
1
7
0
1
7
0
1
5
0
1
5
0
1
5
0
1
4
0
1
3
0
1
3
0
1
2
0
1
2
0
0
2
0
0
1
0
1
1
0
0
0
0
0
1
0
0
1
0
0
1
0
0
1
0
0
1
0
0
1
0
0
0
0
0
41
0
8
42
0
8
40
0
9
40
0
9
39
0
8
39
0
8
38
0
8
37
0
8
37
0
8
37
0
8
35
0
8
35
0
7
35
0
8
34
0
7
34
0
8
33
0
7
32
0
7
32
0
7
31
0
7
31
0
6
30
0
7
30
0
6
29
0
6
29
0
6
27
0
6
27
0
6
26
0
6
27
0
6
25
0
5
25
0
5
25
0
6
24
1
6
23
0
5
23
0
5
22
0
4
22
0
4
20
0
4
20
0
4
19
0
5
19
0
5
19
0
4
18
0
4
17
0
3
16
0
4
16
0
3
16
0
4
15
0
4
14
0
3
14
1
3
13
0
3
13
1
2
12
0
3
11
0
3
11
0
3
10
0
2
10
0
2
9
0
2
8
0
2
8
0
2
7
0
1
7
0
2
6
0
2
6
0
1
5
1
1
5
0
1
4
0
1
4
0
1
2
0
0
2
0
1
1
0
1
1
0
0
1
0
0
1
0
0
1
0
0
1
0
0
1
0
0
1
0
1
1
0
0
0
0
0
1
1
0
42
0
9
42
0
9
40
0
9
40
0
9
40
0
9
39
0
9
39
0
8
38
0
8
37
0
8
37
0
8
36
0
8
36
0
8
35
0
7
35
0
8
34
0
7
34
1
7
33
0
7
32
0
7
32
0
7
31
0
7
30
0
6
30
0
6
29
0
6
29
0
6
29
0
6
28
0
6
27
0
6
27
0
6
26
0
6
26
0
5
25
0
5
24
0
5
23
0
5
23
0
5
23
0
5
21
0
5
21
0
5
21
0
4
20
0
5
19
0
4
19
0
4
18
0
4
17
0
4
18
0
4
17
0
4
16
0
3
16
0
3
14
0
3
14
0
3
14
0
3
13
0
3
12
0
3
12
0
3
11
0
3
11
0
2
11
0
2
9
0
2
9
0
1
9
0
1
8
0
1
7
0
1
7
0
2
7
0
2
6
0
2
5
0
1
4
0
1
4
0
1
3
0
1
2
0
0
2
0
0
1
0
1
1
0
0
1
0
0
1
0
0
1
0
0
1
0
0
1
0
0
1
0
0
1
0
1
1
0
1
43
0
9
42
0
9
41
0
9
41
0
9
40
0
8
40
0
9
39
0
9
38
0
8
38
0
8
37
0
8
37
0
8
36
0
8
35
0
7
35
0
8
34
0
7
34
0
7
34
0
8
33
0
7
32
0
7
31
0
7
31
0
6
30
0
6
30
0
6
29
0
7
29
0
6
28
0
6
28
0
5
26
0
6
26
0
5
26
0
5
25
0
5
25
0
5
24
0
5
24
1
5
22
0
5
22
0
5
21
0
5
21
0
5
20
0
4
20
0
5
19
0
4
19
1
4
19
0
4
17
0
4
17
0
3
16
0
4
15
0
4
16
0
3
14
0
3
14
0
3
14
0
3
13
0
3
13
0
2
12
0
2
11
0
3
11
0
2
10
0
2
9
0
2
9
0
2
9
0
2
8
0
1
8
0
2
7
0
1
6
0
1
5
0
1
5
0
1
5
0
1
4
0
1
3
0
1
3
0
0
2
0
1
1
0
0
1
0
0
1
0
1
1
0
1
0
0
0
1
0
0
1
0
0
1
0
1
1
0
1
42
0
9
42
0
9
42
0
9
42
0
9
40
0
9
40
0
8
39
0
8
39
0
8
39
0
8
38
0
8
37
0
8
36
0
8
36
0
7
35
0
7
34
0
7
35
0
8
33
0
7
33
0
7
33
0
7
32
0
7
31
0
6
31
0
7
30
0
6
30
0
6
29
0
6
28
0
6
27
0
6
27
0
5
27
0
5
26
0
6
26
0
5
25
0
5
24
0
5
24
0
5
23
0
5
22
0
4
22
1
5
21
0
5
21
0
4
20
0
4
20
0
4
19
0
4
18
0
4
18
0
4
17
1
3
16
0
4
16
0
4
15
0
3
15
0
4
14
0
4
14
0
3
14
0
3
13
0
2
12
0
3
11
0
2
11
0
3
10
0
2
10
0
2
9
0
2
9
0
2
9
0
2
8
0
1
7
0
2
6
0
1
6
0
1
5
0
1
5
0
1
4
0
0
4
0
1
3
0
0
2
0
1
2
0
0
1
0
0
1
0
0
1
0
1
1
1
0
1
0
0
1
0
0
1
0
1
1
0
0
43
0
9
43
0
9
42
0
9
42
0
9
41
1
8
40
0
8
39
0
8
39
0
8
38
0
8
38
0
8
38
0
8
37
0
8
36
0
8
36
0
8
35
0
8
35
0
8
34
0
8
34
0
7
33
0
7
32
0
7
32
0
7
31
0
6
31
0
6
30
0
6
30
0
6
29
0
6
28
0
6
28
0
6
27
0
6
26
0
6
27
0
5
25
0
5
25
0
6
24
0
6
24
0
5
23
0
5
22
0
4
22
0
5
21
0
4
21
0
4
20
0
4
20
0
5
19
0
4
18
0
4
18
0
4
18
0
4
17
0
3
16
0
3
16
0
4
15
0
4
15
0
3
14
0
3
13
0
3
12
0
3
12
0
3
11
0
3
11
0
2
10
0
2
9
0
2
9
0
2
9
0
2
8
0
1
8
0
1
7
0
2
6
1
1
6
0
1
5
0
1
5
0
1
4
0
1
3
0
1
3
0
0
3
0
0
2
0
0
1
0
0
1
0
0
0
0
0
1
0
0
1
0
0
0
0
0
1
0
0
44
0
10
43
0
10
43
0
9
42
0
9
41
0
9
41
0
9
41
0
8
40
0
9
39
0
8
38
0
8
38
0
8
38
0
8
37
0
8
36
0
8
36
0
8
35
0
8
35
0
7
34
0
8
33
0
7
32
0
7
32
0
7
32
0
7
31
0
7
31
0
7
30
0
7
29
1
6
29
0
6
28
0
6
28
0
5
27
0
6
26
0
6
25
0
5
26
0
6
24
0
5
24
0
5
23
0
5
23
0
5
23
0
4
22
0
5
21
0
5
20
0
5
20
0
4
19
0
5
19
0
5
19
0
4
18
0
4
17
0
3
17
0
3
16
0
3
16
0
3
15
0
3
14
0
3
14
0
3
13
0
3
13
0
3
12
0
2
11
0
3
11
0
2
10
0
2
9
0
2
9
0
2
9
0
1
8
0
2
7
0
1
7
0
2
6
0
1
6
0
1
5
0
1
4
0
1
4
0
1
3
1
1
3
0
1
2
0
0
2
0
1
1
0
1
1
0
0
1
0
0
1
0
0
1
0
0
0
0
0
45
0
9
43
0
10
43
0
9
43
0
9
42
0
9
41
0
9
41
0
9
40
0
8
40
0
8
39
0
8
38
0
8
38
0
8
37
0
8
36
0
8
36
0
7
36
0
8
35
0
7
35
0
7
34
0
7
33
0
7
33
0
7
32
0
7
31
0
7
31
0
6
31
0
6
30
0
7
29
0
6
29
0
6
28
0
6
28
0
6
27
0
6
26
0
6
25
0
5
26
0
6
25
0
5
24
0
5
23
0
5
23
0
5
22
0
5
22
0
4
21
0
4
21
0
4
20
0
5
20
0
4
19
0
4
18
0
4
18
0
3
17
0
4
16
0
4
16
0
3
15
0
3
15
0
3
14
0
3
14
0
3
13
0
3
13
0
2
12
0
2
11
0
3
10
0
3
10
0
2
10
0
2
9
0
2
8
0
2
8
0
2
7
0
2
7
0
1
6
0
1
5
0
1
5
0
1
4
0
1
4
0
1
3
0
0
3
0
1
2
0
1
2
0
0
0
0
0
1
0
0
1
0
1
1
0
1
1
0
1
45
0
9
44
0
10
43
0
9
43
0
9
42
0
9
42
0
9
41
0
9
40
0
9
40
0
8
40
0
8
39
0
9
38
0
8
37
0
8
37
0
8
37
0
8
36
0
8
36
0
7
34
0
8
34
0
7
34
0
7
33
0
7
32
0
7
32
0
6
31
0
6
30
0
7
31
0
6
30
0
7
29
0
6
28
0
6
28
0
6
27
0
6
27
0
6
26
0
6
26
0
5
25
0
5
25
0
5
24
0
5
23
0
5
22
0
5
22
0
4
22
1
4
21
0
4
21
0
4
20
0
4
19
0
4
19
0
4
18
0
4
18
0
4
17
0
4
16
0
3
16
0
4
15
0
3
14
0
3
14
0
3
13
0
3
13
0
3
12
0
3
12
0
2
11
0
2
10
0
2
10
0
3
9
0
2
9
0
2
8
0
2
7
0
2
7
0
1
7
0
1
6
0
1
5
0
1
4
0
1
4
0
1
3
0
1
3
0
1
2
0
1
2
0
1
1
0
1
1
0
1
0
0
0
1
0
0
0
0
0
45
0
10
45
0
10
44
0
9
43
0
10
43
0
9
42
1
9
42
0
9
41
0
9
40
0
9
40
0
8
39
0
8
39
0
8
39
0
8
38
0
8
37
0
8
37
0
7
36
0
8
35
0
7
35
0
7
35
0
7
34
0
7
33
0
7
32
0
7
32
0
7
31
0
7
31
0
6
30
0
6
29
0
7
29
0
6
28
0
6
28
0
6
27
0
6
27
0
6
26
0
6
25
0
5
24
0
5
24
0
5
24
0
5
23
0
5
22
0
4
22
0
4
21
0
4
21
0
4
20
0
4
19
0
5
19
0
4
18
0
4
17
0
4
18
0
4
17
0
4
16
0
4
16
0
4
15
0
3
14
0
3
14
0
3
13
0
3
12
0
3
12
0
3
12
0
3
11
0
3
10
0
2
10
0
3
9
0
2
8
0
2
8
0
2
7
0
1
7
0
2
6
0
2
6
0
2
5
0
1
5
0
1
4
0
0
3
0
1
2
0
0
2
0
1
1
0
0
1
0
0
1
0
0
1
1
0
1
0
0
46
0
10
45
0
10
45
0
10
44
0
9
43
0
9
42
0
9
42
0
9
41
0
9
41
0
8
41
0
9
39
0
8
39
0
8
39
0
9
38
0
8
38
0
8
37
0
8
36
0
7
36
0
8
35
0
7
35
0
8
34
0
7
33
0
7
33
0
7
32
0
7
32
0
6
31
0
7
31
0
6
29
0
6
30
0
6
28
0
6
29
0
6
27
0
5
27
0
5
27
0
6
26
0
5
25
0
5
25
0
5
25
0
5
24
0
5
23
0
5
22
0
5
22
0
5
21
0
5
21
0
4
20
0
4
20
0
5
19
0
4
18
0
4
18
0
4
18
0
4
17
0
4
16
0
4
15
0
3
15
0
3
14
0
3
14
0
3
13
0
3
12
0
3
12
0
3
11
0
2
11
0
2
10
0
2
9
0
2
9
0
2
9
0
2
8
0
2
8
0
2
7
0
1
6
0
1
5
0
1
5
0
1
5
0
1
4
0
1
4
0
1
3
0
0
2
0
0
2
0
1
0
0
0
1
0
0
0
0
0
46
0
10
46
0
10
45
0
9
44
0
9
44
0
9
43
0
10
42
0
9
43
0
9
41
0
9
41
0
9
41
0
8
40
0
9
39
0
9
38
0
8
38
0
8
37
0
8
37
0
8
36
0
8
36
0
8
35
0
8
35
0
8
34
0
7
34
0
7
32
0
7
32
0
7
32
0
7
31
0
7
30
1
6
30
0
7
29
0
6
28
0
6
28
0
6
27
0
6
27
0
6
26
0
6
25
0
5
25
0
6
25
0
5
24
0
5
24
0
5
23
0
5
23
0
5
22
0
5
21
0
5
21
0
4
20
0
4
19
0
5
19
0
4
18
0
4
18
0
4
17
0
3
16
0
4
16
0
3
16
0
3
14
0
3
14
0
3
13
0
2
13
0
3
12
0
3
11
0
2
12
0
3
11
0
2
10
0
2
10
0
2
9
0
2
9
0
2
7
0
2
7
0
1
7
0
2
6
0
2
5
0
1
5
0
1
4
0
1
4
0
0
3
0
0
3
0
0
2
0
0
2
0
1
1
0
0
1
0
0
47
0
10
46
0
10
45
0
10
45
0
10
44
0
10
43
0
9
43
0
9
42
0
9
42
0
9
41
0
9
40
0
9
40
0
9
40
0
9
39
0
9
38
0
9
37
0
8
38
0
7
36
0
8
36
0
8
35
0
7
35
0
8
34
0
8
34
0
7
33
0
7
33
0
7
32
0
7
31
0
7
31
0
7
30
0
6
30
0
7
29
0
6
28
0
6
28
0
6
27
0
6
27
0
6
26
0
5
25
0
5
25
0
6
25
0
5
23
0
5
23
0
5
22
0
5
22
0
4
22
0
5
21
0
5
21
0
5
20
0
4
19
0
4
18
0
4
18
0
3
18
0
4
17
0
3
17
0
4
16
0
4
15
0
3
14
0
3
14
0
3
13
0
2
12
0
3
13
0
3
12
0
2
11
0
3
11
0
2
10
0
3
9
0
2
9
0
2
9
0
2
8
0
1
7
0
2
7
0
1
6
0
2
5
0
1
5
0
1
4
0
1
3
0
1
3
0
1
2
0
1
2
0
1
2
0
0
1
0
0
47
0
10
46
0
10
45
0
9
45
0
9
44
0
9
44
0
9
43
0
10
43
0
9
42
0
10
41
0
8
41
0
9
41
0
9
40
0
8
40
0
9
38
0
9
38
0
8
38
0
8
37
0
8
37
0
8
36
0
8
36
0
7
34
1
8
34
0
8
33
0
7
33
0
7
32
0
7
32
0
7
31
0
6
30
0
7
30
0
6
30
0
6
29
0
6
29
0
6
28
0
6
27
0
6
27
0
5
26
0
6
25
0
6
25
0
5
24
0
5
23
0
5
24
0
5
23
0
4
22
0
5
22
0
4
21
0
5
21
0
4
20
0
5
19
0
4
19
0
4
18
0
4
18
0
4
16
0
3
16
0
4
15
0
4
15
0
3
14
0
3
14
0
3
13
0
3
13
0
3
13
0
2
11
0
3
11
0
3
10
0
2
9
0
2
9
0
2
8
0
2
8
0
1
8
0
1
7
0
2
7
0
1
6
0
1
6
0
1
5
1
1
4
0
0
4
0
0
2
0
1
2
0
0
2
0
1
1
0
0
46
0
10
47
0
10
46
0
10
45
0
10
45
0
10
45
0
10
44
0
9
44
0
9
43
0
9
42
0
9
42
0
9
41
0
8
41
0
9
40
0
9
39
0
8
38
0
8
38
0
8
38
0
8
37
0
8
37
0
8
36
0
8
35
0
7
34
0
8
34
0
7
34
0
7
33
0
7
32
0
7
32
0
7
31
0
7
31
0
6
30
0
6
30
0
6
29
0
6
29
0
6
27
0
6
27
0
5
27
0
5
26
0
6
26
0
5
25
0
6
24
0
5
24
0
5
23
0
5
22
0
5
21
0
5
21
0
4
20
0
5
20
0
4
20
0
5
19
0
4
19
0
4
18
0
4
17
0
3
17
0
4
16
0
3
15
0
3
15
0
3
14
0
3
13
0
3
13
0
3
12
0
3
12
0
3
12
0
2
11
0
3
11
0
3
10
0
2
9
0
2
8
0
2
8
0
2
8
0
2
7
0
1
6
0
1
5
0
1
5
0
1
5
0
1
3
0
1
3
0
1
3
0
1
2
0
0
2
0
0
46
0
10
47
0
10
47
0
10
46
0
10
46
0
10
45
0
9
45
0
10
43
0
10
43
0
9
43
0
9
42
0
9
42
0
9
41
0
9
41
0
8
40
0
8
40
0
8
39
0
8
38
0
8
38
0
8
37
0
8
36
0
7
36
0
8
35
0
8
34
1
8
33
0
7
34
0
7
33
0
7
32
0
6
31
0
7
31
0
6
31
0
7
29
0
6
30
0
6
29
0
6
29
0
6
28
0
6
27
0
6
26
0
6
26
0
6
25
0
5
24
0
5
24
0
5
23
0
5
23
0
5
22
0
4
22
0
5
21
0
5
21
0
5
20
0
4
19
0
4
19
0
4
18
0
4
17
0
4
17
0
3
17
0
4
16
0
4
16
0
3
15
0
3
15
0
3
14
0
3
13
0
2
12
0
3
12
0
3
11
0
3
11
0
2
10
0
2
9
0
2
9
0
2
8
0
2
7
0
1
7
0
2
7
0
2
6
0
2
6
0
2
5
0
1
4
0
1
4
0
1
4
0
0
3
0
1
2
0
0
47
0
10
47
0
10
47
0
11
46
0
10
46
0
10
46
0
10
45
0
10
44
0
10
43
0
9
43
0
9
42
0
9
42
0
9
42
0
8
41
0
9
40
0
8
39
0
8
39
0
9
39
0
8
38
0
8
37
0
8
36
0
8
36
0
8
35
0
8
35
0
7
35
0
7
34
0
8
33
0
7
32
0
7
32
0
6
31
0
7
30
0
7
30
0
7
30
0
6
29
0
7
28
0
6
28
0
6
27
0
6
27
0
5
26
0
5
26
0
6
25
0
6
24
0
5
24
0
6
23
0
5
22
0
5
22
0
5
21
0
5
21
0
4
20
0
4
20
0
4
19
0
4
19
0
4
19
0
4
17
0
4
16
0
4
17
0
3
15
0
4
15
0
3
14
0
3
14
0
3
13
0
3
13
0
3
12
0
3
12
0
2
11
0
3
11
0
2
10
1
2
9
0
2
9
0
1
8
0
2
8
0
2
7
0
2
6
0
2
6
0
1
5
0
1
5
0
1
5
0
1
3
0
0
3
0
0
2
0
1
47
0
10
47
0
10
47
0
10
47
0
11
46
0
10
45
0
10
45
0
10
45
0
10
44
0
10
44
0
10
43
0
9
42
0
9
42
0
9
41
0
9
41
0
8
40
0
8
39
0
8
39
0
8
38
0
8
38
0
8
37
0
8
37
0
8
36
0
7
35
0
8
35
0
8
34
0
7
34
0
7
33
0
7
33
0
6
32
0
6
31
0
7
30
0
7
30
0
6
29
0
7
29
0
6
28
0
6
28
0
6
27
0
6
27
0
5
26
0
6
25
0
5
25
0
6
25
0
6
24
0
5
23
0
5
23
0
5
22
0
5
22
0
5
21
0
4
20
0
4
19
0
4
19
0
4
18
0
4
18
0
3
17
0
4
17
0
3
16
0
4
15
0
3
15
0
3
14
0
3
14
0
3
13
0
3
13
0
3
12
0
3
11
0
2
11
0
2
10
0
2
10
0
2
10
0
2
8
0
2
9
0
1
7
0
2
7
0
1
6
0
1
6
0
1
5
0
1
5
0
1
4
0
1
3
0
1
3
0
1
47
0
10
47
0
11
47
0
10
47
0
10
47
0
10
46
0
10
45
0
9
45
0
9
45
0
9
44
0
10
44
0
9
43
0
10
42
0
9
42
0
9
41
0
9
40
0
9
40
0
9
39
0
8
39
0
8
38
0
8
38
1
8
37
0
8
36
0
7
35
0
8
35
0
8
34
0
7
34
0
8
33
0
8
33
0
7
33
0
7
32
0
7
31
0
7
30
0
6
30
0
6
30
0
7
29
0
6
28
0
6
28
0
6
27
0
6
26
0
5
26
0
5
26
0
6
25
0
6
24
0
5
24
0
5
23
0
4
22
0
4
22
0
5
21
0
5
21
1
4
20
0
5
19
0
4
19
0
4
19
0
4
18
0
3
17
0
4
16
0
4
16
0
4
15
0
4
15
0
3
14
0
3
14
0
3
13
0
3
13
0
3
12
0
3
12
0
2
11
0
3
11
0
2
9
0
2
9
0
2
8
0
1
8
0
1
7
0
2
6
0
2
6
0
1
5
0
2
5
0
1
4
0
1
4
0
1
4
0
1
47
0
10
48
0
10
47
1
10
47
0
10
46
0
10
46
0
10
46
0
10
45
0
9
45
0
9
44
0
9
44
0
9
43
0
10
42
0
9
42
0
9
41
0
9
41
1
9
40
0
9
39
0
9
39
0
9
38
0
8
38
0
8
38
0
8
36
0
8
36
0
8
35
0
7
35
0
7
35
0
7
34
0
7
34
0
7
32
0
6
32
0
6
32
0
7
31
0
6
30
0
7
30
0
7
29
0
6
29
0
6
28
0
6
27
0
6
27
0
6
26
0
5
26
0
5
25
0
5
25
0
5
24
0
5
24
0
5
23
1
5
22
0
5
22
0
5
21
0
5
21
0
4
20
0
4
19
0
4
19
0
4
19
0
4
17
0
4
17
0
3
16
0
4
16
0
4
15
0
3
15
0
3
15
0
3
14
0
3
13
0
3
13
0
2
12
0
3
11
0
2
11
0
3
10
0
2
9
0
2
9
0
2
8
0
2
8
0
2
7
0
2
7
0
1
6
0
1
5
0
1
5
0
1
4
0
1
4
0
0
47
0
10
48
0
10
47
0
10
47
0
10
47
0
10
46
0
10
46
0
10
45
0
10
46
0
10
45
0
9
45
0
9
44
0
10
43
0
9
42
0
9
42
0
9
42
0
9
41
0
8
40
0
9
39
0
8
39
0
9
38
0
8
38
0
8
37
0
8
36
0
8
36
0
8
36
0
7
35
0
8
34
0
7
33
0
7
33
0
7
32
0
7
32
0
7
31
0
7
31
0
7
30
0
6
30
0
7
29
0
6
29
0
6
28
0
6
28
0
6
26
0
6
26
0
5
25
0
5
25
0
6
25
0
6
24
0
5
23
0
5
23
0
5
23
0
5
21
0
4
21
0
4
20
0
5
20
0
5
20
0
4
19
0
4
18
0
4
18
0
4
17
0
4
17
0
3
16
0
4
15
0
4
15
0
3
14
0
3
13
0
3
13
0
2
13
0
3
12
0
2
11
0
2
11
0
3
10
0
2
9
0
2
8
0
2
8
0
2
8
0
2
7
1
2
7
0
2
6
0
1
5
0
1
5
0
1
4
0
1
47
0
11
47
0
10
47
0
10
47
0
11
47
0
10
47
0
10
47
0
10
47
0
10
46
0
10
45
0
10
44
0
10
44
0
10
43
0
9
43
0
9
43
0
9
42
0
9
41
0
9
41
0
9
40
0
9
39
1
9
39
0
9
38
0
8
37
0
8
37
0
7
36
0
8
36
0
8
36
0
7
34
0
8
35
0
7
33
0
7
33
0
7
32
0
7
32
0
7
31
0
7
31
0
7
30
0
6
29
0
6
29
0
6
28
0
6
27
0
6
27
0
6
27
0
5
26
0
5
26
0
6
25
0
6
24
0
6
23
0
5
23
0
5
22
0
5
22
0
5
21
0
4
21
0
5
20
0
4
19
0
4
19
0
4
18
0
4
18
0
4
18
0
3
16
0
4
16
0
4
16
0
4
15
0
3
14
1
3
14
0
3
14
0
3
13
0
3
12
0
2
11
0
2
11
0
2
10
0
2
10
0
2
10
0
2
9
0
1
8
0
1
8
0
1
7
0
2
6
0
1
6
0
1
5
0
1
4
0
1
47
0
11
47
0
11
47
0
10
47
0
10
47
0
11
47
0
10
47
0
10
46
0
10
46
0
10
46
0
10
45
0
10
44
0
10
44
1
9
43
0
10
43
0
10
42
0
9
42
0
9
41
0
9
40
0
8
39
0
9
39
0
9
39
0
8
38
0
8
38
0
8
37
0
8
36
0
8
35
0
7
35
0
7
34
0
7
34
0
7
33
0
7
33
0
7
32
0
7
32
0
7
31
0
6
30
0
6
30
0
7
29
0
6
29
0
6
28
0
6
27
0
6
27
0
6
26
0
5
26
0
6
26
0
6
25
0
5
24
0
5
24
0
5
23
0
5
23
0
5
22
0
4
21
1
5
20
0
5
20
0
5
20
0
4
19
0
4
18
0
3
18
0
3
18
0
4
16
0
3
16
0
4
15
0
3
15
0
3
15
0
3
14
0
3
14
0
2
12
0
3
12
0
3
11
0
2
11
0
2
10
0
2
9
0
3
9
0
1
8
0
2
8
0
1
7
0
2
6
0
1
6
0
2
6
0
1
5
0
1
48
0
10
48
0
10
47
0
10
47
0
10
47
0
10
47
0
10
47
0
10
47
0
10
46
0
10
46
0
10
46
0
10
45
0
9
44
1
9
44
1
9
43
0
9
43
0
9
42
0
10
41
0
9
41
0
9
41
0
8
39
0
9
39
0
9
38
0
9
38
0
8
37
0
8
37
0
8
36
0
8
35
0
7
35
0
8
34
0
8
34
0
7
33
0
7
33
0
7
32
0
6
31
0
7
31
0
7
31
0
6
30
0
7
29
0
7
29
0
6
28
0
6
28
0
6
26
0
6
27
0
5
26
0
6
25
0
5
25
0
5
24
0
5
23
0
5
22
0
5
22
0
5
22
0
4
21
0
5
20
0
4
20
0
4
19
0
4
19
0
4
18
0
4
18
0
4
17
0
4
16
0
4
16
0
3
15
0
3
14
0
3
14
0
3
13
0
2
13
0
2
12
0
3
11
0
3
11
0
3
10
0
2
10
0
2
9
0
2
9
0
2
8
0
1
7
0
1
8
0
2
7
0
1
6
0
1
6
0
1
47
0
10
47
0
10
47
0
10
47
0
10
47
0
10
47
0
10
47
0
10
46
0
10
46
0
10
46
0
10
46
0
9
45
0
9
45
0
10
45
0
9
44
0
9
43
0
9
42
0
9
42
0
9
42
0
9
41
0
9
40
0
9
40
0
9
39
0
9
38
1
8
37
0
8
37
0
8
37
0
7
36
0
8
35
0
8
35
0
7
34
0
7
34
0
8
33
0
7
32
0
7
32
0
7
31
0
6
31
0
6
30
0
7
29
0
7
29
0
6
29
0
6
27
0
6
27
0
6
27
0
6
26
0
6
25
0
6
25
0
5
24
0
5
23
0
5
23
0
5
23
0
5
22
0
5
21
0
4
21
0
5
21
0
5
20
0
4
19
0
5
19
0
4
18
1
3
18
0
4
17
0
3
16
0
3
16
0
3
15
0
4
15
0
3
14
0
3
13
0
3
13
0
2
12
0
3
12
0
3
11
0
2
11
0
3
10
0
2
9
0
2
9
0
2
8
0
1
8
0
2
7
0
2
6
0
1
6
0
1
48
0
10
48
0
11
47
0
10
47
0
11
47
0
10
47
0
10
47
0
10
47
0
10
47
0
10
47
0
10
47
0
10
46
0
10
45
0
10
44
0
9
44
0
10
43
0
9
43
0
9
42
0
9
42
0
9
41
0
8
40
0
9
40
0
9
40
0
8
38
0
9
38
0
8
37
0
8
37
0
8
36
0
8
35
0
8
35
0
7
34
0
8
34
0
7
33
0
7
33
1
7
32
0
7
31
0
7
31
0
6
31
0
7
30
0
6
30
0
6
29
0
7
29
0
6
28
0
6
27
0
6
27
0
6
26
0
5
25
0
6
24
0
6
24
0
5
24
0
5
24
0
5
22
0
5
22
0
4
21
0
5
21
0
5
20
0
4
20
0
4
19
0
4
18
0
4
18
0
4
17
0
4
17
0
3
16
0
4
15
0
3
15
0
4
15
0
3
14
0
3
13
0
3
13
0
2
12
0
2
11
0
3
11
0
3
11
0
3
10
0
2
10
0
2
9
0
2
8
0
2
7
0
1
7
0
1
7
0
2
47
0
10
47
0
10
47
0
10
48
0
10
47
0
10
47
0
10
47
0
10
47
0
10
47
0
11
47
0
10
47
0
10
46
0
10
46
0
10
45
0
10
44
0
9
44
0
9
44
0
9
43
0
9
42
0
9
41
0
9
41
0
8
40
1
8
40
0
8
39
0
8
38
0
9
38
0
8
38
0
8
37
0
7
36
0
8
35
0
8
35
0
7
34
0
8
34
0
7
33
0
7
32
0
7
33
0
7
32
0
7
31
0
6
31
0
6
30
0
7
29
0
6
28
0
7
28
0
6
28
0
5
27
0
5
26
0
5
26
0
5
25
0
5
24
0
5
24
0
5
23
0
5
23
0
5
22
0
4
22
0
5
21
0
5
21
0
5
20
0
5
20
0
5
19
0
4
18
0
4
17
0
4
17
0
4
17
0
3
16
0
3
15
0
4
14
0
4
14
0
3
13
0
3
13
0
2
13
0
3
12
0
2
11
0
2
11
0
3
10
0
2
10
0
2
9
0
2
8
0
2
8
0
2
7
0
2
7
0
2
47
0
10
48
0
10
48
0
10
47
0
10
48
0
10
47
1
10
47
0
10
47
0
10
47
0
10
47
0
11
46
0
10
46
0
10
46
0
9
46
0
10
45
0
9
45
0
10
44
0
9
43
0
9
42
0
9
42
0
9
41
0
9
41
0
9
40
0
8
39
0
8
40
0
8
39
0
8
38
1
8
37
0
8
36
0
8
37
0
8
36
0
7
35
0
7
34
0
7
33
0
7
33
0
7
33
0
7
33
0
7
31
0
7
31
0
7
30
0
6
29
0
7
29
0
7
28
0
6
28
0
6
27
0
6
27
1
5
26
0
6
25
0
6
25
0
5
24
0
5
24
0
5
23
0
5
23
0
5
22
0
5
22
0
5
22
0
5
21
0
5
19
0
4
20
0
4
19
0
4
19
0
4
17
0
4
17
0
4
17
0
4
16
0
4
15
0
3
14
0
4
14
0
3
13
0
3
13
0
2
13
0
3
12
0
2
11
0
3
11
0
3
10
0
2
10
0
2
8
0
2
9
0
1
8
1
2
7
1
2
