P3
80 60
255
9
61
56
10
61
55
10
61
56
9
60
56
10
60
56
10
61
56
9
61
56
9
61
56
9
61
56
10
61
56
10
61
56
10
61
55
9
61
55
9
61
56
9
60
56
9
61
56
9
61
55
9
60
54
9
59
54
8
57
52
9
56
51
8
54
50
8
53
48
8
51
48
8
51
47
7
49
45
7
48
44
8
46
43
7
45
42
7
44
41
6
43
39
6
42
38
6
41
37
6
39
36
6
38
35
6
37
34
6
35
32
5
34
31
5
33
30
5
31
29
4
31
28
5
29
27
4
27
26
4
26
25
4
25
23
4
24
22
3
23
21
3
22
20
3
20
19
3
19
18
3
17
17
3
16
16
2
16
14
2
14
13
2
13
12
1
12
11
1
11
10
1
9
8
2
7
7
1
6
6
1
5
5
0
4
4
0
2
2
1
2
1
0
0
0
0
0
0
0
0
1
0
0
0
0
0
0
0
0
0
0
0
0
0
0
0
0
0
0
0
0
0
0
0
0
0
0
0
0
0
0
0
1
0
0
1
0
0
0
0
9
61
56
9
61
56
10
61
56
9
61
56
10
61
56
9
60
55
9
61
56
10
60
56
9
61
56
10
60
56
9
60
56
9
61
56
9
61
56
9
60
55
9
60
56
9
60
56
10
61
56
9
59
55
9
58
54
8
57
52
8
56
51
9
54
50
8
53
49
8
52
48
8
51
47
7
50
45
8
47
44
8
47
43
7
45
42
7
45
40
6
43
39
6
42
39
6
40
37
6
39
36
6
38
35
5
37
33
5
36
33
5
35
31
6
33
30
5
32
29
5
31
28
5
29
27
4
28
26
5
27
24
4
26
23
3
24
22
4
23
21
3
21
20
3
20
18
3
19
17
2
18
16
3
17
15
2
15
14
2
14
13
1
13
12
2
11
11
2
10
9
2
9
9
1
8
7
1
6
6
1
5
5
1
4
4
0
3
2
0
1
1
0
0
0
0
0
0
0
0
0
0
0
0
0
0
0
0
0
0
0
0
0
0
0
0
0
0
0
0
0
0
0
0
0
0
0
0
0
0
0
0
0
0
0
0
1
0
0
0
9
60
55
9
60
56
9
60
56
10
60
56
9
61
56
10
61
56
9
61
56
9
61
56
9
61
56
10
60
56
9
61
56
9
61
56
9
61
56
9
60
56
9
61
56
10
61
55
9
60
56
9
60
54
9
59
54
8
56
52
9
55
51
8
54
50
8
53
49
8
52
47
8
51
46
7
49
45
7
48
44
7
46
43
7
46
41
7
44
41
7
43
39
7
42
38
7
41
38
6
39
37
6
38
35
6
36
34
6
35
33
5
35
31
5
33
31
5
32
29
4
30
28
4
29
27
4
28
25
4
27
25
4
25
23
4
24
22
3
23
21
3
21
20
3
21
19
3
19
18
3
17
16
2
16
15
2
15
14
2
14
13
2
13
12
2
11
10
2
10
10
1
9
9
1
8
8
2
6
6
1
6
5
1
4
4
0
2
3
1
2
1
0
0
0
0
0
0
0
0
0
0
0
0
0
0
0
0
0
0
0
0
0
0
0
0
0
0
0
0
0
0
0
0
0
0
0
0
0
0
0
0
0
0
0
0
1
0
0
0
9
60
56
10
60
56
10
61
56
10
61
56
10
61
56
9
61
55
9
61
56
10
61
55
9
61
56
10
61
56
10
61
55
10
61
55
9
61
56
9
61
56
9
60
56
9
61
55
9
61
55
9
60
54
9
58
53
9
57
53
9
56
51
8
54
50
8
53
48
8
51
48
8
51
46
8
49
45
8
47
44
7
47
43
7
46
42
7
44
41
6
43
39
6
42
38
6
41
37
6
39
36
6
38
34
6
37
34
6
35
33
5
34
32
5
33
31
5
31
29
5
30
28
4
29
27
4
28
25
4
27
24
4
25
24
4
24
22
4
23
21
4
21
20
4
20
18
3
19
18
2
18
17
2
16
15
2
15
14
2
14
13
2
13
12
2
12
11
1
10
9
2
9
8
1
8
7
1
6
6
1
5
5
1
3
3
0
2
3
0
1
1
0
0
0
0
0
0
0
0
0
0
0
0
0
0
0
0
0
0
0
0
0
0
0
0
0
0
0
0
0
0
0
0
0
0
0
0
0
0
0
0
0
0
0
0
0
0
0
0
9
60
55
10
61
56
9
61
56
9
61
56
10
61
56
9
61
55
9
60
56
9
61
56
9
60
56
10
61
56
9
61
56
10
61
56
10
61
55
9
61
56
10
60
56
10
61
55
9
61
56
10
60
54
9
59
54
8
57
52
8
55
51
9
54
50
8
53
48
8
52
47
8
51
46
8
49
45
7
48
44
7
47
43
7
46
41
6
45
40
7
43
40
6
41
38
6
40
37
6
39
36
6
38
35
6
37
33
6
36
32
5
34
32
5
33
30
5
32
30
4
30
27
5
29
27
4
28
25
4
27
24
4
25
23
4
24
22
3
22
20
3
21
19
4
20
19
3
19
18
3
17
17
2
17
16
3
15
14
2
14
13
2
12
12
1
11
11
2
11
9
2
9
9
1
8
7
1
7
6
1
5
5
0
3
4
0
2
3
0
1
1
0
0
0
0
0
0
0
0
0
0
0
0
0
0
0
0
0
0
0
0
0
0
0
0
0
0
0
0
0
0
0
0
0
0
0
0
0
0
0
0
0
0
0
0
0
0
0
0
9
61
56
9
61
56
9
60
56
10
61
56
10
61
56
9
61
55
10
61
55
9
60
56
9
61
55
9
60
56
9
61
56
9
61
56
10
61
55
10
61
56
9
61
56
9
61
55
10
61
56
9
60
54
9
58
54
8
57
52
8
56
51
9
54
50
8
53
49
8
52
48
8
50
46
8
49
46
8
48
44
7
47
43
7
45
42
7
44
40
7
43
40
7
41
38
6
41
37
6
39
36
6
38
35
6
37
34
5
35
33
5
34
32
5
33
30
5
31
29
4
30
28
5
29
26
4
28
25
4
27
24
3
25
23
3
24
22
3
22
20
3
22
19
3
20
18
3
19
17
3
18
16
2
17
15
2
15
14
2
14
13
2
13
12
1
12
10
1
11
9
1
9
8
1
7
7
1
6
6
0
5
4
0
4
4
1
2
2
0
2
1
0
0
0
0
0
0
0
0
0
0
0
0
0
0
0
0
0
0
0
0
0
0
0
0
0
0
0
0
0
0
0
0
0
0
0
0
0
0
0
0
0
0
0
0
0
0
0
0
10
60
55
10
60
56
9
61
56
9
61
56
10
61
55
10
61
56
9
61
56
10
61
56
9
61
56
10
61
56
10
61
56
9
61
56
9
61
56
10
61
55
9
61
55
10
61
56
10
61
56
9
59
55
9
58
53
9
56
52
9
55
51
8
54
50
8
53
49
8
51
48
8
50
47
8
49
46
7
48
44
7
47
43
7
46
42
7
45
41
6
43
40
7
42
39
6
41
37
6
39
36
6
38
35
6
37
34
5
35
33
5
34
31
5
33
30
5
32
29
4
30
27
4
29
27
5
28
25
4
26
24
4
25
23
4
24
22
4
23
21
3
21
20
3
20
18
3
19
17
3
18
17
2
16
15
2
16
14
2
14
13
2
13
12
2
11
11
1
10
9
2
9
9
1
8
7
1
7
6
1
5
5
0
4
3
0
2
2
0
2
1
0
0
0
0
0
0
0
0
0
1
0
0
0
0
0
0
0
0
0
1
0
0
0
0
0
0
0
0
0
0
0
0
0
0
0
0
0
0
0
0
0
0
0
0
0
0
0
0
9
61
56
9
60
56
10
60
56
9
61
56
9
61
56
9
61
56
9
60
56
10
61
56
10
61
56
9
61
56
9
61
56
9
61
56
9
61
55
10
60
56
9
61
56
9
61
55
9
61
56
9
59
54
9
58
53
8
56
52
9
55
51
8
54
50
9
53
48
8
51
47
8
51
47
7
49
46
7
48
44
8
46
43
7
45
41
7
45
40
7
43
39
6
42
38
7
41
37
6
39
36
6
38
35
6
37
34
5
36
33
5
34
31
5
33
31
5
32
30
5
30
28
4
29
27
4
28
25
4
27
24
4
26
23
4
24
22
3
23
21
3
21
19
3
21
19
3
19
17
2
18
17
2
16
15
3
15
14
2
14
12
2
12
12
2
11
10
2
10
9
2
9
9
1
8
7
1
6
6
1
5
5
0
4
4
0
3
3
0
1
2
0
0
0
0
0
0
0
0
0
0
0
0
0
0
0
0
0
0
0
0
0
0
0
0
0
0
0
0
0
0
0
0
0
0
0
0
0
0
0
0
0
0
0
0
0
0
0
0
9
60
56
9
61
56
9
61
56
9
60
56
9
61
56
9
61
55
9
61
55
9
61
55
10
61
56
9
60
56
10
61
55
9
61
56
10
61
56
9
60
56
10
61
56
9
61
56
9
61
56
9
60
54
9
58
54
9
57
52
8
55
51
9
54
50
8
53
49
8
51
48
7
51
46
7
49
45
7
48
44
7
47
43
7
45
41
7
44
40
6
42
40
7
42
39
6
40
37
6
39
36
5
38
35
5
37
34
6
36
32
5
35
32
5
33
30
5
31
29
5
31
28
4
29
27
4
28
25
4
26
24
3
25
23
4
24
22
4
23
21
4
22
19
3
20
19
3
19
18
2
18
16
3
17
15
2
16
14
3
14
13
2
13
11
2
12
11
2
10
9
1
9
8
1
7
7
1
6
6
1
5
5
1
4
4
1
2
2
0
1
1
0
0
0
0
0
0
0
0
0
0
0
0
0
0
0
0
0
0
0
0
0
0
0
0
0
0
0
0
0
0
0
0
0
0
0
0
0
0
0
0
0
0
0
0
0
0
0
0
9
61
55
10
60
56
10
60
56
9
61
56
9
61
55
9
61
56
9
61
56
10
61
56
10
61
56
9
61
56
10
61
56
10
61
55
10
61
56
10
60
56
10
60
56
9
61
56
9
61
56
9
59
54
9
58
53
9
57
52
9
55
51
9
54
50
8
53
49
8
52
48
8
51
47
8
49
45
8
48
44
7
47
42
7
45
42
7
44
41
7
43
39
7
41
39
6
40
37
6
39
36
5
38
35
5
37
33
6
36
32
6
35
31
5
33
30
5
31
29
4
30
28
4
29
27
4
28
25
4
27
24
4
25
24
4
24
22
4
23
21
3
22
20
3
20
18
2
19
18
2
18
16
3
17
15
3
15
14
2
14
13
2
13
12
2
12
11
1
10
10
1
9
8
2
8
7
1
7
6
1
5
5
1
3
4
1
2
2
0
1
1
1
0
0
0
0
0
0
0
0
0
1
0
0
0
0
0
0
0
0
0
1
0
0
0
0
0
0
0
0
0
0
0
0
0
0
0
0
0
0
0
0
0
0
0
0
0
0
0
10
60
56
10
60
56
9
60
56
9
61
56
9
61
56
10
61
55
9
61
56
9
61
56
9
61
56
10
61
55
9
61
56
9
61
55
10
61
56
10
60
55
9
61
56
10
61
56
9
60
56
9
60
55
9
58
53
9
57
52
8
55
51
9
55
50
8
53
49
8
52
48
8
50
47
7
49
45
8
48
44
7
47
43
7
45
42
7
44
41
6
43
39
6
42
39
6
40
37
6
40
36
6
38
35
5
37
34
5
35
33
5
35
31
5
33
30
5
32
29
5
30
28
4
29
27
5
28
26
4
27
25
4
25
23
3
24
22
3
23
21
3
21
20
3
20
18
3
19
17
3
18
17
2
17
16
3
15
14
2
14
13
2
13
12
2
12
10
2
10
10
1
9
9
1
8
7
1
6
6
0
5
4
1
4
4
1
3
2
1
1
2
0
0
0
0
0
0
0
0
0
0
0
0
0
0
0
0
0
0
0
0
0
0
0
0
0
0
1
0
0
0
0
0
0
0
0
0
0
0
0
0
0
0
0
0
0
0
0
1
10
61
56
10
60
56
9
61
56
10
61
56
10
61
56
9
61
56
10
61
56
9
61
56
9
61
56
10
61
56
10
61
56
9
61
56
9
61
55
9
60
56
9
61
56
10
61
56
9
61
56
9
59
55
9
58
53
9
57
52
8
55
51
9
54
50
8
53
48
8
52
47
7
50
47
8
49
45
7
48
44
7
47
43
7
45
42
6
45
40
7
43
39
6
42
38
6
40
37
7
39
37
6
38
35
5
37
34
6
36
32
5
34
31
6
33
31
5
31
29
5
30
27
4
29
26
4
27
25
4
26
25
4
25
23
4
24
22
3
23
21
3
22
20
3
20
19
3
19
17
3
18
16
3
16
16
2
15
14
2
14
12
2
13
12
2
11
10
2
10
10
1
9
8
1
7
8
1
6
6
1
5
5
1
4
3
0
3
2
0
1
1
0
0
0
0
0
0
0
0
0
0
0
0
0
0
0
0
0
0
0
0
0
0
0
0
0
0
0
0
0
0
0
0
0
0
0
0
0
0
0
0
0
0
0
0
0
0
0
0
9
60
55
9
61
56
9
61
56
9
61
56
9
61
56
9
61
56
10
61
56
10
61
56
9
61
55
9
61
56
10
61
55
9
60
56
9
60
55
9
61
56
9
61
56
9
61
56
10
60
55
9
59
55
9
58
54
9
57
52
8
55
51
8
54
50
8
53
49
8
52
48
8
50
47
8
50
46
8
48
45
7
47
43
7
46
42
6
44
41
6
43
39
6
42
39
6
41
37
6
39
36
5
38
35
6
37
34
5
35
33
6
34
31
5
33
31
4
31
29
4
30
28
5
29
26
5
28
25
4
27
24
4
25
23
4
24
22
4
23
21
3
22
20
3
20
18
3
19
18
3
18
16
3
17
15
2
15
14
2
14
13
2
13
12
2
11
11
1
10
9
1
9
8
1
8
7
1
7
6
0
5
4
1
3
3
0
3
2
0
1
2
0
0
0
0
0
0
0
0
0
0
1
0
0
0
0
0
0
0
0
0
0
0
0
0
0
0
0
0
0
0
0
0
0
0
0
0
0
0
1
0
0
0
0
0
0
0
0
0
9
61
56
10
61
56
10
61
55
9
61
56
10
61
56
10
60
56
10
61
56
9
61
56
9
60
56
9
61
56
9
60
56
10
61
56
10
61
56
10
61
56
10
61
56
10
60
56
10
61
56
9
59
54
9
58
54
9
57
52
9
55
51
8
54
50
8
53
49
8
52
48
8
50
47
8
49
45
8
48
44
7
47
43
7
45
42
7
44
40
7
43
39
7
42
38
6
41
38
6
39
36
5
38
35
6
37
34
5
36
33
6
34
31
6
33
30
5
31
29
5
30
28
4
29
26
4
28
25
4
27
25
4
25
23
3
24
22
3
23
21
3
22
20
3
21
19
3
19
17
3
18
16
2
17
15
2
16
14
2
14
13
2
12
12
2
12
11
1
11
10
1
9
8
1
8
7
1
6
6
1
5
5
1
3
4
1
3
2
0
1
1
0
0
0
0
0
0
0
0
0
0
0
0
0
0
0
0
0
0
0
0
0
0
0
0
0
0
0
0
0
0
0
0
0
0
0
0
0
0
0
0
0
0
0
0
0
0
0
0
10
60
56
10
61
56
9
61
56
9
60
56
10
61
56
10
60
56
10
61
56
9
60
56
10
61
56
10
61
56
9
60
56
9
61
56
10
60
55
10
61
55
9
61
56
9
61
56
10
61
55
9
60
55
9
58
53
9
56
52
8
56
51
8
54
50
8
52
49
8
51
47
8
50
47
8
49
45
8
48
44
7
47
42
7
46
42
6
44
41
6
43
40
6
42
39
6
40
38
6
39
36
6
38
35
6
36
34
6
35
33
5
35
32
5
32
30
5
32
29
4
30
27
4
28
27
4
28
25
4
26
25
4
25
23
3
24
22
4
23
21
3
21
19
3
20
19
3
19
18
3
17
16
3
17
15
3
16
14
2
14
13
2
13
12
2
12
11
2
10
9
1
9
8
1
8
7
1
7
6
1
5
5
1
4
3
0
3
3
0
1
2
0
0
0
0
0
0
0
0
0
0
0
0
0
0
0
0
0
0
0
0
0
0
0
0
0
0
0
0
0
0
0
0
0
0
0
0
0
0
0
0
0
0
0
0
0
0
0
0
10
61
56
9
60
55
9
60
56
9
61
56
9
61
55
9
61
56
10
60
56
9
61
56
9
61
55
10
61
56
9
61
56
9
61
56
9
60
56
9
61
55
9
60
56
10
60
56
10
60
55
9
59
54
9
58
53
9
57
53
9
55
51
8
54
50
9
53
49
8
52
48
8
50
46
7
49
45
7
48
44
7
47
43
7
46
42
6
44
41
7
43
39
7
41
39
6
40
37
6
39
36
6
38
35
6
37
34
6
36
33
5
34
32
5
32
30
5
32
28
4
30
27
4
29
26
4
27
26
4
26
24
4
25
23
4
24
22
3
22
21
3
21
20
3
20
18
3
19
17
2
18
16
3
17
15
2
15
14
2
14
13
2
13
12
2
12
10
1
11
9
1
9
8
1
7
7
1
7
5
1
5
5
1
4
4
0
2
2
1
1
1
0
0
0
0
0
0
0
0
0
0
0
0
0
0
0
0
0
0
0
0
0
0
0
0
0
0
0
0
0
0
0
0
0
0
0
0
0
0
0
0
0
0
0
0
0
0
0
0
9
61
55
10
61
56
9
61
56
10
61
56
9
61
56
9
61
56
10
60
56
10
61
55
9
61
56
10
61
56
9
60
56
10
61
56
9
61
56
10
60
56
10
61
56
10
60
56
9
60
56
9
59
55
9
58
53
8
56
52
8
55
51
8
55
50
9
53
49
8
51
48
8
51
46
8
49
46
8
48
44
7
46
43
7
45
42
7
45
40
6
43
39
6
41
38
6
40
37
6
39
37
6
38
34
6
37
34
6
36
33
5
34
32
5
32
30
4
31
29
4
30
28
5
29
26
4
27
26
4
27
25
4
25
24
4
24
23
3
23
21
3
21
20
3
20
19
3
19
18
3
18
16
3
16
15
3
16
14
3
14
13
2
13
12
2
11
11
1
11
10
2
9
9
1
7
7
1
7
6
1
5
5
0
4
4
0
2
3
0
1
1
0
0
0
0
0
0
0
0
0
0
0
0
0
0
0
0
0
0
0
0
0
0
0
0
0
0
0
0
0
1
0
0
0
0
0
0
0
0
0
0
0
0
0
0
0
0
0
0
9
61
56
9
61
56
9
60
56
9
61
56
10
61
56
9
60
56
9
61
55
9
60
55
10
60
56
9
61
55
9
60
56
9
60
56
10
60
56
9
60
56
10
61
56
9
61
56
10
61
55
9
59
55
9
58
53
9
57
52
8
55
51
8
55
50
8
53
49
8
51
47
8
50
46
8
49
45
8
48
44
7
47
43
7
45
42
7
44
41
6
43
39
7
42
39
6
40
37
6
39
36
6
38
35
5
37
34
6
36
32
5
34
32
5
33
30
5
32
28
4
30
28
4
29
26
5
28
25
4
27
24
4
26
23
4
24
22
4
22
21
3
21
19
3
20
19
3
19
18
3
17
17
3
17
16
2
15
14
2
14
13
2
13
11
2
12
11
1
10
10
1
9
8
1
8
7
1
6
5
1
5
5
1
4
3
0
3
2
1
1
1
0
0
0
0
0
0
0
0
0
0
0
0
0
0
0
0
0
0
0
0
0
1
0
0
0
0
0
0
0
0
0
0
0
0
1
0
0
0
0
0
0
0
0
0
0
0
0
0
9
61
56
9
61
56
9
60
55
10
61
56
9
61
56
9
61
56
10
61
56
10
61
56
10
61
56
9
61
56
9
61
55
9
60
56
9
61
56
10
61
56
10
61
56
9
61
55
10
61
56
9
60
54
9
58
53
9
57
52
9
55
51
9
55
50
8
53
48
8
51
48
8
50
46
8
49
45
7
48
44
7
46
43
7
46
42
7
45
41
7
43
39
7
41
39
6
40
38
6
40
36
6
38
35
6
36
34
5
35
32
5
35
32
5
32
30
5
31
29
5
31
28
4
29
27
4
27
26
4
27
25
4
26
24
3
24
22
3
23
21
3
21
19
3
21
19
3
19
17
3
17
16
2
17
16
3
15
14
2
14
13
2
13
12
1
12
10
2
10
10
1
9
8
2
7
7
1
6
5
1
5
4
1
3
4
1
3
3
0
1
1
0
0
0
0
0
0
0
0
0
0
0
0
0
0
0
0
0
0
0
0
0
0
1
0
0
0
0
0
0
0
0
0
0
0
0
0
0
0
0
0
0
0
0
0
0
0
0
0
10
61
56
9
60
56
9
60
56
10
61
56
10
61
56
9
61
56
10
61
56
9
61
56
9
60
56
10
61
55
10
61
55
9
61
56
9
61
56
9
61
56
9
61
56
10
61
55
9
60
55
9
59
54
8
58
53
9
57
52
8
55
50
8
54
50
8
53
49
8
52
48
7
50
46
8
49
45
7
48
44
8
46
43
7
46
42
7
45
40
7
43
39
6
42
39
6
40
37
6
39
37
6
38
35
6
36
34
5
35
32
5
35
31
5
33
30
5
32
29
4
30
28
5
29
27
4
28
26
4
27
24
4
25
23
4
24
22
4
23
21
3
22
20
3
20
19
3
19
18
2
18
17
2
16
15
2
15
14
2
14
13
2
13
11
2
11
10
1
10
9
2
9
9
1
8
7
1
6
6
1
5
5
1
3
3
0
2
2
0
1
1
0
0
0
0
0
0
0
0
0
0
0
0
0
0
0
0
0
1
0
0
0
0
0
0
0
0
0
0
0
0
0
0
0
0
0
0
0
0
0
0
0
0
0
0
0
0
1
0
9
61
56
9
61
56
9
61
56
10
61
56
9
61
55
9
61
56
9
61
56
10
60
56
9
61
55
10
60
56
9
60
56
9
60
56
10
61
55
10
61
56
9
61
56
10
60
55
9
60
56
10
59
55
9
58
53
9
57
52
9
56
51
9
54
50
8
53
49
8
52
47
8
51
46
8
49
45
7
48
44
7
47
43
7
45
42
7
44
40
6
43
39
6
42
39
6
41
37
6
40
36
6
38
35
5
37
34
6
35
32
6
34
31
5
33
30
5
32
29
4
30
27
5
29
26
5
28
25
4
26
24
4
25
23
4
24
22
4
23
20
3
22
19
3
21
19
3
19
18
3
17
16
2
16
15
3
15
14
2
14
13
2
13
12
2
11
11
2
10
9
1
9
8
1
8
7
1
6
6
1
5
5
1
3
3
0
3
2
1
1
1
1
0
0
0
0
0
0
0
0
0
0
0
0
0
0
0
0
0
0
0
0
0
0
0
0
0
0
0
0
0
0
0
0
0
0
0
0
0
0
0
0
0
0
0
0
0
0
0
9
61
56
9
61
55
9
61
56
9
61
56
10
60
56
10
61
56
10
60
56
9
60
56
9
60
56
9
61
56
9
61
56
10
61
56
10
61
56
10
60
56
10
61
56
10
60
56
10
60
55
10
59
54
9
58
53
9
57
52
8
56
51
8
55
50
8
53
49
8
51
48
7
50
46
8
50
46
8
48
44
7
46
43
7
45
42
7
44
40
7
43
40
6
42
38
7
40
37
6
39
36
5
38
35
5
37
34
5
36
32
5
34
31
5
33
30
5
32
29
5
30
28
4
29
27
4
27
26
4
27
24
4
25
24
4
24
22
3
23
21
4
21
19
3
20
18
3
19
17
3
17
16
2
17
15
2
16
14
2
14
13
2
12
12
2
12
10
1
11
10
1
9
8
1
7
7
1
7
5
1
5
5
0
4
4
1
3
2
1
2
1
0
0
0
0
0
0
0
0
0
0
0
0
0
0
0
0
0
0
0
0
0
0
0
0
1
0
0
0
0
0
0
0
0
0
0
0
0
0
0
0
0
0
0
0
0
0
0
0
9
60
56
9
60
56
9
61
56
10
61
56
9
61
56
9
60
56
9
61
56
10
60
56
9
61
55
9
60
55
9
61
55
9
60
56
9
61
56
9
61
56
10
60
56
10
61
56
9
60
55
9
59
54
9
58
53
9
57
52
8
55
51
8
54
50
8
53
48
8
52
48
8
51
47
8
49
45
7
48
44
7
47
43
7
45
42
7
44
40
7
43
39
7
42
38
6
40
37
6
40
36
5
38
35
5
37
33
5
36
33
6
34
32
5
33
30
5
31
29
5
30
28
4
29
27
4
28
26
4
26
24
4
25
23
4
24
22
3
23
20
3
22
20
3
20
19
3
19
17
3
18
17
2
17
15
2
15
14
3
14
13
2
13
11
2
11
10
2
11
9
2
9
8
2
7
7
1
7
5
1
5
4
1
3
3
0
3
2
0
1
1
0
0
0
0
0
0
0
0
0
0
0
0
0
0
0
0
0
0
0
0
1
0
0
0
0
0
0
0
0
0
0
0
0
0
0
0
0
0
0
0
0
0
0
0
0
0
0
0
9
61
55
9
61
56
9
61
56
9
60
56
9
60
56
9
61
56
9
61
56
10
61
56
10
61
55
10
60
56
10
60
56
9
61
56
10
60
56
10
60
56
9
61
56
9
60
56
9
61
55
9
59
54
9
58
53
9
57
52
8
56
51
8
54
50
8
52
49
8
52
47
8
51
47
8
49
45
7
48
44
7
47
43
7
45
42
7
44
41
7
43
40
7
42
38
6
40
38
6
40
36
6
38
35
5
36
34
5
35
32
5
34
31
5
33
30
4
32
29
5
30
27
5
29
26
4
27
26
4
26
25
3
25
23
4
24
22
4
23
21
3
21
20
3
20
18
3
19
18
3
18
16
2
16
15
2
15
14
2
14
13
2
13
12
2
12
10
1
10
9
1
9
8
1
8
7
1
7
5
1
5
5
1
4
3
0
2
2
0
1
1
0
0
0
0
0
0
0
0
0
0
0
0
0
0
0
0
0
0
0
0
0
0
0
0
0
0
0
0
0
0
0
0
0
0
0
0
0
0
0
0
0
0
0
0
0
0
0
0
10
61
56
10
61
56
10
61
56
9
61
56
9
60
55
9
61
56
9
61
56
9
61
56
9
61
56
9
61
56
10
60
56
9
61
55
9
61
56
10
60
56
9
61
56
10
61
55
10
61
55
10
59
54
9
58
53
9
57
53
8
55
51
9
54
50
8
53
49
8
51
48
8
50
47
7
49
45
8
48
44
7
47
43
7
45
42
7
45
41
7
43
40
6
42
38
6
40
37
6
40
36
6
38
35
6
37
34
5
36
33
5
34
31
5
32
30
5
31
29
5
30
28
4
29
27
4
28
25
4
27
24
4
26
23
3
24
22
4
22
21
3
22
20
3
20
18
3
19
17
3
18
17
3
17
16
2
15
14
2
14
13
2
13
12
2
11
11
1
10
10
1
9
8
1
8
7
1
6
5
0
5
4
1
4
4
1
2
2
0
1
2
0
0
0
0
0
0
0
0
0
0
0
0
0
0
0
0
0
0
0
0
0
0
0
0
0
0
0
0
0
0
0
0
0
0
0
0
0
0
0
0
0
0
0
0
0
0
0
0
10
61
55
10
61
56
9
61
56
9
61
56
9
60
56
9
60
56
10
61
56
10
61
55
9
61
56
10
60
56
9
61
56
10
61
56
9
61
56
9
61
55
9
61
56
10
61
56
10
60
55
9
59
55
9
58
53
9
57
52
9
55
51
8
55
50
8
53
49
8
51
48
7
50
46
8
49
46
8
48
44
8
47
43
7
45
42
7
44
41
7
43
39
6
42
39
6
40
37
6
39
36
6
38
35
5
36
34
5
35
33
6
34
32
5
33
30
5
32
29
5
30
28
4
29
27
4
28
25
4
27
24
4
25
23
4
24
22
4
23
21
4
22
20
3
20
19
3
19
17
3
18
16
2
17
15
2
15
14
2
14
13
2
13
12
2
12
10
2
10
9
1
9
9
1
8
7
1
6
6
1
5
5
1
4
4
1
2
3
0
1
1
0
0
0
0
0
0
0
0
0
0
0
0
0
0
0
0
0
0
0
0
0
0
0
0
0
0
0
0
0
0
0
0
0
0
0
0
0
0
0
0
0
0
0
0
0
0
0
0
10
60
56
10
61
56
10
60
56
9
60
56
10
61
56
9
61
56
10
61
56
10
61
56
9
61
56
9
61
56
10
61
56
10
60
56
9
61
56
10
61
56
10
61
55
9
60
55
10
60
55
9
59
55
9
58
53
9
56
52
9
55
51
8
54
50
9
53
48
8
52
47
7
50
46
8
49
45
7
48
44
7
47
43
7
46
41
6
44
41
7
43
39
6
41
38
6
40
38
6
39
36
6
38
35
5
37
34
5
35
32
5
34
31
5
32
30
5
31
29
4
30
28
5
29
27
4
27
26
4
27
25
4
25
23
4
24
23
3
22
21
4
22
20
4
20
18
3
19
17
3
17
17
2
17
15
2
16
14
2
14
13
2
13
12
2
12
10
2
10
10
2
9
8
1
7
7
1
6
5
1
5
4
1
4
3
0
2
3
0
2
1
0
0
0
0
0
0
0
0
0
0
0
0
0
0
0
0
0
0
0
1
0
0
0
0
0
0
0
0
0
0
0
0
0
0
0
0
0
0
0
0
0
0
0
0
0
1
0
0
10
61
56
10
60
56
9
61
56
9
61
56
9
60
56
9
60
56
10
61
56
10
61
56
9
61
56
9
60
56
10
61
56
9
61
55
10
60
56
9
61
55
9
61
56
10
60
56
10
61
55
9
60
54
9
57
54
9
56
52
8
55
51
8
55
50
9
53
49
8
51
48
8
50
46
7
49
45
8
48
44
7
46
43
7
45
42
7
44
41
7
43
39
6
42
38
7
40
38
6
40
37
6
38
35
5
36
33
6
35
32
5
34
31
5
33
30
5
32
28
5
30
28
5
29
26
4
28
26
4
26
25
4
25
24
4
24
22
4
23
21
3
22
20
3
20
19
3
19
17
3
18
16
2
16
16
2
15
14
2
14
13
2
13
12
2
11
10
2
10
9
2
9
8
1
7
7
1
6
6
1
5
5
1
3
3
0
2
2
0
1
1
0
0
0
0
0
0
0
0
0
0
0
0
0
0
0
0
0
0
0
0
0
0
0
0
0
0
0
0
0
0
0
0
0
0
0
0
0
0
0
0
0
0
1
0
0
0
0
0
9
61
56
9
61
56
9
61
56
9
61
56
10
60
56
10
60
55
9
60
56
9
61
56
9
61
56
9
61
56
9
61
56
9
61
56
9
61
56
9
61
56
10
61
55
9
61
56
9
60
56
9
59
54
9
58
54
8
57
52
8
56
51
9
54
50
8
53
49
8
52
47
8
50
46
7
49
45
7
47
44
7
47
43
7
46
42
7
44
40
6
43
39
6
41
38
6
40
37
6
39
36
6
38
35
5
37
34
5
35
32
5
34
31
5
33
30
5
32
29
5
30
28
5
29
27
4
28
26
4
26
24
4
25
23
3
24
22
3
23
21
3
22
19
4
20
19
3
19
17
2
18
16
3
17
15
2
16
14
2
14
13
2
12
11
2
11
11
2
10
9
1
9
8
1
7
7
1
6
6
1
5
5
0
4
3
0
3
2
0
1
1
0
0
0
0
0
0
0
0
0
0
0
0
0
0
0
0
0
0
0
0
0
0
0
0
0
0
0
0
0
0
0
0
0
0
0
0
0
0
0
0
0
0
0
0
0
0
0
0
9
61
56
9
61
56
10
61
56
9
61
56
10
60
56
10
61
56
9
60
56
9
61
55
9
61
56
10
61
56
10
61
56
9
60
56
9
61
56
9
61
56
10
61
56
10
60
56
9
60
55
10
59
54
9
58
53
9
56
52
8
56
51
9
54
50
8
53
48
8
52
48
8
50
47
8
49
45
8
48
44
7
46
43
7
45
42
7
45
41
6
43
40
6
42
39
6
40
37
6
39
36
6
38
35
6
36
34
6
35
33
5
34
31
5
33
30
5
31
29
5
30
27
4
29
27
4
28
26
5
27
24
4
25
24
3
24
22
4
23
21
3
21
20
3
20
18
3
19
17
3
18
16
3
17
15
3
15
14
2
14
13
2
13
12
2
11
11
2
10
10
2
9
8
1
7
6
1
7
5
1
5
5
1
4
3
1
2
2
0
2
2
0
0
0
0
0
0
0
0
0
0
0
0
0
0
0
0
0
0
0
0
0
0
0
0
0
0
0
0
0
0
0
0
0
0
0
0
0
0
0
0
0
0
0
0
0
0
0
0
10
60
55
9
61
56
9
61
56
9
61
56
9
61
56
9
61
56
9
61
56
9
61
56
10
61
55
9
61
55
9
61
56
9
61
56
10
61
56
10
60
56
9
61
56
10
61
56
9
60
55
9
59
54
9
58
53
9
56
52
9
56
51
9
54
49
8
53
49
8
52
48
7
50
46
7
49
45
8
48
44
7
47
43
7
46
42
6
45
40
6
43
40
7
41
39
7
40
37
6
39
37
5
38
35
6
37
34
6
36
32
5
33
31
5
33
30
5
31
29
4
30
28
5
29
27
5
28
26
4
26
25
4
25
23
4
24
22
3
22
20
4
21
19
3
20
18
3
19
18
3
18
16
3
17
15
2
15
14
2
14
13
2
13
12
2
12
10
2
10
10
1
9
8
1
8
7
0
6
5
1
5
4
0
4
4
0
2
3
0
1
1
0
0
0
0
0
0
0
0
0
0
0
0
0
0
0
0
0
0
0
0
0
0
0
0
0
0
0
0
0
0
0
0
0
0
0
0
0
0
0
0
0
0
0
0
0
0
0
0
9
60
56
10
61
56
9
60
56
9
60
55
9
61
56
9
61
56
10
61
55
10
61
56
9
60
56
10
60
56
10
61
56
10
60
56
9
61
56
9
60
56
9
60
55
9
60
56
9
61
56
9
59
55
9
58
53
8
56
52
9
56
51
8
55
49
8
53
48
8
52
48
8
50
47
8
49
45
8
48
44
7
47
43
7
46
42
7
44
41
6
43
39
6
42
38
6
40
37
6
39
36
6
38
35
5
37
34
6
35
33
6
34
31
5
33
30
5
31
29
5
30
28
4
29
26
4
27
25
4
26
24
4
25
24
4
24
22
4
22
21
4
21
20
3
20
19
3
19
17
2
18
17
2
16
15
3
15
14
3
14
12
2
13
12
2
11
10
1
11
9
2
9
8
1
8
6
1
6
5
1
5
4
1
4
3
1
2
2
0
1
1
0
0
0
0
0
0
0
0
0
0
0
0
0
0
0
0
0
0
0
0
0
0
0
0
0
0
0
0
0
0
0
0
0
0
0
0
0
0
0
0
0
0
0
0
0
0
0
0
10
61
56
9
61
56
9
61
56
9
61
56
10
60
56
10
60
56
9
60
56
9
61
55
10
61
56
10
61
56
9
61
56
9
61
56
9
61
56
10
61
56
9
60
56
10
60
56
10
61
56
9
60
55
9
58
54
8
57
52
8
55
51
8
54
49
8
53
48
8
51
48
8
50
47
8
49
45
8
48
44
7
47
43
7
46
42
7
44
41
7
43
39
6
42
39
7
40
37
6
39
36
6
38
35
5
36
33
5
35
32
5
34
31
5
33
30
5
31
29
4
31
28
4
29
26
4
28
26
4
26
24
4
25
24
4
24
22
3
23
21
4
21
19
3
20
19
3
19
18
2
18
17
2
17
16
2
15
14
3
14
13
2
13
12
1
11
11
2
10
10
2
9
8
1
7
6
1
6
6
1
5
5
0
4
3
0
2
2
0
1
1
0
0
0
0
0
0
0
0
0
0
0
0
0
0
0
0
0
0
0
0
0
0
0
0
0
0
0
0
0
0
0
0
0
0
0
0
0
0
0
0
0
0
0
0
0
0
0
0
9
61
56
9
61
56
10
61
55
10
61
56
9
61
56
10
61
56
10
61
56
9
61
56
9
60
56
9
61
56
9
61
56
10
60
55
9
61
56
10
61
56
9
61
56
10
61
56
10
60
55
9
59
55
9
58
53
9
57
52
8
56
50
9
54
50
8
52
49
8
52
47
7
50
47
8
49
45
7
48
44
7
47
43
7
46
42
7
45
40
7
43
39
6
42
39
6
41
37
7
39
36
6
38
35
6
36
33
5
35
32
5
34
31
5
33
30
5
31
28
5
30
28
4
29
26
5
28
25
4
26
24
4
25
23
4
24
22
4
23
21
4
21
20
3
20
19
3
19
17
3
18
16
3
17
15
3
15
14
2
14
13
2
12
11
2
12
11
1
10
9
2
8
8
1
8
7
1
6
6
1
5
4
1
4
3
0
2
3
0
1
1
0
0
0
0
0
0
0
0
0
0
0
0
0
0
0
0
0
0
0
0
0
0
0
0
0
0
0
0
0
0
0
0
0
1
0
0
0
0
0
0
0
0
0
0
0
0
0
0
10
60
56
9
61
55
9
61
55
9
61
56
9
61
56
9
61
56
9
60
56
9
60
55
10
60
56
10
61
55
10
61
56
9
60
55
10
61
56
9
61
56
10
61
56
9
60
55
9
60
56
9
59
54
9
58
53
8
56
52
9
56
51
9
55
50
8
53
49
8
52
48
8
51
46
8
49
45
8
48
45
8
46
43
7
45
42
7
44
40
7
43
40
7
42
38
6
41
37
6
39
36
6
38
35
6
36
33
6
35
33
6
34
31
5
32
30
5
31
29
5
30
28
4
29
26
4
28
25
4
26
24
4
25
24
3
24
22
4
23
21
4
21
19
3
20
19
3
19
17
3
17
16
3
16
15
3
15
14
2
14
13
2
13
12
2
11
10
2
10
9
1
9
8
1
8
7
1
6
6
1
5
5
1
3
4
0
2
3
0
1
1
0
0
0
0
0
0
0
0
0
0
0
0
0
0
0
0
0
0
0
0
0
0
0
0
0
0
0
0
0
0
0
0
0
0
0
0
0
0
0
0
0
0
0
0
0
0
0
0
9
61
56
9
61
56
9
61
56
9
60
56
10
60
55
10
60
56
9
61
56
9
60
55
9
61
56
10
61
56
9
61
56
9
61
56
10
61
56
10
60
55
9
61
56
9
60
56
9
60
56
9
59
54
9
58
54
9
57
52
9
56
51
9
54
50
8
53
49
8
51
47
8
50
47
7
49
45
7
48
44
7
46
43
7
46
42
7
44
41
6
43
39
6
41
38
6
41
37
6
40
36
6
38
35
6
37
33
5
36
32
5
34
31
5
32
30
5
31
29
5
30
28
4
29
26
4
28
25
4
27
24
4
25
24
3
24
22
3
22
21
3
21
20
4
21
18
3
19
17
2
18
16
3
17
16
3
15
14
2
14
13
2
13
12
2
11
11
1
10
9
1
9
8
1
7
7
1
6
5
0
5
4
1
4
3
1
2
2
0
1
1
0
0
0
0
0
0
0
0
0
1
0
0
0
1
0
0
0
0
0
0
0
0
0
0
1
0
0
0
0
0
0
0
0
0
0
0
0
0
1
0
0
0
0
0
0
0
0
0
10
60
55
10
61
56
9
61
55
9
61
56
9
60
56
9
61
56
10
61
56
9
61
56
9
61
56
10
60
56
9
61
56
9
61
56
9
61
55
9
61
55
9
61
56
9
61
56
10
61
55
9
59
54
9
58
53
9
57
52
9
56
51
8
54
50
8
53
49
8
52
47
7
51
47
8
49
45
8
48
44
7
47
43
7
46
42
7
44
40
7
43
40
7
42
39
6
40
37
6
40
36
6
38
35
6
37
33
5
35
32
6
34
31
5
33
30
5
31
29
5
31
28
4
29
26
5
28
26
5
26
24
4
25
23
3
24
22
3
22
21
3
22
20
4
20
19
3
19
17
3
18
17
3
16
15
2
15
14
2
14
13
2
12
12
2
11
10
2
10
9
1
9
8
1
8
7
1
6
6
1
5
4
0
4
3
1
2
3
0
2
2
0
0
0
0
0
0
0
0
0
0
0
0
0
0
0
0
0
0
0
0
0
0
0
0
0
0
0
0
0
0
0
0
0
0
0
0
0
0
0
0
0
0
0
0
0
0
0
0
10
61
56
9
60
56
10
61
56
9
60
56
9
61
55
9
61
56
9
61
56
9
60
56
9
61
56
9
60
55
9
61
56
9
61
56
9
60
56
9
61
55
9
61
56
9
60
56
9
60
55
9
59
54
9
58
53
9
57
53
9
55
51
8
54
50
8
53
49
8
52
48
8
50
46
8
49
45
7
48
44
8
47
43
7
45
42
7
44
40
7
43
40
7
41
39
7
40
37
6
39
36
5
38
35
5
37
33
6
36
33
6
34
31
5
33
30
5
32
29
5
30
28
5
29
27
4
28
25
4
26
24
4
25
24
4
24
22
3
23
21
3
21
20
3
21
18
3
19
18
3
18
16
3
17
16
2
15
14
2
14
13
2
13
12
2
11
10
1
10
9
1
9
8
1
8
7
1
6
5
1
5
4
0
4
4
1
2
3
0
1
2
0
0
0
0
0
0
0
0
0
0
0
0
0
0
0
0
0
0
0
0
0
0
0
0
0
0
0
0
0
0
0
0
0
0
0
0
0
0
0
0
0
0
0
0
0
0
0
0
9
61
55
9
61
55
9
61
56
10
61
56
9
60
56
9
61
56
9
60
56
9
61
56
9
60
56
9
60
55
9
61
55
10
61
56
9
61
56
9
61
56
9
61
56
9
61
56
9
61
56
9
59
55
9
58
53
9
57
52
9
56
51
8
54
50
9
53
49
7
52
47
8
50
46
7
49
45
7
48
44
7
46
43
7
45
41
6
44
41
7
43
40
7
42
38
6
40
37
6
39
36
6
37
34
6
37
33
6
35
32
5
34
31
5
33
30
5
31
29
4
30
28
5
29
26
4
28
25
4
27
25
4
25
23
4
24
22
4
22
21
3
21
20
4
21
18
3
19
18
3
17
17
2
16
15
3
15
14
2
14
13
2
12
12
2
11
11
1
10
9
1
9
8
2
7
6
1
6
5
1
5
4
0
4
3
0
3
3
0
2
1
0
0
0
0
0
0
0
0
0
0
0
0
0
0
0
0
0
0
0
0
0
0
0
0
0
0
0
0
0
0
0
0
0
0
0
0
0
0
0
0
0
0
0
0
0
0
0
0
9
61
56
9
61
56
10
61
55
9
61
56
10
61
56
9
60
56
10
61
56
9
61
56
9
61
55
10
61
56
10
61
56
9
61
55
9
61
56
10
60
56
9
61
56
9
61
56
10
61
55
9
59
54
9
58
53
9
57
52
9
55
51
8
54
50
9
53
49
8
52
47
8
51
46
8
49
45
8
48
44
7
46
43
7
46
42
7
44
40
7
43
40
7
41
38
6
41
37
6
39
36
5
38
34
6
37
34
6
35
32
5
34
32
6
33
31
5
32
29
5
30
27
5
29
26
4
28
26
4
26
24
4
25
24
4
24
22
4
23
21
3
21
20
3
20
18
3
19
17
2
18
17
3
16
15
3
15
14
2
14
13
2
13
11
2
12
10
1
10
9
2
8
8
1
7
7
1
6
5
1
5
5
0
3
3
0
3
2
0
1
1
0
0
0
0
0
0
0
0
0
0
0
1
0
0
1
0
0
0
0
0
0
0
0
0
0
0
0
0
0
0
0
0
0
0
0
0
0
0
0
0
0
0
0
0
0
0
0
0
10
61
56
10
61
56
9
61
56
10
61
55
10
61
56
9
60
55
9
61
56
9
60
56
10
61
56
9
61
56
9
61
56
10
60
56
10
60
56
9
61
56
10
61
56
9
60
56
9
61
56
9
60
54
9
58
53
9
57
52
9
55
51
8
54
49
8
53
48
8
52
48
8
50
47
8
49
46
8
48
44
7
46
43
7
46
42
7
44
41
7
43
39
7
42
38
6
40
37
6
39
36
6
38
34
6
36
34
6
35
33
6
34
31
5
32
30
5
31
29
5
31
28
4
29
27
4
28
25
4
26
24
4
26
24
4
24
22
3
22
21
3
21
20
4
20
19
3
19
18
3
17
16
2
16
15
2
15
14
2
14
13
2
13
12
2
11
10
2
10
9
1
9
8
1
7
7
1
6
5
1
5
4
0
4
4
0
3
2
1
2
1
0
0
0
0
0
0
0
0
0
0
0
0
0
0
0
0
0
0
0
0
0
0
0
0
0
0
0
0
0
0
0
0
0
0
0
0
0
0
0
0
0
0
0
0
0
0
0
0
9
61
56
10
61
56
10
61
55
9
61
56
9
61
56
10
61
56
9
61
56
10
61
56
10
61
56
9
61
56
10
60
56
10
61
56
9
60
55
10
61
56
9
61
56
9
61
55
10
60
55
9
59
55
9
58
53
9
57
52
8
56
51
9
55
49
8
53
48
8
52
48
8
50
46
8
49
45
8
48
45
7
46
42
7
45
42
7
45
40
6
42
40
6
42
38
6
41
38
6
39
36
5
38
35
6
36
34
6
35
32
5
34
32
5
32
30
5
31
29
5
31
28
5
29
26
4
28
26
4
27
25
3
25
23
3
24
23
3
23
21
3
21
19
3
20
19
3
19
17
2
17
16
3
16
15
3
15
14
2
14
13
2
13
12
2
11
11
2
10
9
1
9
8
1
7
7
1
7
6
1
5
5
0
3
4
0
2
2
1
1
1
0
0
0
0
0
0
0
0
0
0
0
0
0
0
0
0
0
0
0
0
0
0
0
0
0
0
0
0
0
0
0
0
0
0
0
0
0
0
0
0
0
0
0
0
0
0
0
0
10
61
56
9
61
55
10
61
56
10
61
56
10
61
56
10
61
56
9
60
55
10
60
56
10
61
55
10
61
56
9
61
56
9
61
56
10
61
55
9
60
56
10
60
56
9
61
56
10
60
56
9
59
55
9
58
54
8
56
52
9
55
51
8
54
50
8
53
48
8
52
47
8
51
46
8
49
45
7
48
44
7
47
42
7
46
42
7
44
41
7
43
39
7
42
39
6
40
37
6
39
36
6
37
34
5
36
33
6
35
33
6
34
31
5
32
30
4
31
29
5
30
28
4
29
27
5
28
26
4
27
24
4
26
23
3
24
22
4
23
21
3
21
20
3
21
18
3
19
17
3
17
16
2
17
16
2
15
14
2
14
13
2
13
12
2
12
11
1
10
9
1
9
8
1
7
7
1
6
5
1
5
5
1
3
3
0
2
2
0
1
1
0
0
0
0
1
0
0
0
0
0
0
0
0
0
0
0
0
0
0
0
0
0
0
0
0
0
0
0
0
0
0
0
0
0
0
0
0
0
0
0
0
0
0
0
0
0
0
0
10
61
56
10
61
56
9
61
56
10
61
56
9
61
56
9
61
56
10
61
55
9
61
56
10
60
55
10
61
56
9
61
56
10
61
56
10
60
56
9
60
56
9
61
56
10
61
55
9
61
56
9
59
54
9
58
53
9
57
52
9
55
51
8
54
50
8
53
49
7
52
47
8
50
47
8
49
45
7
48
44
8
46
43
7
46
42
7
44
41
7
43
39
6
41
38
6
41
37
6
39
36
6
38
35
5
36
34
5
35
32
5
34
31
5
33
30
5
32
29
5
30
27
4
29
27
4
28
25
5
26
24
4
26
24
4
24
22
4
23
21
4
22
20
3
20
19
3
19
17
3
18
16
2
17
15
3
15
14
2
14
13
2
13
12
2
11
10
2
10
9
2
8
8
1
7
6
1
6
5
1
5
5
0
4
3
1
3
2
0
1
1
0
0
0
0
0
0
0
0
0
0
0
0
0
0
0
0
0
0
0
0
0
0
0
0
0
0
0
0
0
0
0
0
0
0
0
1
0
0
0
0
0
0
0
0
0
0
0
0
10
61
56
10
60
56
9
61
56
9
60
56
10
61
56
9
61
56
9
61
56
9
61
55
9
61
56
10
61
56
10
61
56
10
61
55
9
60
56
10
60
55
10
61
56
9
60
56
9
61
56
9
59
54
9
58
53
9
57
52
8
55
51
8
54
50
8
53
49
8
52
47
8
50
47
7
49
45
7
48
44
7
46
43
7
45
42
7
44
41
6
43
39
7
41
39
7
41
37
6
39
36
6
38
35
6
36
34
6
36
32
5
34
32
5
32
30
5
32
29
4
30
27
5
28
27
4
28
25
4
27
24
4
26
23
3
24
22
3
22
21
4
21
19
4
20
19
3
19
17
3
18
17
3
17
15
3
15
14
2
14
13
2
13
12
2
11
11
2
10
9
2
9
8
1
8
7
1
7
6
1
5
5
1
4
4
0
3
2
0
1
1
0
0
0
0
0
0
0
0
0
0
0
0
0
0
0
0
0
0
0
0
0
0
0
0
0
0
0
0
0
0
0
0
0
0
0
0
0
0
0
0
0
0
0
0
0
0
0
0
9
61
56
10
60
56
9
61
56
9
60
55
10
60
55
9
61
56
10
61
56
9
61
56
9
61
56
9
61
56
10
61
56
9
61
56
10
61
56
10
61
56
10
61
55
10
61
56
10
60
56
9
59
54
9
58
53
9
57
52
9
55
51
9
54
49
8
53
48
8
52
47
8
50
47
8
49
46
7
48
44
7
47
43
7
45
42
7
44
41
7
43
39
6
41
39
6
40
37
6
39
36
6
38
35
6
36
34
6
35
32
6
34
31
5
32
30
5
32
29
5
30
28
4
29
26
4
27
25
4
27
25
4
26
23
4
24
22
4
22
20
4
21
19
3
21
19
2
19
17
3
18
16
2
17
15
3
15
14
2
14
13
2
12
12
2
11
10
2
10
9
1
9
8
1
8
7
1
6
6
1
5
5
1
3
3
1
3
2
0
2
1
0
0
0
0
0
0
0
0
0
0
0
0
0
0
0
1
0
1
0
0
0
0
0
0
0
0
0
0
0
0
0
1
0
0
0
0
0
0
0
0
0
0
0
0
0
0
0
0
10
60
56
10
61
56
9
61
56
10
61
56
9
61
56
9
60
56
10
61
56
9
61
56
10
60
56
9
60
56
9
60
56
9
61
56
10
60
56
9
60
56
9
61
55
10
61
56
9
61
56
9
59
55
9
58
53
9
56
53
9
55
51
9
54
50
8
53
49
8
52
48
8
51
47
8
49
45
8
48
44
7
46
43
7
45
42
6
44
41
7
43
40
7
42
38
6
41
37
6
39
36
6
38
35
6
37
33
5
35
32
5
34
31
5
33
30
5
31
29
5
30
28
4
29
26
4
27
25
4
26
24
4
25
23
4
24
22
4
23
21
3
22
20
3
20
18
3
19
18
2
18
16
2
17
15
3
15
14
2
14
13
2
12
11
1
11
10
1
10
10
1
8
8
1
8
7
1
6
5
0
5
5
0
3
3
1
3
2
1
2
1
0
0
0
0
0
0
0
0
0
0
0
0
0
1
0
0
0
0
0
0
0
0
0
0
0
0
0
0
0
0
0
0
0
0
0
0
0
0
0
0
0
0
0
0
0
0
0
0
10
61
56
9
60
56
9
61
56
10
60
56
10
61
56
10
61
56
9
61
56
9
61
55
9
61
56
9
61
55
9
61
56
9
61
56
10
61
56
9
61
56
9
60
56
9
61
55
10
60
55
9
59
54
8
58
54
9
57
52
9
56
51
9
54
50
8
53
49
8
52
47
8
51
46
7
49
45
7
48
44
7
47
43
7
45
42
7
44
41
6
43
40
6
42
39
7
41
37
6
39
36
6
38
35
5
37
34
5
35
32
5
34
31
5
33
30
5
31
29
5
30
28
5
29
27
4
27
26
4
26
25
4
25
23
4
24
22
3
23
21
3
22
20
3
20
18
3
19
18
3
18
17
3
17
15
2
15
14
2
14
12
2
12
11
2
12
10
2
10
9
1
8
8
1
7
7
1
7
5
1
5
5
0
4
4
1
3
2
1
1
2
0
0
0
0
0
0
0
0
0
0
0
0
0
0
0
0
0
0
0
0
0
0
0
0
0
0
0
0
0
0
0
0
0
0
0
0
0
0
0
0
0
0
0
0
0
0
0
0
10
61
56
10
61
56
9
60
56
9
61
56
9
60
56
9
61
56
9
60
56
9
61
56
10
61
56
9
61
56
9
60
56
9
61
56
9
61
56
9
61
56
10
61
56
9
61
56
10
60
55
9
59
55
9
58
54
9
57
52
8
56
51
8
54
50
8
53
49
8
52
47
8
50
47
7
50
45
7
48
44
7
46
43
7
45
41
7
44
41
6
43
39
6
42
38
7
41
37
6
38
36
6
37
34
5
37
34
6
35
33
5
34
31
5
32
30
4
31
29
4
30
27
4
29
27
4
28
25
4
27
24
4
25
23
4
24
22
4
23
21
3
22
19
3
20
18
3
19
17
2
18
16
3
16
15
2
15
14
3
14
13
2
12
11
1
11
11
2
10
10
1
8
8
1
7
7
1
6
6
0
5
5
0
3
3
0
2
3
1
1
1
0
0
0
0
0
0
0
0
0
0
0
0
0
0
0
0
0
0
0
0
0
0
0
0
0
0
0
0
1
0
0
0
0
0
0
0
0
0
0
0
0
0
0
0
0
0
0
0
10
61
56
10
61
56
10
60
56
10
61
56
9
60
56
10
60
55
10
60
56
9
61
56
9
61
56
9
61
56
9
61
56
9
61
56
9
61
56
10
61
56
9
61
56
9
61
56
10
60
55
9
59
54
9
58
54
9
57
52
8
56
51
8
54
50
8
53
49
8
52
48
7
50
46
7
49
46
7
48
44
7
47
43
7
45
42
7
45
41
6
43
40
7
42
38
6
41
37
6
39
35
6
38
35
5
37
33
6
36
32
5
34
31
5
33
30
5
31
28
4
31
28
5
29
26
4
28
26
4
26
24
4
25
23
3
24
22
3
23
21
4
22
20
4
20
19
3
19
17
3
17
16
2
17
15
2
15
14
3
14
13
2
12
12
2
11
10
2
10
9
2
9
8
1
8
7
1
6
6
0
5
5
1
3
3
0
2
2
0
1
1
0
0
0
0
0
0
0
0
0
0
0
0
0
0
0
0
1
0
0
0
0
0
0
0
0
0
0
0
0
0
0
0
0
0
0
0
0
0
0
1
0
0
0
0
0
0
0
0
9
61
55
10
61
55
10
61
56
10
60
56
10
60
56
9
60
56
10
61
56
9
61
56
9
61
56
9
61
56
9
61
56
9
61
56
9
61
56
10
61
55
10
60
56
9
61
56
9
60
56
9
59
55
9
58
54
9
56
52
8
55
51
8
54
50
8
53
49
8
52
48
8
50
46
7
49
46
7
48
44
8
47
43
7
45
42
7
45
40
7
43
40
7
41
38
6
41
37
6
38
36
6
38
35
5
36
34
5
35
32
5
34
31
5
33
30
5
32
29
5
30
28
4
29
27
4
28
25
4
26
24
4
25
23
4
24
22
3
23
21
4
22
20
3
20
18
3
19
17
3
18
17
3
17
15
2
16
14
2
14
13
2
13
12
2
12
10
1
10
9
1
9
8
2
7
7
1
7
5
0
5
4
0
3
4
0
3
2
0
1
1
0
0
0
0
0
0
0
0
0
1
0
0
0
0
0
1
0
0
0
0
0
0
0
0
0
0
0
0
0
0
0
0
0
0
0
0
0
0
0
0
0
0
0
0
0
0
0
0
10
60
55
10
61
56
9
60
56
10
60
56
10
61
55
9
61
56
9
61
56
9
61
56
9
61
56
10
61
55
9
61
56
9
60
56
9
61
55
10
61
56
9
61
56
9
60
56
9
60
56
10
59
54
9
58
53
8
57
52
9
56
51
9
55
50
8
53
49
8
52
47
7
50
46
7
49
46
7
48
44
7
46
43
7
46
41
7
44
41
6
43
40
7
42
38
7
40
37
6
39
35
5
38
35
5
37
33
5
35
32
6
34
31
5
33
30
4
32
29
5
30
28
5
29
27
4
28
25
4
26
25
4
26
23
4
24
22
3
23
21
3
22
20
3
20
18
3
19
17
2
18
16
3
16
15
3
15
14
3
14
13
2
12
12
2
11
10
1
10
10
1
9
8
1
7
7
1
6
6
0
5
4
1
3
4
0
3
2
1
2
1
0
0
0
0
0
0
0
0
0
0
0
0
0
0
0
0
0
0
0
0
0
0
0
0
0
0
0
0
0
0
0
0
0
0
0
0
0
0
0
0
0
0
0
0
0
0
0
0
9
61
56
10
60
56
10
61
56
10
60
56
9
60
56
9
60
56
9
61
56
9
61
56
10
61
56
9
61
55
10
61
56
9
60
56
9
61
56
10
61
55
10
61
56
10
61
56
10
60
56
9
60
55
9
58
53
8
57
52
9
55
51
9
54
50
8
53
49
8
52
48
8
50
47
8
49
46
8
48
44
7
47
43
7
46
42
7
45
41
7
43
39
7
42
39
6
40
37
6
39
35
6
38
35
6
36
33
6
35
32
5
34
32
5
32
30
4
31
29
5
30
27
5
29
27
5
27
25
4
26
24
4
25
23
3
24
22
4
23
20
3
21
20
3
20
19
3
19
17
3
18
16
3
16
15
2
15
14
2
14
13
2
12
11
1
11
10
2
10
9
1
9
8
2
7
7
1
6
5
1
5
5
0
4
4
0
2
2
1
1
1
0
0
0
0
0
0
0
0
0
0
0
0
0
0
0
0
0
0
0
0
0
0
0
0
0
0
0
0
0
0
0
0
0
0
0
0
0
0
0
0
0
0
0
0
0
0
0
0
10
61
56
10
60
55
9
61
55
9
61
56
9
61
56
9
61
56
9
61
56
10
61
56
10
60
56
10
61
56
10
61
56
10
60
56
10
61
56
10
60
56
10
60
56
9
60
56
9
60
55
9
59
55
9
57
53
9
56
52
8
55
51
8
55
50
8
53
49
8
52
48
8
50
47
8
49
45
7
48
44
7
47
43
7
46
42
7
44
41
6
43
39
6
41
39
6
40
37
6
39
36
6
37
35
5
36
34
5
35
32
5
34
31
5
33
30
5
31
29
4
30
28
5
29
27
4
28
25
4
27
24
4
25
23
4
24
22
3
23
20
4
22
20
3
20
18
3
19
17
3
18
17
3
17
15
2
15
14
2
14
12
2
12
11
2
11
10
2
10
9
1
8
8
1
8
7
1
7
6
1
5
4
1
4
3
1
2
2
1
1
1
0
0
0
0
0
0
0
0
0
0
0
0
0
0
0
0
0
0
0
0
0
0
0
0
0
0
0
0
0
0
0
0
0
0
0
0
0
0
0
0
0
1
0
0
0
0
0
0
9
61
56
9
60
56
10
61
56
9
61
55
10
61
56
9
61
56
9
60
56
10
60
56
10
61
56
9
61
56
9
61
55
9
60
56
9
61
56
10
61
56
10
61
55
9
60
56
9
61
56
9
59
55
9
58
53
9
56
52
8
55
51
8
54
50
8
53
49
8
52
48
8
51
46
7
49
45
8
47
44
7
46
43
7
45
42
6
44
40
6
43
40
6
42
38
6
40
36
6
39
35
6
38
34
6
36
34
5
35
32
5
34
31
5
33
30
5
31
29
4
30
28
4
29
27
4
27
25
4
27
25
4
25
24
4
24
22
3
22
21
3
21
20
4
21
19
3
19
18
3
17
16
3
16
15
2
15
14
2
13
12
2
13
11
1
11
10
2
10
9
1
8
8
1
8
7
1
6
6
1
5
5
0
3
3
1
2
2
0
1
1
0
0
0
0
0
1
0
0
0
0
0
0
0
0
0
0
0
0
0
0
0
0
0
0
0
0
0
0
0
0
0
0
0
0
0
0
0
0
0
0
0
0
0
0
0
0
0
0
10
60
56
10
61
56
10
61
56
9
61
55
10
61
56
10
61
56
9
61
56
9
60
56
9
61
56
9
61
56
10
61
56
9
61
56
10
61
56
10
61
55
9
60
56
9
61
55
9
61
55
9
59
55
9
58
53
9
57
52
8
56
51
8
54
49
8
53
49
8
51
48
7
50
46
8
50
46
7
48
45
7
47
43
7
45
42
7
45
40
7
43
40
6
42
38
6
40
37
6
39
36
6
38
35
5
37
33
5
35
32
5
34
31
5
32
30
5
31
29
5
30
28
4
29
27
5
27
25
5
26
25
4
25
23
4
24
22
4
23
21
4
21
20
3
20
19
3
19
17
2
17
17
2
16
15
3
15
14
2
13
13
2
12
11
2
11
10
1
10
9
2
9
8
1
7
7
1
6
6
1
5
5
1
4
4
0
2
2
0
1
1
0
0
0
0
0
0
0
0
0
0
0
0
0
0
0
0
0
0
0
0
0
0
0
0
0
0
0
0
0
0
0
0
0
0
0
0
0
0
0
0
0
0
0
0
0
0
0
1
9
61
56
10
61
56
9
61
56
10
60
56
9
61
56
9
61
56
9
60
56
10
61
56
10
61
56
9
60
56
9
61
56
9
61
56
9
61
56
9
61
56
9
61
56
9
61
56
9
60
56
9
59
55
9
58
54
9
57
52
8
56
51
9
54
50
8
53
49
8
52
47
7
51
47
8
49
46
8
48
44
7
47
43
7
46
42
7
44
41
7
43
39
7
42
38
6
40
37
6
39
36
6
38
34
6
37
33
5
36
33
5
34
31
5
33
30
5
32
29
5
30
28
4
29
26
4
28
26
4
27
24
4
25
24
4
23
22
3
23
21
4
21
20
3
20
19
3
19
18
3
18
17
2
16
15
2
15
14
2
14
13
2
13
12
2
11
10
1
10
9
2
9
8
1
8
7
1
6
6
1
5
5
1
4
3
0
2
2
0
1
1
0
0
0
0
0
0
0
0
0
0
0
0
0
0
0
0
0
0
0
0
0
0
0
0
0
0
0
0
0
0
0
0
0
0
0
0
0
0
0
0
0
0
0
0
0
0
0
0
10
61
56
9
61
56
10
61
55
10
61
56
9
60
55
10
61
55
9
60
56
9
60
55
9
61
56
9
61
56
10
61
56
10
61
55
9
60
56
10
60
56
9
61
56
10
61
55
9
60
55
9
59
55
9
58
53
9
56
52
9
55
51
8
54
50
8
53
48
8
52
47
8
50
46
7
50
46
7
48
45
7
46
43
7
46
42
6
44
41
7
43
40
7
42
38
6
40
37
6
39
36
6
38
35
5
37
34
5
35
32
6
34
31
5
32
30
5
32
29
5
30
28
4
29
27
4
28
26
4
26
24
4
26
23
4
24
22
4
23
21
3
21
19
3
20
19
3
19
17
3
18
16
2
16
16
2
16
14
2
14
12
2
12
11
2
12
10
2
10
9
1
9
8
1
7
7
1
6
6
1
5
4
0
4
4
0
2
2
1
1
2
0
0
0
0
0
0
0
0
0
0
0
0
0
0
0
0
0
0
0
0
0
0
0
0
0
0
0
0
0
0
0
0
0
0
0
0
0
0
0
0
0
0
0
0
0
1
0
0
9
60
55
10
61
56
9
60
56
9
60
56
10
61
56
9
61
56
10
61
55
10
61
56
10
61
56
10
60
55
10
60
56
9
61
55
9
61
56
10
61
56
10
61
56
9
61
56
9
61
55
9
60
55
9
58
53
8
56
52
8
55
51
9
54
50
8
53
48
8
52
47
8
50
47
8
50
45
7
48
44
8
47
43
7
45
42
6
44
40
6
43
39
6
42
38
6
40
37
6
39
35
6
38
34
5
37
33
5
35
32
5
34
31
5
33
30
5
32
29
5
31
27
5
28
26
4
28
26
4
27
24
4
25
23
4
24
22
4
23
21
3
22
20
4
21
18
3
19
18
3
18
17
3
16
16
3
15
14
2
14
13
2
13
11
2
11
11
1
10
9
1
9
8
1
8
7
1
6
5
1
5
5
1
3
4
0
2
3
0
2
2
0
0
0
0
0
0
0
0
0
0
0
0
0
0
0
0
0
0
0
0
0
0
0
0
0
0
0
0
0
0
0
0
0
0
0
0
0
0
0
0
0
0
0
0
0
0
0
0
10
60
55
9
61
55
9
61
56
9
60
56
10
61
56
10
60
56
10
61
56
9
61
56
9
61
56
9
60
56
10
61
55
9
61
56
10
61
56
9
60
55
10
60
56
9
61
56
10
61
56
10
59
55
9
58
54
8
56
53
9
55
51
8
54
50
8
53
49
8
52
48
8
51
46
8
49
46
7
48
44
7
46
43
7
46
42
7
44
41
7
43
40
7
41
38
6
41
37
6
39
36
6
38
34
5
36
33
6
35
32
5
34
31
5
33
30
5
32
29
5
30
28
4
29
27
4
27
26
4
26
24
3
25
24
3
24
22
3
23
21
3
21
19
3
20
19
3
19
18
2
18
17
3
16
16
2
15
14
2
14
12
2
12
12
2
11
10
2
10
10
2
8
8
1
8
7
1
6
6
1
5
4
0
4
3
0
2
2
0
1
1
0
0
0
0
0
0
0
0
0
0
0
0
0
0
0
0
0
0
0
0
0
1
0
0
0
0
0
0
0
0
1
0
0
0
0
0
0
0
0
0
0
0
0
0
0
0
0
0
