P3
60 10
255
0
0
0
0
0
0
255
255
255
255
255
255
255
255
255
13
13
13
0
0
0
0
0
0
255
255
255
255
255
255
255
255
255
255
255
255
0
0
0
16
16
16
255
255
255
255
255
255
11
11
11
0
0
0
0
0
0
0
0
0
11
11
11
255
255
255
8
8
8
255
255
255
255
255
255
255
255
255
255
255
255
255
255
255
4
4
4
255
255
255
255
255
255
255
255
255
255
255
255
255
255
255
5
5
5
255
255
255
255
255
255
0
0
0
0
0
0
0
0
0
5
5
5
11
11
11
255
255
255
0
0
0
255
255
255
9
9
9
0
0
0
0
0
0
8
8
8
255
255
255
9
9
9
22
22
22
255
255
255
255
255
255
255
255
255
255
255
255
255
255
255
0
0
0
0
0
0
0
0
0
0
0
0
255
255
255
1
1
1
1
1
1
2
2
2
255
255
255
0
0
0
255
255
255
18
18
18
0
0
0
0
0
0
0
0
0
255
255
255
0
0
0
255
255
255
17
17
17
255
255
255
0
0
0
0
0
0
0
0
0
5
5
5
255
255
255
3
3
3
0
0
0
30
30
30
255
255
255
26
26
26
14
14
14
0
0
0
1
1
1
13
13
13
255
255
255
0
0
0
0
0
0
2
2
2
255
255
255
18
18
18
255
255
255
0
0
0
0
0
0
6
6
6
6
6
6
255
255
255
0
0
0
255
255
255
5
5
5
0
0
0
0
0
0
4
4
4
255
255
255
13
13
13
255
255
255
0
0
0
0
0
0
0
0
0
0
0
0
0
0
0
0
0
0
0
0
0
0
0
0
255
255
255
7
7
7
0
0
0
4
4
4
0
0
0
0
0
0
0
0
0
255
255
255
0
0
0
0
0
0
0
0
0
0
0
0
255
255
255
0
0
0
255
255
255
2
2
2
245
245
245
18
18
18
0
0
0
0
0
0
5
5
5
255
255
255
10
10
10
0
0
0
4
4
4
255
255
255
0
0
0
0
0
0
0
0
0
0
0
0
3
3
3
255
255
255
0
0
0
0
0
0
2
2
2
255
255
255
4
4
4
245
245
245
18
18
18
0
0
0
5
5
5
3
3
3
255
255
255
0
0
0
255
255
255
8
8
8
0
0
0
0
0
0
2
2
2
255
255
255
13
13
13
255
255
255
0
0
0
0
0
0
0
0
0
0
0
0
0
0
0
0
0
0
0
0
0
0
0
0
255
255
255
0
0
0
0
0
0
0
0
0
0
0
0
0
0
0
0
0
0
255
255
255
0
0
0
0
0
0
0
0
0
0
0
0
255
255
255
0
0
0
255
255
255
3
3
3
1
1
1
236
236
236
0
0
0
0
0
0
6
6
6
255
255
255
16
16
16
0
0
0
2
2
2
255
255
255
5
5
5
0
0
0
0
0
0
0
0
0
3
3
3
255
255
255
0
0
0
0
0
0
2
2
2
255
255
255
6
6
6
21
21
21
255
255
255
0
0
0
4
4
4
4
4
4
255
255
255
0
0
0
255
255
255
1
1
1
0
0
0
0
0
0
5
5
5
255
255
255
13
13
13
255
255
255
0
0
0
0
0
0
0
0
0
0
0
0
0
0
0
0
0
0
0
0
0
0
0
0
255
255
255
0
0
0
0
0
0
0
0
0
0
0
0
0
0
0
0
0
0
255
255
255
0
0
0
0
0
0
0
0
0
0
0
0
255
255
255
0
0
0
255
255
255
6
6
6
17
17
17
255
255
255
0
0
0
0
0
0
7
7
7
255
255
255
12
12
12
0
0
0
3
3
3
255
255
255
12
12
12
0
0
0
0
0
0
0
0
0
1
1
1
255
255
255
0
0
0
0
0
0
1
1
1
255
255
255
8
8
8
8
8
8
255
255
255
0
0
0
1
1
1
7
7
7
255
255
255
0
0
0
255
255
255
6
6
6
0
0
0
0
0
0
3
3
3
255
255
255
21
21
21
255
255
255
0
0
0
0
0
0
6
6
6
8
8
8
9
9
9
0
0
0
0
0
0
0
0
0
245
245
245
0
0
0
0
0
0
0
0
0
0
0
0
0
0
0
0
0
0
255
255
255
0
0
0
0
0
0
0
0
0
0
0
0
255
255
255
0
0
0
255
255
255
0
0
0
0
0
0
20
20
20
255
255
255
3
3
3
5
5
5
255
255
255
19
19
19
0
0
0
4
4
4
255
255
255
12
12
12
0
0
0
0
0
0
1
1
1
6
6
6
255
255
255
0
0
0
0
0
0
1
1
1
255
255
255
5
5
5
0
0
0
6
6
6
255
255
255
7
7
7
1
1
1
255
255
255
14
14
14
255
255
255
3
3
3
0
0
0
0
0
0
5
5
5
255
255
255
7
7
7
255
255
255
255
255
255
255
255
255
255
255
255
255
255
255
255
255
255
0
0
0
0
0
0
0
0
0
255
255
255
0
0
0
0
0
0
0
0
0
0
0
0
0
0
0
8
8
8
255
255
255
0
0
0
0
0
0
0
0
0
0
0
0
255
255
255
0
0
0
255
255
255
0
0
0
0
0
0
0
0
0
255
255
255
13
13
13
1
1
1
255
255
255
0
0
0
0
0
0
2
2
2
255
255
255
0
0
0
0
0
0
0
0
0
0
0
0
3
3
3
255
255
255
0
0
0
0
0
0
1
1
1
255
255
255
3
3
3
0
0
0
0
0
0
255
255
255
3
3
3
1
1
1
255
255
255
3
3
3
255
255
255
7
7
7
0
0
0
0
0
0
11
11
11
255
255
255
10
10
10
255
255
255
0
0
0
0
0
0
0
0
0
0
0
0
0
0
0
0
0
0
0
0
0
0
0
0
255
255
255
0
0
0
0
0
0
0
0
0
0
0
0
0
0
0
11
11
11
255
255
255
0
0
0
0
0
0
0
0
0
17
17
17
255
255
255
20
20
20
255
255
255
0
0
0
0
0
0
0
0
0
10
10
10
236
236
236
1
1
1
255
255
255
0
0
0
0
0
0
2
2
2
255
255
255
0
0
0
0
0
0
0
0
0
0
0
0
5
5
5
255
255
255
0
0
0
0
0
0
1
1
1
255
255
255
9
9
9
0
0
0
0
0
0
10
10
10
255
255
255
2
2
2
255
255
255
17
17
17
255
255
255
2
2
2
0
0
0
0
0
0
2
2
2
255
255
255
10
10
10
255
255
255
0
0
0
0
0
0
0
0
0
0
0
0
0
0
0
0
0
0
0
0
0
0
0
0
16
16
16
255
255
255
0
0
0
0
0
0
0
0
0
255
255
255
9
9
9
255
255
255
0
0
0
0
0
0
0
0
0
11
11
11
255
255
255
24
24
24
255
255
255
0
0
0
0
0
0
0
0
0
6
6
6
252
252
252
2
2
2
255
255
255
0
0
0
0
0
0
3
3
3
255
255
255
0
0
0
0
0
0
3
3
3
5
5
5
17
17
17
255
255
255
0
0
0
0
0
0
3
3
3
255
255
255
0
0
0
0
0
0
1
1
1
3
3
3
255
255
255
9
9
9
255
255
255
0
0
0
255
255
255
17
17
17
0
0
0
0
0
0
15
15
15
255
255
255
12
12
12
255
255
255
0
0
0
0
0
0
0
0
0
0
0
0
0
0
0
0
0
0
0
0
0
0
0
0
0
0
0
10
10
10
255
255
255
255
255
255
255
255
255
0
0
0
0
0
0
14
14
14
255
255
255
255
255
255
255
255
255
255
255
255
0
0
0
21
21
21
255
255
255
0
0
0
0
0
0
0
0
0
0
0
0
24
24
24
255
255
255
255
255
255
0
0
0
0
0
0
10
10
10
255
255
255
0
0
0
0
0
0
18
18
18
255
255
255
255
255
255
255
255
255
255
255
255
255
255
255
2
2
2
255
255
255
0
0
0
0
0
0
2
2
2
1
1
1
3
3
3
255
255
255
255
255
255
0
0
0
0
0
0
255
255
255
255
255
255
255
255
255
255
255
255
22
22
22
16
16
16
12
12
12
255
255
255
245
245
245
255
255
255
255
255
255
255
255
255
0
0
0
0
0
0
0
0
0
