P3
58 17
255
255
255
255
255
255
255
255
255
255
255
255
255
0
0
0
255
255
255
0
0
0
0
0
0
0
0
0
255
255
255
0
0
0
255
255
255
255
255
255
255
255
255
255
255
255
255
255
255
0
0
0
255
255
255
255
255
255
255
255
255
255
255
255
0
0
0
255
255
255
255
255
255
255
255
255
255
255
255
0
0
0
0
0
0
0
0
0
0
0
0
0
0
0
0
0
0
255
255
255
0
0
0
0
0
0
0
0
0
0
0
0
255
255
255
255
255
255
255
255
255
255
255
255
0
0
0
255
255
255
0
0
0
0
0
0
0
0
0
255
255
255
0
0
0
255
255
255
255
255
255
255
255
255
255
255
255
0
0
0
255
255
255
0
0
0
0
0
0
0
0
0
0
0
0
255
255
255
0
0
0
0
0
0
0
0
0
0
0
0
255
255
255
255
255
255
0
0
0
0
0
0
255
255
255
0
0
0
0
0
0
0
0
0
255
255
255
0
0
0
0
0
0
0
0
0
255
255
255
0
0
0
0
0
0
0
0
0
0
0
0
255
255
255
0
0
0
0
0
0
0
0
0
255
255
255
0
0
0
0
0
0
0
0
0
0
0
0
0
0
0
255
255
255
0
0
0
0
0
0
0
0
0
0
0
0
255
255
255
0
0
0
0
0
0
0
0
0
0
0
0
255
255
255
0
0
0
0
0
0
0
0
0
255
255
255
0
0
0
255
255
255
0
0
0
0
0
0
0
0
0
0
0
0
255
255
255
0
0
0
0
0
0
0
0
0
0
0
0
255
255
255
0
0
0
0
0
0
0
0
0
0
0
0
255
255
255
0
0
0
255
255
255
0
0
0
255
255
255
0
0
0
0
0
0
0
0
0
255
255
255
0
0
0
0
0
0
0
0
0
255
255
255
0
0
0
0
0
0
0
0
0
0
0
0
255
255
255
0
0
0
0
0
0
0
0
0
255
255
255
0
0
0
0
0
0
0
0
0
0
0
0
0
0
0
255
255
255
0
0
0
0
0
0
0
0
0
0
0
0
255
255
255
0
0
0
0
0
0
0
0
0
0
0
0
255
255
255
0
0
0
0
0
0
0
0
0
255
255
255
0
0
0
255
255
255
0
0
0
0
0
0
0
0
0
0
0
0
255
255
255
0
0
0
0
0
0
0
0
0
0
0
0
255
255
255
255
255
255
255
255
255
0
0
0
0
0
0
255
255
255
0
0
0
255
255
255
0
0
0
255
255
255
0
0
0
0
0
0
0
0
0
255
255
255
0
0
0
0
0
0
0
0
0
255
255
255
255
255
255
255
255
255
0
0
0
0
0
0
255
255
255
255
255
255
255
255
255
255
255
255
0
0
0
0
0
0
0
0
0
0
0
0
0
0
0
0
0
0
255
255
255
0
0
0
0
0
0
0
0
0
0
0
0
255
255
255
255
255
255
255
255
255
0
0
0
0
0
0
255
255
255
0
0
0
0
0
0
0
0
0
255
255
255
0
0
0
255
255
255
255
255
255
255
255
255
0
0
0
0
0
0
255
255
255
0
0
0
0
0
0
0
0
0
0
0
0
255
255
255
0
0
0
0
0
0
0
0
0
0
0
0
255
255
255
0
0
0
0
0
0
255
255
255
255
255
255
0
0
0
0
0
0
0
0
0
255
255
255
0
0
0
0
0
0
0
0
0
255
255
255
0
0
0
0
0
0
0
0
0
0
0
0
255
255
255
0
0
0
255
255
255
0
0
0
0
0
0
0
0
0
0
0
0
0
0
0
0
0
0
0
0
0
255
255
255
0
0
0
0
0
0
0
0
0
0
0
0
255
255
255
0
0
0
0
0
0
0
0
0
0
0
0
255
255
255
0
0
0
0
0
0
0
0
0
255
255
255
0
0
0
255
255
255
0
0
0
0
0
0
0
0
0
0
0
0
255
255
255
0
0
0
0
0
0
0
0
0
0
0
0
255
255
255
0
0
0
0
0
0
0
0
0
0
0
0
255
255
255
0
0
0
0
0
0
0
0
0
255
255
255
0
0
0
0
0
0
0
0
0
255
255
255
0
0
0
0
0
0
0
0
0
255
255
255
0
0
0
0
0
0
0
0
0
0
0
0
255
255
255
0
0
0
0
0
0
255
255
255
0
0
0
0
0
0
0
0
0
0
0
0
0
0
0
0
0
0
255
255
255
0
0
0
0
0
0
0
0
0
0
0
0
255
255
255
0
0
0
0
0
0
0
0
0
0
0
0
0
0
0
255
255
255
0
0
0
255
255
255
0
0
0
0
0
0
255
255
255
0
0
0
0
0
0
0
0
0
0
0
0
255
255
255
0
0
0
0
0
0
0
0
0
0
0
0
255
255
255
255
255
255
255
255
255
255
255
255
0
0
0
255
255
255
0
0
0
0
0
0
0
0
0
255
255
255
0
0
0
0
0
0
0
0
0
255
255
255
0
0
0
0
0
0
0
0
0
255
255
255
255
255
255
255
255
255
255
255
255
0
0
0
255
255
255
0
0
0
0
0
0
0
0
0
255
255
255
0
0
0
0
0
0
0
0
0
0
0
0
0
0
0
255
255
255
255
255
255
255
255
255
255
255
255
0
0
0
255
255
255
255
255
255
255
255
255
255
255
255
0
0
0
0
0
0
0
0
0
255
255
255
0
0
0
0
0
0
0
0
0
255
255
255
255
255
255
255
255
255
255
255
255
0
0
0
255
255
255
255
255
255
255
255
255
255
255
255
0
0
0
0
0
0
0
0
0
0
0
0
0
0
0
0
0
0
0
0
0
0
0
0
0
0
0
0
0
0
0
0
0
0
0
0
0
0
0
0
0
0
0
0
0
0
0
0
0
0
0
0
0
0
0
0
0
0
0
0
0
0
0
0
0
0
0
0
0
0
0
0
0
0
0
0
0
0
0
0
0
0
0
0
0
0
0
0
0
0
0
0
0
0
0
0
0
0
0
0
0
0
0
0
0
0
0
0
0
0
0
0
0
0
0
0
0
0
0
0
0
0
0
0
0
0
0
0
0
0
0
0
0
0
0
0
0
0
0
0
0
0
0
0
0
0
0
0
0
0
0
0
0
0
0
0
0
0
0
0
0
0
0
0
0
0
0
0
0
0
0
0
0
0
0
0
0
0
0
0
0
0
0
0
0
0
0
0
0
0
0
0
0
0
0
0
0
0
0
0
0
0
0
0
0
0
0
0
0
0
0
0
0
0
0
0
0
0
0
0
0
0
0
0
0
0
0
0
0
0
0
0
0
0
0
0
0
0
0
0
0
0
0
0
0
0
0
0
0
0
0
0
0
0
0
0
0
0
0
0
0
0
0
0
0
0
0
0
0
0
0
0
0
0
0
0
0
0
0
0
0
0
0
0
0
0
0
0
0
0
0
0
0
0
0
0
0
0
0
0
0
0
0
0
0
0
0
0
0
0
0
0
0
0
0
0
0
0
0
0
0
0
0
0
0
0
0
0
0
0
0
0
0
0
0
0
0
0
0
0
0
0
0
0
0
0
0
0
0
0
0
0
0
0
0
0
0
0
0
0
0
0
0
0
0
0
0
0
0
0
0
0
0
0
0
0
0
0
0
0
0
0
0
0
0
0
0
0
0
0
0
0
0
0
0
0
0
0
0
0
0
0
0
0
0
0
0
0
0
0
0
0
0
0
0
0
0
0
0
0
0
0
0
0
0
0
0
0
0
0
0
0
0
0
0
0
0
0
0
0
0
0
0
0
0
0
0
0
0
0
0
0
0
0
0
0
0
0
0
0
0
0
0
0
0
0
0
0
0
0
0
0
0
0
0
0
0
0
0
0
0
0
0
0
0
0
0
0
0
0
0
0
0
0
0
0
0
0
0
0
0
0
0
0
0
0
0
0
0
0
0
0
0
0
0
0
0
0
0
0
0
0
0
0
0
255
255
255
255
255
255
255
255
255
255
255
255
255
255
255
0
0
0
0
0
0
255
255
255
255
255
255
255
255
255
0
0
0
0
0
0
0
0
0
0
0
0
0
0
0
0
0
0
255
255
255
255
255
255
255
255
255
255
255
255
255
255
255
0
0
0
0
0
0
255
255
255
255
255
255
0
0
0
0
0
0
0
0
0
0
0
0
0
0
0
255
255
255
255
255
255
255
255
255
255
255
255
0
0
0
0
0
0
255
255
255
0
0
0
0
0
0
0
0
0
0
0
0
0
0
0
0
0
0
255
255
255
0
0
0
0
0
0
0
0
0
255
255
255
0
0
0
0
0
0
0
0
0
255
255
255
0
0
0
0
0
0
0
0
0
0
0
0
255
255
255
255
255
255
0
0
0
0
0
0
255
255
255
0
0
0
0
0
0
0
0
0
0
0
0
255
255
255
0
0
0
0
0
0
255
255
255
0
0
0
0
0
0
0
0
0
0
0
0
0
0
0
0
0
0
0
0
0
255
255
255
0
0
0
0
0
0
0
0
0
255
255
255
0
0
0
0
0
0
255
255
255
0
0
0
0
0
0
0
0
0
0
0
0
255
255
255
0
0
0
0
0
0
0
0
0
255
255
255
0
0
0
255
255
255
0
0
0
0
0
0
0
0
0
0
0
0
0
0
0
255
255
255
0
0
0
255
255
255
0
0
0
0
0
0
255
255
255
0
0
0
0
0
0
0
0
0
255
255
255
0
0
0
0
0
0
0
0
0
0
0
0
255
255
255
255
255
255
0
0
0
0
0
0
255
255
255
0
0
0
0
0
0
0
0
0
0
0
0
255
255
255
0
0
0
0
0
0
0
0
0
255
255
255
0
0
0
0
0
0
0
0
0
0
0
0
0
0
0
0
0
0
255
255
255
0
0
0
0
0
0
0
0
0
255
255
255
0
0
0
0
0
0
255
255
255
0
0
0
0
0
0
0
0
0
0
0
0
255
255
255
0
0
0
0
0
0
0
0
0
255
255
255
0
0
0
255
255
255
0
0
0
0
0
0
0
0
0
0
0
0
255
255
255
0
0
0
0
0
0
0
0
0
255
255
255
0
0
0
0
0
0
255
255
255
0
0
0
255
255
255
0
0
0
0
0
0
0
0
0
0
0
0
0
0
0
255
255
255
255
255
255
0
0
0
0
0
0
255
255
255
0
0
0
0
0
0
0
0
0
0
0
0
255
255
255
0
0
0
0
0
0
0
0
0
255
255
255
0
0
0
0
0
0
0
0
0
0
0
0
0
0
0
0
0
0
255
255
255
0
0
0
0
0
0
0
0
0
255
255
255
0
0
0
0
0
0
255
255
255
0
0
0
0
0
0
0
0
0
0
0
0
255
255
255
255
255
255
255
255
255
255
255
255
0
0
0
0
0
0
255
255
255
0
0
0
0
0
0
0
0
0
0
0
0
255
255
255
0
0
0
0
0
0
0
0
0
255
255
255
0
0
0
0
0
0
255
255
255
0
0
0
255
255
255
0
0
0
0
0
0
0
0
0
0
0
0
0
0
0
0
0
0
0
0
0
0
0
0
0
0
0
255
255
255
0
0
0
0
0
0
0
0
0
0
0
0
255
255
255
0
0
0
0
0
0
0
0
0
255
255
255
0
0
0
0
0
0
0
0
0
0
0
0
0
0
0
0
0
0
255
255
255
0
0
0
0
0
0
0
0
0
255
255
255
0
0
0
0
0
0
255
255
255
0
0
0
0
0
0
0
0
0
0
0
0
255
255
255
0
0
0
0
0
0
0
0
0
0
0
0
0
0
0
255
255
255
0
0
0
0
0
0
0
0
0
0
0
0
255
255
255
255
255
255
255
255
255
255
255
255
255
255
255
0
0
0
0
0
0
0
0
0
255
255
255
0
0
0
0
0
0
0
0
0
0
0
0
0
0
0
0
0
0
255
255
255
255
255
255
0
0
0
0
0
0
255
255
255
0
0
0
0
0
0
0
0
0
0
0
0
255
255
255
0
0
0
0
0
0
255
255
255
0
0
0
0
0
0
0
0
0
0
0
0
0
0
0
0
0
0
0
0
0
255
255
255
0
0
0
0
0
0
0
0
0
255
255
255
0
0
0
0
0
0
255
255
255
0
0
0
0
0
0
0
0
0
0
0
0
255
255
255
0
0
0
0
0
0
0
0
0
0
0
0
0
0
0
255
255
255
0
0
0
0
0
0
0
0
0
0
0
0
255
255
255
0
0
0
0
0
0
0
0
0
255
255
255
0
0
0
0
0
0
0
0
0
255
255
255
0
0
0
0
0
0
0
0
0
0
0
0
0
0
0
0
0
0
255
255
255
255
255
255
255
255
255
255
255
255
255
255
255
255
255
255
255
255
255
0
0
0
0
0
0
255
255
255
255
255
255
255
255
255
0
0
0
0
0
0
0
0
0
0
0
0
0
0
0
0
0
0
0
0
0
0
0
0
255
255
255
0
0
0
0
0
0
0
0
0
0
0
0
255
255
255
255
255
255
0
0
0
0
0
0
0
0
0
0
0
0
0
0
0
255
255
255
0
0
0
0
0
0
0
0
0
0
0
0
0
0
0
255
255
255
255
255
255
255
255
255
255
255
255
0
0
0
255
255
255
0
0
0
0
0
0
0
0
0
255
255
255
0
0
0
0
0
0
0
0
0
255
255
255
0
0
0
0
0
0
0
0
0
0
0
0
0
0
0
0
0
0
255
255
255
255
255
255
