P3
65 17
255
0
0
0
0
0
0
0
0
0
0
0
0
0
0
0
0
0
0
0
0
0
0
0
0
0
0
0
0
0
0
0
0
0
0
0
0
0
0
0
0
0
0
0
0
0
0
0
0
0
0
0
0
0
0
0
0
0
0
0
0
0
0
0
0
0
0
0
0
0
0
0
0
0
0
0
0
0
0
0
0
0
0
0
0
0
0
0
0
0
0
0
0
0
0
0
0
0
0
0
0
0
0
0
0
0
0
0
0
0
0
0
0
0
0
0
0
0
0
0
0
0
0
0
0
0
0
0
0
0
0
0
0
0
0
0
0
0
0
0
0
0
0
0
0
0
0
0
0
0
0
0
0
0
0
0
0
0
0
0
0
0
0
0
0
0
8
8
8
4
4
4
0
0
0
0
0
0
21
21
21
13
13
13
0
0
0
0
0
0
0
0
0
0
0
0
0
0
0
255
255
255
255
255
255
255
255
255
255
255
255
255
255
255
255
255
255
36
36
36
255
255
255
255
255
255
255
255
255
255
255
255
255
255
255
255
255
255
10
10
10
255
255
255
255
255
255
255
255
255
255
255
255
255
255
255
255
255
255
15
15
15
255
255
255
255
255
255
255
255
255
255
255
255
15
15
15
0
0
0
0
0
0
255
255
255
255
255
255
255
255
255
255
255
255
255
255
255
255
255
255
0
0
0
0
0
0
255
255
255
255
255
255
255
255
255
255
255
255
0
0
0
0
0
0
255
255
255
255
255
255
0
0
0
7
7
7
34
34
34
255
255
255
255
255
255
0
0
0
255
255
255
255
255
255
255
255
255
255
255
255
255
255
255
255
255
255
0
0
0
0
0
0
255
255
255
255
255
255
0
0
0
0
0
0
0
0
0
0
0
0
0
0
0
255
255
255
255
255
255
255
255
255
255
255
255
255
255
255
255
255
255
11
11
11
255
255
255
255
255
255
255
255
255
255
255
255
255
255
255
255
255
255
18
18
18
255
255
255
255
255
255
255
255
255
255
255
255
255
255
255
255
255
255
9
9
9
255
255
255
255
255
255
255
255
255
255
255
255
255
255
255
2
2
2
10
10
10
255
255
255
255
255
255
255
255
255
255
255
255
255
255
255
255
255
255
23
23
23
255
255
255
255
255
255
255
255
255
255
255
255
255
255
255
255
255
255
19
19
19
255
255
255
255
255
255
255
255
255
55
55
55
255
255
255
255
255
255
255
255
255
0
0
0
255
255
255
255
255
255
255
255
255
255
255
255
255
255
255
255
255
255
21
21
21
0
0
0
255
255
255
255
255
255
0
0
0
0
0
0
0
0
0
0
0
0
0
0
0
255
255
255
255
255
255
0
0
0
0
0
0
0
0
0
0
0
0
0
0
0
255
255
255
255
255
255
0
0
0
26
26
26
255
255
255
255
255
255
0
0
0
255
255
255
255
255
255
0
0
0
0
0
0
255
255
255
255
255
255
0
0
0
255
255
255
255
255
255
4
4
4
5
5
5
255
255
255
255
255
255
30
30
30
255
255
255
255
255
255
0
0
0
0
0
0
0
0
0
0
0
0
0
0
0
255
255
255
255
255
255
0
0
0
0
0
0
255
255
255
255
255
255
7
7
7
255
255
255
255
255
255
255
255
255
31
31
31
255
255
255
255
255
255
255
255
255
0
0
0
255
255
255
255
255
255
17
17
17
19
19
19
11
11
11
23
23
23
0
0
0
0
0
0
255
255
255
255
255
255
0
0
0
0
0
0
0
0
0
0
0
0
0
0
0
255
255
255
255
255
255
0
0
0
0
0
0
0
0
0
0
0
0
0
0
0
255
255
255
255
255
255
0
0
0
0
0
0
255
255
255
255
255
255
16
16
16
255
255
255
255
255
255
0
0
0
0
0
0
255
255
255
255
255
255
5
5
5
255
255
255
255
255
255
0
0
0
0
0
0
255
255
255
255
255
255
0
0
0
255
255
255
255
255
255
0
0
0
23
23
23
40
40
40
0
0
0
0
0
0
255
255
255
255
255
255
0
0
0
0
0
0
255
255
255
255
255
255
8
8
8
255
255
255
255
255
255
11
11
11
255
255
255
24
24
24
255
255
255
255
255
255
0
0
0
255
255
255
255
255
255
37
37
37
0
0
0
0
0
0
0
0
0
0
0
0
0
0
0
255
255
255
255
255
255
0
0
0
0
0
0
0
0
0
0
0
0
0
0
0
255
255
255
255
255
255
38
38
38
255
255
255
255
255
255
255
255
255
0
0
0
255
255
255
255
255
255
0
0
0
0
0
0
255
255
255
255
255
255
11
11
11
255
255
255
255
255
255
0
0
0
0
0
0
255
255
255
255
255
255
1
1
1
255
255
255
255
255
255
0
0
0
0
0
0
255
255
255
255
255
255
0
0
0
255
255
255
255
255
255
0
0
0
255
255
255
255
255
255
255
255
255
0
0
0
255
255
255
255
255
255
0
0
0
0
0
0
255
255
255
255
255
255
10
10
10
255
255
255
255
255
255
0
0
0
255
255
255
35
35
35
255
255
255
255
255
255
0
0
0
255
255
255
255
255
255
44
44
44
7
7
7
2
2
2
4
4
4
0
0
0
0
0
0
255
255
255
255
255
255
0
0
0
0
0
0
0
0
0
0
0
0
0
0
0
255
255
255
255
255
255
25
25
25
255
255
255
255
255
255
255
255
255
0
0
0
255
255
255
255
255
255
0
0
0
0
0
0
255
255
255
255
255
255
0
0
0
255
255
255
255
255
255
0
0
0
0
0
0
255
255
255
255
255
255
4
4
4
255
255
255
255
255
255
0
0
0
0
0
0
255
255
255
255
255
255
0
0
0
255
255
255
255
255
255
0
0
0
255
255
255
255
255
255
255
255
255
0
0
0
255
255
255
255
255
255
255
255
255
255
255
255
255
255
255
255
255
255
12
12
12
255
255
255
255
255
255
0
0
0
255
255
255
25
25
25
255
255
255
255
255
255
19
19
19
255
255
255
255
255
255
255
255
255
255
255
255
255
255
255
255
255
255
0
0
0
0
0
0
255
255
255
255
255
255
0
0
0
0
0
0
0
0
0
0
0
0
0
0
0
255
255
255
255
255
255
0
0
0
3
3
3
255
255
255
255
255
255
0
0
0
255
255
255
255
255
255
0
0
0
0
0
0
255
255
255
255
255
255
0
0
0
255
255
255
255
255
255
0
0
0
0
0
0
255
255
255
255
255
255
12
12
12
255
255
255
255
255
255
0
0
0
0
0
0
255
255
255
255
255
255
0
0
0
255
255
255
255
255
255
0
0
0
0
0
0
255
255
255
255
255
255
0
0
0
255
255
255
255
255
255
255
255
255
255
255
255
255
255
255
255
255
255
3
3
3
255
255
255
255
255
255
0
0
0
0
0
0
3
3
3
255
255
255
255
255
255
0
0
0
255
255
255
255
255
255
255
255
255
255
255
255
255
255
255
255
255
255
0
0
0
0
0
0
255
255
255
255
255
255
0
0
0
0
0
0
0
0
0
0
0
0
0
0
0
255
255
255
255
255
255
0
0
0
23
23
23
255
255
255
255
255
255
0
0
0
255
255
255
255
255
255
0
0
0
0
0
0
255
255
255
255
255
255
0
0
0
255
255
255
255
255
255
0
0
0
0
0
0
255
255
255
255
255
255
0
0
0
255
255
255
255
255
255
0
0
0
0
0
0
255
255
255
255
255
255
0
0
0
255
255
255
255
255
255
26
26
26
58
58
58
255
255
255
255
255
255
0
0
0
255
255
255
255
255
255
0
0
0
0
0
0
255
255
255
255
255
255
0
0
0
255
255
255
255
255
255
0
0
0
0
0
0
5
5
5
255
255
255
255
255
255
18
18
18
255
255
255
255
255
255
42
42
42
29
29
29
0
0
0
0
0
0
0
0
0
0
0
0
18
18
18
28
28
28
0
0
0
0
0
0
0
0
0
0
0
0
0
0
0
255
255
255
255
255
255
0
0
0
47
47
47
255
255
255
255
255
255
15
15
15
255
255
255
255
255
255
0
0
0
0
0
0
255
255
255
255
255
255
0
0
0
255
255
255
255
255
255
0
0
0
0
0
0
255
255
255
255
255
255
0
0
0
255
255
255
242
242
242
0
0
0
0
0
0
255
255
255
255
255
255
0
0
0
255
255
255
255
255
255
36
36
36
38
38
38
255
255
255
255
255
255
22
22
22
255
255
255
255
255
255
0
0
0
0
0
0
255
255
255
255
255
255
3
3
3
255
255
255
247
247
247
0
0
0
0
0
0
4
4
4
255
255
255
255
255
255
24
24
24
255
255
255
255
255
255
0
0
0
0
0
0
0
0
0
0
0
0
0
0
0
0
0
0
2
2
2
9
9
9
0
0
0
0
0
0
0
0
0
0
0
0
0
0
0
255
255
255
255
255
255
255
255
255
255
255
255
255
255
255
255
255
255
6
6
6
255
255
255
255
255
255
255
255
255
255
255
255
255
255
255
255
255
255
0
0
0
255
255
255
255
255
255
255
255
255
255
255
255
255
255
255
255
255
255
0
0
0
255
255
255
255
255
255
255
255
255
255
255
255
255
255
255
12
12
12
0
0
0
255
255
255
255
255
255
255
255
255
255
255
255
255
255
255
255
255
255
25
25
25
255
255
255
255
255
255
0
0
0
0
0
0
255
255
255
255
255
255
26
26
26
255
255
255
247
247
247
0
0
0
0
0
0
8
8
8
255
255
255
255
255
255
25
25
25
255
255
255
255
255
255
255
255
255
255
255
255
255
255
255
255
255
255
0
0
0
0
0
0
9
9
9
0
0
0
0
0
0
0
0
0
0
0
0
0
0
0
0
0
0
255
255
255
255
255
255
255
255
255
255
255
255
255
255
255
255
255
255
14
14
14
255
255
255
255
255
255
255
255
255
255
255
255
255
255
255
255
255
255
0
0
0
255
255
255
255
255
255
255
255
255
255
255
255
255
255
255
255
255
255
0
0
0
255
255
255
255
255
255
255
255
255
255
255
255
20
20
20
0
0
0
0
0
0
255
255
255
255
255
255
255
255
255
255
255
255
255
255
255
255
255
255
0
0
0
255
255
255
255
255
255
0
0
0
0
0
0
255
255
255
255
255
255
23
23
23
255
255
255
255
255
255
0
0
0
0
0
0
19
19
19
255
255
255
255
255
255
0
0
0
255
255
255
255
255
255
255
255
255
255
255
255
255
255
255
255
255
255
0
0
0
0
0
0
255
255
255
255
255
255
32
32
32
0
0
0
0
0
0
0
0
0
0
0
0
0
0
0
0
0
0
0
0
0
0
0
0
0
0
0
0
0
0
0
0
0
0
0
0
0
0
0
0
0
0
0
0
0
0
0
0
0
0
0
0
0
0
0
0
0
0
0
0
0
0
0
0
0
0
0
0
0
0
0
0
0
0
0
0
0
0
0
0
0
0
0
0
0
0
0
0
0
0
0
0
0
0
0
0
0
0
0
0
0
0
0
0
0
0
0
0
0
0
0
0
0
0
0
0
0
0
0
0
0
0
0
0
0
0
0
0
0
0
0
0
0
0
0
0
0
0
0
0
0
0
0
0
0
0
0
0
0
0
0
0
0
0
0
0
0
0
0
0
0
0
0
0
0
0
0
0
0
0
0
0
0
0
0
0
0
0
0
0
0
0
0
0
0
0
0
0
0
0
0
0
0
0
0
0
0
0
0
0
0
0
0
0
0
0
0
0
0
0
0
0
0
0
0
0
0
0
0
0
0
0
0
0
0
0
0
0
0
0
0
0
0
0
0
0
0
0
0
0
0
0
0
0
0
0
0
0
0
0
0
0
0
0
0
0
0
0
0
0
0
0
0
0
0
0
0
0
0
0
0
0
0
0
0
0
0
0
0
0
0
0
0
0
0
0
0
0
0
0
0
0
0
0
0
0
0
0
0
0
0
0
0
0
0
0
0
0
0
0
0
0
0
0
0
0
0
0
0
0
0
0
0
0
0
0
0
0
0
0
0
0
0
0
0
0
0
0
0
0
0
0
0
0
0
0
0
0
0
0
0
0
0
0
0
0
0
0
0
0
0
0
0
0
0
0
0
0
0
0
0
0
0
0
0
0
0
0
0
0
0
0
0
0
0
0
0
0
0
0
0
0
0
0
0
0
0
0
0
0
0
0
0
0
0
0
0
0
0
0
0
0
0
0
0
0
0
0
0
0
0
0
0
0
0
0
0
0
0
0
0
0
0
0
0
0
0
0
0
0
0
0
0
0
0
0
0
0
0
0
0
0
0
0
0
0
0
0
0
0
0
0
0
0
0
0
0
0
0
0
0
0
0
0
0
0
0
0
0
0
0
0
0
0
0
0
0
0
0
0
0
0
0
0
0
0
0
0
0
0
0
0
0
0
0
0
0
0
0
0
0
0
0
0
0
0
0
0
0
0
0
0
0
0
0
0
0
0
0
0
0
0
0
0
0
0
0
0
0
0
0
0
0
0
0
0
0
0
0
0
0
0
0
0
0
0
0
0
0
0
0
0
0
0
0
0
0
0
0
0
0
0
0
0
0
0
0
0
0
0
0
0
0
0
0
0
0
0
0
0
0
0
0
0
0
0
0
0
0
0
0
0
0
0
0
0
0
0
0
0
0
0
0
0
0
0
0
0
0
0
0
0
0
0
0
0
0
0
0
0
0
0
0
0
0
0
0
0
0
0
0
0
0
0
0
0
0
0
0
0
0
0
0
0
0
0
0
0
0
0
0
0
0
0
0
0
0
0
0
0
0
0
0
0
0
0
0
0
0
0
0
0
0
0
0
0
0
0
0
0
0
0
0
0
0
0
0
0
0
0
0
0
0
0
0
0
0
0
0
0
0
0
0
0
0
0
0
0
0
0
0
0
0
0
0
0
0
0
0
0
0
0
0
0
0
0
0
0
0
0
0
0
0
0
0
0
0
0
0
0
0
0
0
0
0
0
0
0
0
0
0
0
0
0
0
0
0
0
0
0
0
0
0
0
0
0
0
0
0
0
0
0
0
0
0
0
0
0
0
0
0
0
0
0
0
0
0
0
0
0
0
0
0
0
0
0
0
0
0
0
0
0
0
0
0
0
0
0
0
0
0
0
0
0
0
0
0
0
0
0
0
0
0
0
0
0
0
0
0
0
0
0
0
0
0
0
0
0
0
0
0
0
0
0
0
0
0
0
0
0
0
0
0
0
0
0
0
0
0
0
0
0
0
0
0
0
0
0
0
0
0
0
0
0
0
0
0
0
0
0
0
0
0
0
0
0
0
0
0
0
0
0
0
0
0
0
0
0
0
0
0
0
0
0
0
0
0
0
0
0
0
0
0
0
0
0
0
0
0
0
0
0
0
0
0
0
0
0
0
0
0
0
0
0
0
0
0
0
0
0
0
0
0
0
0
0
0
0
0
0
0
0
0
0
0
0
0
0
0
0
0
0
0
0
0
0
0
0
0
0
0
0
0
0
