P3
30 7
255
0
40
240
0
0
0
0
0
0
0
0
0
0
0
0
0
0
0
0
0
0
0
0
0
0
0
0
5
5
5
0
0
0
12
12
12
27
27
27
0
0
0
0
0
0
0
0
0
0
0
0
0
0
0
0
0
0
0
0
0
0
0
0
16
16
16
11
11
11
0
0
0
0
0
0
0
0
0
0
0
0
0
0
0
0
0
0
0
38
234
0
0
0
1
1
1
3
3
3
237
237
237
3
3
3
8
8
8
238
238
238
12
12
12
24
24
24
228
228
228
230
230
230
238
238
238
226
226
226
0
0
0
6
6
6
227
227
227
8
8
8
0
0
0
0
0
0
0
0
0
0
0
0
8
8
8
240
240
240
237
237
237
247
247
247
233
233
233
9
9
9
0
0
0
0
0
0
0
5
68
8
8
8
2
2
2
3
3
3
236
236
236
0
0
0
0
0
0
234
234
234
0
0
0
0
0
0
245
245
245
0
0
0
14
14
14
12
12
12
0
0
0
8
8
8
239
239
239
0
0
0
0
0
0
0
0
0
0
0
0
0
0
0
5
5
5
231
231
231
0
0
0
16
16
16
224
224
224
0
0
0
0
0
0
0
0
0
0
0
0
6
6
6
3
3
3
0
0
0
0
0
0
234
234
234
234
234
234
0
0
0
0
0
0
0
0
0
243
243
243
233
233
233
236
236
236
242
242
242
5
5
5
14
14
14
235
235
235
0
0
0
0
0
0
0
0
0
0
0
0
0
0
0
13
13
13
241
241
241
231
231
231
235
235
235
233
233
233
10
10
10
0
0
0
0
0
0
0
0
0
5
5
5
7
7
7
9
9
9
230
230
230
3
3
3
1
1
1
237
237
237
0
0
0
0
0
0
233
233
233
15
15
15
6
6
6
0
0
0
0
0
0
5
5
5
225
225
225
0
0
0
0
0
0
0
0
0
0
0
0
0
0
0
0
0
0
234
234
234
14
14
14
4
4
4
6
6
6
0
0
0
0
0
0
0
0
0
0
0
0
14
14
14
14
14
14
7
7
7
231
231
231
11
11
11
1
1
1
237
237
237
0
0
0
0
0
0
243
243
243
228
228
228
238
238
238
232
232
232
10
10
10
0
0
0
225
225
225
213
213
213
218
218
218
206
206
206
13
13
13
0
0
0
12
12
12
238
238
238
0
0
0
0
0
0
0
0
0
0
0
0
0
0
0
0
0
0
0
0
0
0
38
234
0
0
0
4
4
4
0
0
0
0
0
0
0
0
0
0
0
0
0
0
0
0
0
0
0
0
0
17
17
17
0
0
0
0
0
0
0
0
0
0
0
0
0
0
0
0
0
0
0
0
0
0
0
0
0
0
0
0
0
0
0
0
0
0
0
0
0
0
0
0
0
0
0
0
0
0
0
0
0
0
0
0
18
139
0
36
224
