P3
20 10
255
255
255
255
255
255
255
255
255
255
255
255
255
0
0
0
0
0
0
0
0
0
0
0
0
0
0
0
0
0
0
0
0
0
0
0
0
0
0
0
0
0
0
0
0
0
37
37
37
255
255
255
255
255
255
255
255
255
255
255
255
255
255
255
0
0
0
0
0
0
0
0
0
0
0
0
13
13
13
255
255
255
17
17
17
14
14
14
0
0
0
0
0
0
15
15
15
255
255
255
30
30
30
0
0
0
0
0
0
0
0
0
0
0
0
0
0
0
255
255
255
255
255
255
0
0
0
0
0
0
0
0
0
0
0
0
5
5
5
255
255
255
255
255
255
7
7
7
11
11
11
0
0
0
0
0
0
255
255
255
2
2
2
0
0
0
0
0
0
0
0
0
0
0
0
0
0
0
255
255
255
255
255
255
0
0
0
0
0
0
0
0
0
0
0
0
7
7
7
252
252
252
12
12
12
253
253
253
12
12
12
4
4
4
0
0
0
255
255
255
0
0
0
0
0
0
0
0
0
0
0
0
0
0
0
0
0
0
255
255
255
255
255
255
0
0
0
0
0
0
0
0
0
0
0
0
9
9
9
255
255
255
1
1
1
24
24
24
255
255
255
6
6
6
1
1
1
255
255
255
1
1
1
0
0
0
0
0
0
0
0
0
0
0
0
0
0
0
255
255
255
255
255
255
0
0
0
0
0
0
0
0
0
0
0
0
17
17
17
255
255
255
1
1
1
15
15
15
14
14
14
255
255
255
8
8
8
255
255
255
3
3
3
0
0
0
0
0
0
0
0
0
0
0
0
0
0
0
255
255
255
255
255
255
0
0
0
0
0
0
0
0
0
0
0
0
8
8
8
250
250
250
3
3
3
0
0
0
15
15
15
13
13
13
243
243
243
255
255
255
2
2
2
0
0
0
0
0
0
0
0
0
0
0
0
0
0
0
255
255
255
255
255
255
0
0
0
0
0
0
0
0
0
1
1
1
19
19
19
251
251
251
2
2
2
0
0
0
0
0
0
6
6
6
16
16
16
249
249
249
12
12
12
0
0
0
0
0
0
0
0
0
0
0
0
0
0
0
255
255
255
255
255
255
0
0
0
0
0
0
0
0
0
1
1
1
0
0
0
22
22
22
0
0
0
0
0
0
0
0
0
0
0
0
0
0
0
2
2
2
11
11
11
0
0
0
0
0
0
0
0
0
0
0
0
0
0
0
255
255
255
255
255
255
255
255
255
255
255
255
255
255
255
0
0
0
0
0
0
0
0
0
0
0
0
0
0
0
0
0
0
0
0
0
0
0
0
0
0
0
0
0
0
0
0
0
0
0
0
255
255
255
255
255
255
255
255
255
255
255
255
