P3
20 10
255
255
255
255
255
255
255
255
255
255
255
255
255
0
0
0
0
0
0
3
3
3
15
15
15
1
1
1
13
13
13
12
12
12
12
12
12
17
17
17
0
0
0
0
0
0
17
17
17
255
255
255
255
255
255
255
255
255
255
255
255
255
255
255
6
6
6
6
6
6
2
2
2
0
0
0
0
0
0
0
0
0
25
25
25
255
255
255
255
255
255
255
255
255
255
255
255
4
4
4
0
0
0
0
0
0
2
2
2
0
0
0
24
24
24
26
26
26
255
255
255
255
255
255
4
4
4
0
0
0
0
0
0
0
0
0
0
0
0
0
0
0
11
11
11
255
255
255
24
24
24
17
17
17
6
6
6
255
255
255
6
6
6
0
0
0
0
0
0
0
0
0
6
6
6
6
6
6
255
255
255
255
255
255
7
7
7
0
0
0
0
0
0
1
1
1
0
0
0
0
0
0
16
16
16
255
255
255
28
28
28
14
14
14
14
14
14
255
255
255
13
13
13
0
0
0
0
0
0
0
0
0
0
0
0
2
2
2
255
255
255
255
255
255
5
5
5
0
0
0
0
0
0
1
1
1
0
0
0
0
0
0
8
8
8
255
255
255
255
255
255
245
245
245
244
244
244
16
16
16
19
19
19
0
0
0
0
0
0
0
0
0
0
0
0
2
2
2
255
255
255
255
255
255
2
2
2
0
0
0
0
0
0
0
0
0
0
0
0
0
0
0
4
4
4
255
255
255
0
0
0
0
0
0
26
26
26
255
255
255
0
0
0
0
0
0
0
0
0
0
0
0
0
0
0
1
1
1
255
255
255
255
255
255
3
3
3
0
0
0
0
0
0
1
1
1
0
0
0
0
0
0
8
8
8
255
255
255
0
0
0
0
0
0
17
17
17
255
255
255
12
12
12
0
0
0
0
0
0
0
0
0
0
0
0
0
0
0
255
255
255
255
255
255
2
2
2
1
1
1
0
0
0
0
0
0
1
1
1
0
0
0
28
28
28
255
255
255
255
255
255
255
255
255
255
255
255
13
13
13
6
6
6
0
0
0
0
0
0
0
0
0
0
0
0
0
0
0
255
255
255
255
255
255
18
18
18
4
4
4
0
0
0
0
0
0
0
0
0
0
0
0
3
3
3
11
11
11
18
18
18
5
5
5
3
3
3
2
2
2
0
0
0
0
0
0
0
0
0
7
7
7
3
3
3
1
1
1
255
255
255
255
255
255
255
255
255
255
255
255
255
255
255
9
9
9
0
0
0
0
0
0
9
9
9
2
2
2
0
0
0
0
0
0
0
0
0
0
0
0
0
0
0
0
0
0
6
6
6
255
255
255
255
255
255
255
255
255
255
255
255
