P3
26 7
255
0
0
0
0
0
0
174
174
174
0
0
0
0
0
0
0
0
0
5
5
5
128
128
128
12
12
12
0
0
0
0
0
0
0
0
0
0
0
0
0
0
0
158
158
158
9
9
9
0
0
0
0
0
0
0
0
0
0
0
0
0
0
0
0
0
0
127
127
127
0
0
0
0
0
0
0
0
0
23
23
23
174
174
174
190
190
190
158
158
158
0
0
0
0
0
0
0
0
0
158
158
158
1
1
1
0
0
0
0
0
0
0
0
0
0
0
0
167
167
167
0
0
0
0
0
0
0
0
0
0
0
0
0
0
0
0
0
0
0
0
0
0
0
0
14
14
14
174
174
174
13
13
13
0
0
0
158
158
158
0
0
0
184
184
184
16
16
16
158
158
158
0
0
0
0
0
0
158
158
158
0
0
0
0
0
0
0
0
0
14
14
14
159
159
159
19
19
19
0
0
0
0
0
0
0
0
0
0
0
0
0
0
0
19
19
19
13
13
13
0
0
0
0
0
0
0
0
0
159
159
159
12
12
12
0
0
0
0
0
0
166
166
166
0
0
0
0
0
0
0
0
0
0
0
0
144
144
144
0
0
0
0
0
0
0
0
0
142
142
142
168
168
168
169
169
169
144
144
144
127
127
127
174
174
174
174
174
174
0
0
0
188
188
188
194
194
194
211
211
211
218
218
218
201
201
201
215
215
215
191
191
191
0
0
0
0
0
0
184
184
184
0
0
0
0
0
0
158
158
158
18
18
18
166
166
166
0
0
0
174
174
174
0
0
0
0
0
0
158
158
158
0
0
0
0
0
0
0
0
0
0
0
0
0
0
0
0
0
0
0
0
0
0
0
0
0
0
0
0
0
0
0
0
0
174
174
174
0
0
0
0
0
0
9
9
9
178
178
178
0
0
0
0
0
0
0
0
0
127
127
127
166
166
166
174
174
174
0
0
0
0
0
0
0
0
0
22
22
22
158
158
158
21
21
21
0
0
0
0
0
0
0
0
0
0
0
0
0
0
0
0
0
0
0
0
0
0
0
0
174
174
174
0
0
0
0
0
0
0
0
0
0
0
0
158
158
158
0
0
0
0
0
0
0
0
0
0
0
0
127
127
127
0
0
0
0
0
0
0
0
0
0
0
0
0
0
0
0
0
0
158
158
158
0
0
0
0
0
0
0
0
0
0
0
0
0
0
0
0
0
0
10
10
10
145
145
145
0
0
0
0
0
0
0
0
0
