P3
20 7
255
255
255
255
0
0
0
0
0
0
14
14
14
255
255
255
255
255
255
255
255
255
23
23
23
255
255
255
0
0
0
255
255
255
13
13
13
255
255
255
255
255
255
255
255
255
17
17
17
255
255
255
8
8
8
7
7
7
3
3
3
255
255
255
0
0
0
0
0
0
7
7
7
255
255
255
0
0
0
0
0
0
0
0
0
255
255
255
0
0
0
255
255
255
1
1
1
255
255
255
19
19
19
0
0
0
0
0
0
255
255
255
0
0
0
0
0
0
0
0
0
255
255
255
0
0
0
0
0
0
0
0
0
255
255
255
0
0
0
0
0
0
0
0
0
255
255
255
0
0
0
255
255
255
0
0
0
255
255
255
16
16
16
0
0
0
0
0
0
255
255
255
9
9
9
0
0
0
255
255
255
255
255
255
0
0
0
0
0
0
0
0
0
255
255
255
255
255
255
255
255
255
0
0
0
255
255
255
0
0
0
255
255
255
3
3
3
255
255
255
255
255
255
255
255
255
15
15
15
255
255
255
0
0
0
3
3
3
17
17
17
255
255
255
0
0
0
0
0
0
0
0
0
255
255
255
0
0
0
0
0
0
6
6
6
255
255
255
0
0
0
255
255
255
1
1
1
255
255
255
0
0
0
20
20
20
0
0
0
255
255
255
2
2
2
0
0
0
255
255
255
255
255
255
27
27
27
0
0
0
0
0
0
255
255
255
0
0
0
0
0
0
6
6
6
255
255
255
26
26
26
246
246
246
2
2
2
255
255
255
0
0
0
0
0
0
0
0
0
255
255
255
8
8
8
0
0
0
0
0
0
255
255
255
255
255
255
255
255
255
0
0
0
255
255
255
255
255
255
255
255
255
7
7
7
0
0
0
255
255
255
16
16
16
0
0
0
255
255
255
255
255
255
255
255
255
4
4
4
255
255
255
255
255
255
255
255
255
6
6
6
