P3
19 7
255
255
255
255
2
2
2
0
0
0
0
0
0
255
255
255
6
6
6
255
255
255
255
255
255
255
255
255
0
0
0
255
255
255
6
6
6
14
14
14
17
17
17
255
255
255
5
5
5
255
255
255
255
255
255
255
255
255
255
255
255
255
255
255
0
0
0
255
255
255
255
255
255
1
1
1
255
255
255
0
0
0
255
255
255
2
2
2
255
255
255
1
1
1
4
4
4
9
9
9
255
255
255
2
2
2
255
255
255
7
7
7
0
0
0
255
255
255
0
0
0
255
255
255
0
0
0
255
255
255
3
3
3
255
255
255
0
0
0
255
255
255
5
5
5
255
255
255
0
0
0
3
3
3
9
9
9
255
255
255
8
8
8
255
255
255
3
3
3
0
0
0
255
255
255
0
0
0
255
255
255
3
3
3
255
255
255
0
0
0
255
255
255
0
0
0
255
255
255
1
1
1
255
255
255
0
0
0
3
3
3
22
22
22
255
255
255
0
0
0
251
251
251
255
255
255
255
255
255
255
255
255
0
0
0
255
255
255
4
4
4
255
255
255
0
0
0
255
255
255
0
0
0
255
255
255
1
1
1
1
1
1
255
255
255
15
15
15
255
255
255
5
5
5
0
0
0
255
255
255
8
8
8
4
4
4
255
255
255
0
0
0
0
0
0
0
0
0
255
255
255
0
0
0
255
255
255
0
0
0
255
255
255
4
4
4
1
1
1
0
0
0
255
255
255
0
0
0
0
0
0
0
0
0
255
255
255
6
6
6
0
0
0
255
255
255
0
0
0
0
0
0
0
0
0
255
255
255
0
0
0
255
255
255
255
255
255
255
255
255
12
12
12
0
0
0
8
8
8
255
255
255
1
1
1
0
0
0
0
0
0
255
255
255
255
255
255
255
255
255
