P3
30 7
255
18
0
253
0
0
0
255
255
255
255
255
255
255
255
255
255
255
255
4
4
4
255
255
255
255
255
255
255
255
255
255
255
255
7
7
7
255
255
255
255
255
255
255
255
255
255
255
255
0
0
0
255
255
255
255
255
255
255
255
255
255
255
255
0
0
0
255
255
255
255
255
255
255
255
255
255
255
255
255
255
255
0
0
0
0
0
0
18
0
253
0
0
0
5
5
5
255
255
255
3
3
3
7
7
7
255
255
255
10
10
10
255
255
255
13
13
13
0
0
0
0
0
0
4
4
4
255
255
255
0
0
0
0
0
0
0
0
0
0
0
0
255
255
255
0
0
0
0
0
0
0
0
0
0
0
0
0
0
0
0
0
0
255
255
255
17
17
17
0
0
0
0
0
0
0
0
0
0
0
0
0
0
0
1
1
1
255
255
255
12
12
12
3
3
3
255
255
255
13
13
13
255
255
255
13
13
13
0
0
0
0
0
0
5
5
5
255
255
255
12
12
12
0
0
0
0
0
0
0
0
0
255
255
255
0
0
0
0
0
0
0
0
0
0
0
0
0
0
0
0
0
0
255
255
255
0
0
0
0
0
0
0
0
0
0
0
0
0
0
0
0
0
0
4
4
4
255
255
255
255
255
255
255
255
255
255
255
255
23
23
23
255
255
255
255
255
255
255
255
255
255
255
255
2
2
2
255
255
255
255
255
255
255
255
255
255
255
255
0
0
0
255
255
255
255
255
255
255
255
255
255
255
255
8
8
8
0
0
0
0
0
0
255
255
255
10
10
10
0
0
0
0
0
0
0
0
0
0
0
0
0
0
0
2
2
2
255
255
255
255
255
255
7
7
7
0
0
0
5
5
5
255
255
255
0
0
0
0
0
0
0
0
0
0
0
0
0
0
0
9
9
9
12
12
12
255
255
255
0
0
0
255
255
255
9
9
9
0
0
0
0
0
0
0
0
0
0
0
0
0
0
0
255
255
255
0
0
0
0
0
0
0
0
0
0
0
0
0
0
0
0
0
0
8
8
8
255
255
255
2
2
2
255
255
255
23
23
23
0
0
0
255
255
255
4
4
4
5
5
5
0
0
0
2
2
2
6
6
6
13
13
13
0
0
0
255
255
255
0
0
0
255
255
255
0
0
0
0
0
0
0
0
0
0
0
0
0
0
0
0
0
0
255
255
255
0
0
0
0
0
0
0
0
0
0
0
0
0
0
0
18
0
254
0
0
0
255
255
255
0
0
0
0
0
0
255
255
255
0
0
0
255
255
255
255
255
255
255
255
255
255
255
255
0
0
0
255
255
255
255
255
255
255
255
255
255
255
255
9
9
9
255
255
255
255
255
255
255
255
255
255
255
255
6
6
6
0
0
0
0
0
0
255
255
255
0
0
0
0
0
0
0
0
0
0
0
0
18
0
254
