P3
30 10
255
0
0
0
14
14
14
0
0
0
0
0
0
0
0
0
0
0
0
0
0
0
0
0
0
0
0
0
2
2
2
8
8
8
6
6
6
10
10
10
0
0
0
0
0
0
0
0
0
0
0
0
0
0
0
0
0
0
0
0
0
0
0
0
0
0
0
0
0
0
0
0
0
0
0
0
1
1
1
3
3
3
0
0
0
0
0
0
0
0
0
0
0
0
255
255
255
10
10
10
0
0
0
0
0
0
0
0
0
9
9
9
255
255
255
0
0
0
255
255
255
255
255
255
255
255
255
255
255
255
7
7
7
255
255
255
6
6
6
6
6
6
2
2
2
0
0
0
21
21
21
255
255
255
0
0
0
255
255
255
255
255
255
255
255
255
255
255
255
255
255
255
1
1
1
1
1
1
10
10
10
0
0
0
255
255
255
255
255
255
22
22
22
0
0
0
0
0
0
20
20
20
255
255
255
0
0
0
255
255
255
2
2
2
0
0
0
0
0
0
0
0
0
0
0
0
255
255
255
18
18
18
2
2
2
23
23
23
255
255
255
20
20
20
0
0
0
6
6
6
0
0
0
255
255
255
0
0
0
0
0
0
4
4
4
0
0
0
0
0
0
0
0
0
255
255
255
0
0
0
255
255
255
0
0
0
0
0
0
0
0
0
255
255
255
0
0
0
255
255
255
20
20
20
0
0
0
0
0
0
0
0
0
0
0
0
0
0
0
255
255
255
22
22
22
255
255
255
2
2
2
0
0
0
3
3
3
0
0
0
0
0
0
255
255
255
16
16
16
0
0
0
13
13
13
1
1
1
0
0
0
8
8
8
255
255
255
0
0
0
0
0
0
255
255
255
0
0
0
0
0
0
255
255
255
0
0
0
255
255
255
255
255
255
255
255
255
255
255
255
5
5
5
5
5
5
0
0
0
0
0
0
255
255
255
11
11
11
6
6
6
8
8
8
0
0
0
0
0
0
0
0
0
255
255
255
5
5
5
0
0
0
11
11
11
1
1
1
0
0
0
26
26
26
255
255
255
0
0
0
0
0
0
0
0
0
255
255
255
0
0
0
255
255
255
0
0
0
249
249
249
16
16
16
0
0
0
0
0
0
0
0
0
0
0
0
0
0
0
255
255
255
16
16
16
255
255
255
12
12
12
4
4
4
4
4
4
0
0
0
0
0
0
255
255
255
10
10
10
0
0
0
5
5
5
1
1
1
0
0
0
0
0
0
255
255
255
0
0
0
0
0
0
0
0
0
27
27
27
255
255
255
255
255
255
0
0
0
255
255
255
22
22
22
0
0
0
0
0
0
0
0
0
0
0
0
255
255
255
0
0
0
0
0
0
0
0
0
255
255
255
14
14
14
6
6
6
1
1
1
0
0
0
255
255
255
19
19
19
0
0
0
2
2
2
5
5
5
0
0
0
0
0
0
255
255
255
0
0
0
0
0
0
0
0
0
17
17
17
22
22
22
255
255
255
0
0
0
255
255
255
255
255
255
255
255
255
255
255
255
5
5
5
255
255
255
0
0
0
0
0
0
3
3
3
0
0
0
0
0
0
255
255
255
0
0
0
0
0
0
10
10
10
255
255
255
0
0
0
0
0
0
5
5
5
0
0
0
0
0
0
0
0
0
18
18
18
0
0
0
0
0
0
0
0
0
0
0
0
10
10
10
13
13
13
0
0
0
26
26
26
9
9
9
11
11
11
13
13
13
0
0
0
17
17
17
0
0
0
0
0
0
0
0
0
0
0
0
0
0
0
0
0
0
0
0
0
0
0
0
0
0
0
24
24
24
0
0
0
0
0
0
0
0
0
0
0
0
0
0
0
0
0
0
0
0
0
0
0
0
0
0
0
0
0
0
0
0
0
0
0
0
0
0
0
0
0
0
0
0
0
0
0
0
0
0
0
0
0
0
0
0
0
0
0
0
0
0
0
0
0
0
0
0
0
0
0
0
0
0
0
0
0
0
0
0
0
0
0
0
0
0
0
0
0
0
0
0
0
0
0
0
0
0
0
0
0
0
0
0
0
