P3
30 7
255
255
255
255
255
255
255
255
255
255
3
3
3
0
0
0
0
0
0
255
255
255
245
245
245
0
0
0
0
0
0
255
255
255
0
0
0
0
0
0
255
255
255
0
0
0
255
255
255
255
255
255
255
255
255
255
255
255
0
0
0
255
255
255
255
255
255
255
255
255
0
0
0
0
0
0
4
4
4
21
21
21
255
255
255
10
10
10
255
255
255
255
255
255
0
0
0
0
0
0
255
255
255
0
0
0
255
255
255
0
0
0
0
0
0
255
255
255
0
0
0
255
255
255
0
0
0
0
0
0
255
255
255
14
14
14
255
255
255
0
0
0
0
0
0
0
0
0
0
0
0
255
255
255
3
3
3
0
0
0
0
0
0
0
0
0
1
1
1
1
1
1
255
255
255
28
28
28
255
255
255
255
255
255
0
0
0
1
1
1
255
255
255
5
5
5
255
255
255
0
0
0
0
0
0
241
241
241
0
0
0
255
255
255
0
0
0
0
0
0
255
255
255
6
6
6
255
255
255
16
16
16
7
7
7
0
0
0
0
0
0
255
255
255
7
7
7
0
0
0
0
0
0
0
0
0
1
1
1
2
2
2
255
255
255
14
14
14
255
255
255
255
255
255
255
255
255
255
255
255
10
10
10
0
0
0
255
255
255
255
255
255
255
255
255
255
255
255
0
0
0
255
255
255
0
0
0
7
7
7
255
255
255
0
0
0
255
255
255
255
255
255
255
255
255
255
255
255
6
6
6
255
255
255
255
255
255
255
255
255
0
0
0
0
0
0
0
0
0
0
0
0
255
255
255
0
0
0
255
255
255
255
255
255
0
0
0
0
0
0
0
0
0
0
0
0
255
255
255
17
17
17
0
0
0
241
241
241
0
0
0
255
255
255
0
0
0
11
11
11
255
255
255
0
0
0
0
0
0
0
0
0
0
0
0
255
255
255
3
3
3
255
255
255
7
7
7
0
0
0
0
0
0
0
0
0
0
0
0
0
0
0
255
255
255
0
0
0
255
255
255
255
255
255
0
0
0
0
0
0
0
0
0
0
0
0
255
255
255
0
0
0
0
0
0
255
255
255
0
0
0
255
255
255
0
0
0
16
16
16
255
255
255
0
0
0
0
0
0
0
0
0
0
0
0
255
255
255
6
6
6
255
255
255
7
7
7
0
0
0
0
0
0
2
2
2
0
0
0
0
0
0
255
255
255
0
0
0
255
255
255
255
255
255
0
0
0
0
0
0
0
0
0
0
0
0
255
255
255
0
0
0
0
0
0
255
255
255
0
0
0
0
0
0
255
255
255
255
255
255
0
0
0
0
0
0
255
255
255
255
255
255
255
255
255
255
255
255
0
0
0
255
255
255
255
255
255
255
255
255
6
6
6
2
2
2
2
2
2
0
0
0
255
255
255
0
0
0
255
255
255
