P3
54 7
255
255
255
255
255
255
255
255
255
255
255
255
255
0
0
0
255
255
255
14
14
14
0
0
0
0
0
0
0
0
0
255
255
255
255
255
255
0
0
0
0
0
0
255
255
255
255
255
255
255
255
255
20
20
20
255
255
255
255
255
255
255
255
255
0
0
0
255
255
255
24
24
24
0
0
0
23
23
23
255
255
255
0
0
0
0
0
0
255
255
255
245
245
245
27
27
27
7
7
7
255
255
255
255
255
255
255
255
255
255
255
255
3
3
3
11
11
11
255
255
255
0
0
0
0
0
0
11
11
11
255
255
255
0
0
0
255
255
255
255
255
255
255
255
255
4
4
4
255
255
255
255
255
255
255
255
255
255
255
255
10
10
10
255
255
255
27
27
27
29
29
29
255
255
255
8
8
8
255
255
255
6
6
6
0
0
0
0
0
0
255
255
255
20
20
20
18
18
18
255
255
255
0
0
0
255
255
255
14
14
14
0
0
0
0
0
0
255
255
255
16
16
16
0
0
0
0
0
0
255
255
255
255
255
255
0
0
0
255
255
255
255
255
255
0
0
0
255
255
255
13
13
13
0
0
0
255
255
255
4
4
4
255
255
255
20
20
20
14
14
14
255
255
255
5
5
5
8
8
8
255
255
255
0
0
0
9
9
9
255
255
255
0
0
0
0
0
0
255
255
255
25
25
25
0
0
0
10
10
10
255
255
255
10
10
10
22
22
22
255
255
255
11
11
11
255
255
255
25
25
25
17
17
17
255
255
255
18
18
18
255
255
255
5
5
5
0
0
0
0
0
0
255
255
255
14
14
14
9
9
9
255
255
255
0
0
0
255
255
255
1
1
1
0
0
0
0
0
0
255
255
255
14
14
14
0
0
0
0
0
0
255
255
255
29
29
29
255
255
255
12
12
12
255
255
255
0
0
0
255
255
255
5
5
5
0
0
0
255
255
255
10
10
10
255
255
255
31
31
31
12
12
12
255
255
255
5
5
5
12
12
12
255
255
255
22
22
22
255
255
255
14
14
14
0
0
0
0
0
0
255
255
255
12
12
12
0
0
0
0
0
0
255
255
255
17
17
17
16
16
16
255
255
255
13
13
13
255
255
255
255
255
255
255
255
255
255
255
255
0
0
0
255
255
255
1
1
1
0
0
0
0
0
0
246
246
246
255
255
255
255
255
255
255
255
255
0
0
0
255
255
255
3
3
3
0
0
0
0
0
0
255
255
255
255
255
255
255
255
255
0
0
0
255
255
255
20
20
20
236
236
236
25
25
25
255
255
255
0
0
0
255
255
255
255
255
255
255
255
255
255
255
255
25
25
25
255
255
255
255
255
255
255
255
255
255
255
255
6
6
6
17
17
17
255
255
255
255
255
255
4
4
4
0
0
0
0
0
0
0
0
0
255
255
255
255
255
255
255
255
255
5
5
5
255
255
255
255
255
255
255
255
255
255
255
255
12
12
12
255
255
255
0
0
0
0
0
0
13
13
13
0
0
0
255
255
255
7
7
7
0
0
0
0
0
0
255
255
255
20
20
20
13
13
13
255
255
255
0
0
0
255
255
255
2
2
2
0
0
0
0
0
0
255
255
255
17
17
17
0
0
0
0
0
0
255
255
255
10
10
10
17
17
17
20
20
20
238
238
238
19
19
19
244
244
244
25
25
25
10
10
10
255
255
255
9
9
9
255
255
255
23
23
23
255
255
255
0
0
0
0
0
0
0
0
0
255
255
255
20
20
20
255
255
255
16
16
16
0
0
0
0
0
0
255
255
255
15
15
15
9
9
9
1
1
1
255
255
255
25
25
25
255
255
255
9
9
9
0
0
0
255
255
255
0
0
0
0
0
0
0
0
0
0
0
0
255
255
255
0
0
0
0
0
0
0
0
0
255
255
255
0
0
0
0
0
0
245
245
245
0
0
0
242
242
242
7
7
7
12
12
12
4
4
4
255
255
255
17
17
17
0
0
0
0
0
0
255
255
255
11
11
11
4
4
4
8
8
8
223
223
223
25
25
25
244
244
244
0
0
0
0
0
0
255
255
255
7
7
7
255
255
255
6
6
6
0
0
0
255
255
255
0
0
0
0
0
0
255
255
255
0
0
0
22
22
22
255
255
255
0
0
0
0
0
0
255
255
255
17
17
17
0
0
0
0
0
0
255
255
255
7
7
7
0
0
0
255
255
255
0
0
0
255
255
255
0
0
0
0
0
0
0
0
0
0
0
0
232
232
232
255
255
255
255
255
255
0
0
0
255
255
255
0
0
0
0
0
0
255
255
255
16
16
16
255
255
255
255
255
255
255
255
255
14
14
14
255
255
255
255
255
255
255
255
255
0
0
0
255
255
255
12
12
12
0
0
0
0
0
0
255
255
255
0
0
0
255
255
255
0
0
0
0
0
0
255
255
255
28
28
28
255
255
255
13
13
13
6
6
6
20
20
20
255
255
255
0
0
0
255
255
255
11
11
11
0
0
0
9
9
9
255
255
255
0
0
0
255
255
255
255
255
255
255
255
255
12
12
12
255
255
255
9
9
9
0
0
0
25
25
25
255
255
255
