P3
29 7
255
24
24
24
255
255
255
255
255
255
255
255
255
255
255
255
0
0
0
13
13
13
11
11
11
0
0
0
255
255
255
0
0
0
11
11
11
0
0
0
7
7
7
255
255
255
0
0
0
0
0
0
255
255
255
255
255
255
255
255
255
244
244
244
255
255
255
0
0
0
0
0
0
255
255
255
255
255
255
255
255
255
255
255
255
255
255
255
255
255
255
25
25
25
0
0
0
17
17
17
0
0
0
255
255
255
6
6
6
3
3
3
0
0
0
255
255
255
0
0
0
14
14
14
0
0
0
3
3
3
255
255
255
0
0
0
0
0
0
0
0
0
0
0
0
255
255
255
0
0
0
19
19
19
0
0
0
0
0
0
0
0
0
0
0
0
255
255
255
0
0
0
0
0
0
255
255
255
13
13
13
0
0
0
3
3
3
0
0
0
255
255
255
11
11
11
3
3
3
0
0
0
255
255
255
0
0
0
14
14
14
0
0
0
3
3
3
255
255
255
0
0
0
0
0
0
0
0
0
0
0
0
255
255
255
0
0
0
0
0
0
0
0
0
0
0
0
0
0
0
0
0
0
255
255
255
0
0
0
0
0
0
255
255
255
0
0
0
0
0
0
3
3
3
0
0
0
255
255
255
3
3
3
1
1
1
0
0
0
255
255
255
0
0
0
12
12
12
0
0
0
8
8
8
255
255
255
0
0
0
0
0
0
0
0
0
0
0
0
255
255
255
0
0
0
0
0
0
0
0
0
0
0
0
0
0
0
0
0
0
255
255
255
0
0
0
0
0
0
255
255
255
0
0
0
0
0
0
3
3
3
2
2
2
255
255
255
4
4
4
0
0
0
13
13
13
255
255
255
0
0
0
11
11
11
2
2
2
0
0
0
255
255
255
0
0
0
0
0
0
0
0
0
0
0
0
255
255
255
0
0
0
0
0
0
0
0
0
0
0
0
0
0
0
0
0
0
255
255
255
0
0
0
0
0
0
255
255
255
0
0
0
0
0
0
15
15
15
2
2
2
255
255
255
15
15
15
1
1
1
19
19
19
255
255
255
2
2
2
7
7
7
0
0
0
0
0
0
255
255
255
0
0
0
0
0
0
0
0
0
0
0
0
227
227
227
0
0
0
0
0
0
0
0
0
0
0
0
0
0
0
0
0
0
255
255
255
0
0
0
0
0
0
255
255
255
255
255
255
255
255
255
255
255
255
255
255
255
255
255
255
255
255
255
12
12
12
13
13
13
6
6
6
255
255
255
255
255
255
255
255
255
255
255
255
28
28
28
0
0
0
0
0
0
255
255
255
255
255
255
255
255
255
255
255
255
255
255
255
0
0
0
0
0
0
0
0
0
0
0
0
255
255
255
0
0
0
0
0
0
