P3
60 7
255
255
255
255
255
255
255
255
255
255
255
255
255
3
3
3
0
0
0
255
255
255
255
255
255
255
255
255
9
9
9
255
255
255
11
11
11
0
0
0
0
0
0
255
255
255
11
11
11
255
255
255
255
255
255
255
255
255
255
255
255
0
0
0
255
255
255
4
4
4
0
0
0
9
9
9
255
255
255
0
0
0
255
255
255
255
255
255
255
255
255
17
17
17
255
255
255
19
19
19
7
7
7
29
29
29
255
255
255
0
0
0
30
30
30
255
255
255
255
255
255
0
0
0
0
0
0
255
255
255
255
255
255
255
255
255
255
255
255
0
0
0
255
255
255
12
12
12
21
21
21
255
255
255
0
0
0
255
255
255
255
255
255
255
255
255
13
13
13
255
255
255
255
255
255
255
255
255
255
255
255
255
255
255
0
0
0
0
0
0
255
255
255
0
0
0
0
0
0
255
255
255
25
25
25
0
0
0
0
0
0
255
255
255
255
255
255
18
18
18
255
255
255
255
255
255
5
5
5
255
255
255
23
23
23
0
0
0
255
255
255
8
8
8
255
255
255
7
7
7
0
0
0
5
5
5
255
255
255
0
0
0
255
255
255
21
21
21
0
0
0
0
0
0
255
255
255
252
252
252
42
42
42
244
244
244
255
255
255
18
18
18
255
255
255
8
8
8
0
0
0
255
255
255
0
0
0
255
255
255
6
6
6
36
36
36
255
255
255
0
0
0
255
255
255
5
5
5
23
23
23
255
255
255
0
0
0
255
255
255
12
12
12
1
1
1
5
5
5
255
255
255
3
3
3
2
2
2
255
255
255
255
255
255
3
3
3
20
20
20
255
255
255
0
0
0
0
0
0
255
255
255
17
17
17
0
0
0
0
0
0
255
255
255
16
16
16
255
255
255
30
30
30
255
255
255
0
0
0
255
255
255
0
0
0
0
0
0
255
255
255
0
0
0
255
255
255
3
3
3
3
3
3
0
0
0
255
255
255
0
0
0
255
255
255
8
8
8
13
13
13
0
0
0
244
244
244
15
15
15
255
255
255
26
26
26
255
255
255
21
21
21
255
255
255
0
0
0
0
0
0
255
255
255
0
0
0
255
255
255
8
8
8
26
26
26
255
255
255
0
0
0
255
255
255
25
25
25
255
255
255
7
7
7
0
0
0
255
255
255
8
8
8
0
0
0
7
7
7
255
255
255
27
27
27
6
6
6
255
255
255
255
255
255
255
255
255
255
255
255
252
252
252
10
10
10
0
0
0
255
255
255
255
255
255
255
255
255
20
20
20
255
255
255
1
1
1
255
255
255
10
10
10
255
255
255
0
0
0
255
255
255
0
0
0
0
0
0
255
255
255
10
10
10
255
255
255
2
2
2
2
2
2
4
4
4
255
255
255
0
0
0
255
255
255
255
255
255
255
255
255
0
0
0
232
232
232
4
4
4
255
255
255
20
20
20
255
255
255
0
0
0
255
255
255
255
255
255
255
255
255
255
255
255
0
0
0
255
255
255
255
255
255
255
255
255
255
255
255
0
0
0
255
255
255
255
255
255
27
27
27
0
0
0
0
0
0
255
255
255
255
255
255
255
255
255
6
6
6
255
255
255
255
255
255
255
255
255
255
255
255
255
255
255
255
255
255
17
17
17
1
1
1
4
4
4
0
0
0
255
255
255
7
7
7
16
16
16
8
8
8
255
255
255
5
5
5
255
255
255
24
24
24
255
255
255
0
0
0
255
255
255
0
0
0
19
19
19
255
255
255
0
0
0
255
255
255
11
11
11
2
2
2
2
2
2
234
234
234
0
0
0
255
255
255
19
19
19
0
0
0
0
0
0
255
255
255
1
1
1
255
255
255
19
19
19
255
255
255
0
0
0
255
255
255
28
28
28
18
18
18
255
255
255
0
0
0
255
255
255
255
255
255
0
0
0
0
0
0
0
0
0
255
255
255
18
18
18
217
217
217
26
26
26
0
0
0
255
255
255
23
23
23
25
25
25
4
4
4
255
255
255
255
255
255
0
0
0
0
0
0
255
255
255
0
0
0
255
255
255
3
3
3
1
1
1
0
0
0
255
255
255
22
22
22
0
0
0
0
0
0
255
255
255
5
5
5
0
0
0
14
14
14
255
255
255
0
0
0
255
255
255
15
15
15
21
21
21
255
255
255
0
0
0
0
0
0
255
255
255
0
0
0
255
255
255
11
11
11
15
15
15
255
255
255
0
0
0
0
0
0
0
0
0
255
255
255
1
1
1
0
0
0
0
0
0
255
255
255
12
12
12
255
255
255
7
7
7
12
12
12
255
255
255
0
0
0
255
255
255
25
25
25
255
255
255
8
8
8
1
1
1
255
255
255
2
2
2
16
16
16
255
255
255
5
5
5
255
255
255
9
9
9
0
0
0
2
2
2
255
255
255
33
33
33
244
244
244
12
12
12
255
255
255
0
0
0
0
0
0
255
255
255
30
30
30
6
6
6
255
255
255
255
255
255
255
255
255
21
21
21
255
255
255
22
22
22
0
0
0
28
28
28
255
255
255
0
0
0
255
255
255
255
255
255
255
255
255
255
255
255
0
0
0
0
0
0
0
0
0
255
255
255
14
14
14
6
6
6
16
16
16
255
255
255
255
255
255
255
255
255
0
0
0
255
255
255
14
14
14
0
0
0
0
0
0
255
255
255
27
27
27
255
255
255
27
27
27
0
0
0
245
245
245
0
0
0
255
255
255
0
0
0
7
7
7
236
236
236
33
33
33
255
255
255
12
12
12
0
0
0
255
255
255
14
14
14
255
255
255
255
255
255
255
255
255
8
8
8
255
255
255
27
27
27
21
21
21
255
255
255
