P3
37 10
255
0
0
0
255
255
255
255
255
255
255
255
255
0
0
0
0
0
0
7
7
7
20
20
20
236
236
236
252
252
252
255
255
255
255
255
255
255
255
255
0
0
0
11
11
11
16
16
16
255
255
255
255
255
255
255
255
255
255
255
255
17
17
17
14
14
14
29
29
29
255
255
255
255
255
255
255
255
255
255
255
255
250
250
250
0
0
0
5
5
5
255
255
255
255
255
255
255
255
255
255
255
255
255
255
255
255
255
255
255
255
255
255
255
255
0
0
0
0
0
0
0
0
0
255
255
255
5
5
5
20
20
20
246
246
246
18
18
18
4
4
4
3
3
3
5
5
5
13
13
13
0
0
0
14
14
14
255
255
255
5
5
5
8
8
8
4
4
4
20
20
20
0
0
0
0
0
0
255
255
255
0
0
0
0
0
0
0
0
0
0
0
0
0
0
0
0
0
0
9
9
9
255
255
255
0
0
0
18
18
18
255
255
255
0
0
0
0
0
0
255
255
255
255
255
255
0
0
0
0
0
0
0
0
0
255
255
255
11
11
11
4
4
4
255
255
255
0
0
0
0
0
0
0
0
0
0
0
0
0
0
0
0
0
0
0
0
0
255
255
255
0
0
0
0
0
0
0
0
0
0
0
0
0
0
0
0
0
0
255
255
255
12
12
12
0
0
0
0
0
0
0
0
0
0
0
0
0
0
0
9
9
9
18
18
18
0
0
0
4
4
4
255
255
255
0
0
0
0
0
0
0
0
0
255
255
255
5
5
5
5
5
5
25
25
25
245
245
245
0
0
0
2
2
2
255
255
255
0
0
0
0
0
0
0
0
0
0
0
0
0
0
0
0
0
0
0
0
0
255
255
255
1
1
1
1
1
1
0
0
0
0
0
0
0
0
0
0
0
0
255
255
255
6
6
6
0
0
0
0
0
0
0
0
0
0
0
0
0
0
0
0
0
0
0
0
0
0
0
0
5
5
5
255
255
255
0
0
0
0
0
0
0
0
0
4
4
4
255
255
255
255
255
255
255
255
255
0
0
0
0
0
0
5
5
5
255
255
255
21
21
21
15
15
15
3
3
3
1
1
1
6
6
6
0
0
0
8
8
8
255
255
255
4
4
4
4
4
4
4
4
4
13
13
13
0
0
0
16
16
16
255
255
255
7
7
7
12
12
12
11
11
11
10
10
10
15
15
15
0
0
0
0
0
0
0
0
0
0
0
0
3
3
3
255
255
255
0
0
0
0
0
0
0
0
0
255
255
255
0
0
0
10
10
10
9
9
9
0
0
0
0
0
0
10
10
10
255
255
255
255
255
255
255
255
255
255
255
255
255
255
255
255
255
255
0
0
0
12
12
12
255
255
255
255
255
255
255
255
255
255
255
255
255
255
255
0
0
0
14
14
14
255
255
255
255
255
255
255
255
255
255
255
255
255
255
255
255
255
255
0
0
0
0
0
0
0
0
0
0
0
0
10
10
10
255
255
255
0
0
0
0
0
0
0
0
0
255
255
255
255
255
255
0
0
0
0
0
0
0
0
0
0
0
0
0
0
0
255
255
255
0
0
0
0
0
0
0
0
0
0
0
0
0
0
0
0
0
0
0
0
0
0
0
0
0
0
0
0
0
0
0
0
0
255
255
255
0
0
0
24
24
24
244
244
244
17
17
17
0
0
0
13
13
13
0
0
0
0
0
0
0
0
0
0
0
0
0
0
0
0
0
0
7
7
7
255
255
255
0
0
0
0
0
0
0
0
0
255
255
255
0
0
0
255
255
255
0
0
0
0
0
0
0
0
0
0
0
0
255
255
255
0
0
0
0
0
0
0
0
0
0
0
0
0
0
0
0
0
0
0
0
0
0
0
0
0
0
0
0
0
0
0
0
0
255
255
255
0
0
0
19
19
19
255
255
255
0
0
0
0
0
0
0
0
0
0
0
0
0
0
0
0
0
0
0
0
0
0
0
0
0
0
0
13
13
13
255
255
255
0
0
0
0
0
0
0
0
0
255
255
255
0
0
0
9
9
9
255
255
255
0
0
0
0
0
0
0
0
0
255
255
255
0
0
0
0
0
0
0
0
0
0
0
0
0
0
0
0
0
0
0
0
0
15
15
15
1
1
1
2
2
2
17
17
17
230
230
230
0
0
0
9
9
9
255
255
255
15
15
15
5
5
5
5
5
5
9
9
9
4
4
4
0
0
0
0
0
0
0
0
0
0
0
0
15
15
15
255
255
255
0
0
0
0
0
0
0
0
0
255
255
255
0
0
0
0
0
0
0
0
0
255
255
255
255
255
255
6
6
6
6
6
6
255
255
255
255
255
255
255
255
255
255
255
255
255
255
255
0
0
0
0
0
0
255
255
255
255
255
255
255
255
255
233
233
233
12
12
12
0
0
0
11
11
11
9
9
9
255
255
255
255
255
255
255
255
255
255
255
255
255
255
255
0
0
0
0
0
0
0
0
0
0
0
0
0
0
0
255
255
255
0
0
0
0
0
0
0
0
0
