P3
30 7
255
16
1
232
6
6
6
6
6
6
7
7
7
11
11
11
4
4
4
5
5
5
4
4
4
23
23
23
21
21
21
0
0
0
0
0
0
0
0
0
9
9
9
0
0
0
1
1
1
1
1
1
8
8
8
9
9
9
0
0
0
0
0
0
22
22
22
15
15
15
20
20
20
0
0
0
12
12
12
17
17
17
0
0
0
0
0
0
17
0
245
8
8
8
238
238
238
241
241
241
240
240
240
240
240
240
24
24
24
247
247
247
240
240
240
239
239
239
240
240
240
0
0
0
10
10
10
232
232
232
231
231
231
0
0
0
3
3
3
242
242
242
238
238
238
239
239
239
234
234
234
30
30
30
242
242
242
239
239
239
240
240
240
235
235
235
16
16
16
237
237
237
10
10
10
0
0
0
239
239
239
5
5
5
238
238
238
10
10
10
2
2
2
10
10
10
0
0
0
239
239
239
14
14
14
7
7
7
0
0
0
19
19
19
211
211
211
0
0
0
5
5
5
236
236
236
21
21
21
235
235
235
8
8
8
0
0
0
231
231
231
30
30
30
236
236
236
11
11
11
10
10
10
0
0
0
0
0
0
233
233
233
10
10
10
10
10
10
227
227
227
9
9
9
238
238
238
231
231
231
228
228
228
232
232
232
25
25
25
237
237
237
232
232
232
230
230
230
233
233
233
9
9
9
216
216
216
224
224
224
226
226
226
231
231
231
17
17
17
233
233
233
240
240
240
239
239
239
245
245
245
23
23
23
230
230
230
13
13
13
0
0
0
0
0
0
14
14
14
233
233
233
227
227
227
235
235
235
236
236
236
0
0
0
0
0
0
19
19
19
8
8
8
228
228
228
10
10
10
240
240
240
15
15
15
5
5
5
23
23
23
0
0
0
213
213
213
0
0
0
6
6
6
237
237
237
30
30
30
226
226
226
16
16
16
234
234
234
13
13
13
14
14
14
238
238
238
0
0
0
0
0
0
0
0
0
0
0
0
226
226
226
25
25
25
24
24
24
239
239
239
8
8
8
228
228
228
233
233
233
229
229
229
227
227
227
7
7
7
234
234
234
233
233
233
231
231
231
239
239
239
0
0
0
219
219
219
17
17
17
0
0
0
234
234
234
9
9
9
236
236
236
16
16
16
240
240
240
238
238
238
9
9
9
228
228
228
224
224
224
235
235
235
227
227
227
0
0
0
231
231
231
26
26
26
18
18
18
240
240
240
17
0
245
5
5
5
3
3
3
10
10
10
0
0
0
0
0
0
0
0
0
0
0
0
0
0
0
0
0
0
0
0
0
17
17
17
0
0
0
0
0
0
0
0
0
0
0
0
0
0
0
0
0
0
3
3
3
9
9
9
6
6
6
0
0
0
0
0
0
0
0
0
0
0
0
0
0
0
0
0
0
0
0
0
0
0
0
17
0
242
