P3
19 7
255
255
255
255
255
255
255
255
255
255
20
20
20
0
0
0
0
0
0
255
255
255
255
255
255
8
8
8
0
0
0
255
255
255
255
255
255
255
255
255
15
15
15
255
255
255
12
12
12
0
0
0
7
7
7
255
255
255
255
255
255
16
16
16
0
0
0
255
255
255
11
11
11
255
255
255
21
21
21
0
0
0
255
255
255
7
7
7
255
255
255
13
13
13
0
0
0
0
0
0
255
255
255
7
7
7
10
10
10
255
255
255
11
11
11
230
230
230
0
0
0
0
0
0
255
255
255
11
11
11
255
255
255
0
0
0
0
0
0
255
255
255
2
2
2
255
255
255
0
0
0
0
0
0
0
0
0
255
255
255
17
17
17
255
255
255
0
0
0
0
0
0
255
255
255
255
255
255
255
255
255
15
15
15
14
14
14
255
255
255
255
255
255
255
255
255
255
255
255
5
5
5
255
255
255
11
11
11
0
0
0
0
0
0
255
255
255
255
255
255
9
9
9
0
0
0
0
0
0
255
255
255
0
0
0
0
0
0
255
255
255
0
0
0
255
255
255
14
14
14
10
10
10
255
255
255
5
5
5
255
255
255
8
8
8
0
0
0
0
0
0
255
255
255
12
12
12
255
255
255
15
15
15
1
1
1
255
255
255
13
13
13
12
12
12
255
255
255
0
0
0
255
255
255
3
3
3
0
0
0
255
255
255
9
9
9
255
255
255
15
15
15
11
11
11
4
4
4
255
255
255
20
20
20
0
0
0
255
255
255
18
18
18
255
255
255
255
255
255
255
255
255
22
22
22
0
0
0
255
255
255
21
21
21
0
0
0
255
255
255
14
14
14
255
255
255
255
255
255
255
255
255
12
12
12
255
255
255
17
17
17
0
0
0
0
0
0
255
255
255
