P3
46 15
255
21
31
254
16
16
16
0
0
0
0
0
0
0
0
0
0
0
0
0
0
0
0
0
0
0
0
0
0
0
0
13
13
13
0
0
0
0
0
0
0
0
0
0
0
0
0
0
0
15
15
15
5
5
5
5
5
5
6
6
6
0
0
0
0
0
0
0
0
0
15
15
15
1
1
1
5
5
5
0
0
0
7
7
7
2
2
2
0
0
0
0
0
0
0
0
0
15
15
15
15
15
15
0
0
0
6
6
6
3
3
3
0
0
0
0
0
0
3
3
3
2
2
2
0
0
0
0
0
0
0
0
0
0
0
0
0
17
240
18
18
18
244
244
244
248
248
248
250
250
250
246
246
246
244
244
244
241
241
241
11
11
11
254
254
254
254
254
254
254
254
254
254
254
254
254
254
254
254
254
254
7
7
7
254
254
254
254
254
254
254
254
254
254
254
254
254
254
254
254
254
254
10
10
10
10
10
10
254
254
254
254
254
254
254
254
254
254
254
254
254
254
254
254
254
254
14
14
14
0
0
0
0
0
0
254
254
254
254
254
254
254
254
254
254
254
254
254
254
254
254
254
254
0
0
0
254
254
254
254
254
254
254
254
254
254
254
254
254
254
254
254
254
254
0
0
0
5
5
5
247
247
247
248
248
250
248
248
248
247
247
247
245
245
245
236
236
236
2
2
2
254
254
254
254
254
254
254
254
254
254
254
254
254
254
254
254
254
254
2
2
2
254
254
254
254
254
254
254
254
254
254
254
254
254
254
254
254
254
254
6
6
6
254
254
254
254
254
254
254
254
254
254
254
254
254
254
254
254
254
254
254
254
254
254
254
254
5
5
5
1
1
1
254
254
254
254
254
254
254
254
254
254
254
254
254
254
254
254
254
254
0
0
0
254
254
254
254
254
254
254
254
254
254
254
254
254
254
254
254
254
254
0
0
0
0
0
0
244
244
244
245
245
245
11
11
11
2
2
2
13
13
13
2
2
2
10
10
10
254
254
254
254
254
254
0
0
0
0
0
0
13
13
13
11
11
11
12
12
12
254
254
254
254
254
254
27
27
27
2
2
2
14
14
14
0
0
0
1
1
1
254
254
254
254
254
254
18
18
18
0
0
0
0
0
0
0
0
0
254
254
254
254
254
254
3
3
3
0
0
0
254
254
254
254
254
254
0
0
0
15
15
15
254
254
254
254
254
254
0
0
0
254
254
254
254
254
254
0
0
0
0
0
0
0
0
0
0
0
0
0
0
0
0
0
0
242
242
242
247
247
247
0
0
0
0
0
0
0
0
0
0
0
0
12
12
12
254
254
254
254
254
254
5
5
5
0
0
0
0
0
0
0
0
0
9
9
9
254
254
254
254
254
254
0
0
0
0
0
0
0
0
0
0
0
0
0
0
0
254
254
254
254
254
254
1
1
1
0
0
0
0
0
0
0
0
0
254
254
254
254
254
254
2
2
2
0
0
0
254
254
254
254
254
254
0
0
0
1
1
1
254
254
254
254
254
254
0
0
0
254
254
254
254
254
254
0
0
0
0
0
0
0
0
0
0
0
0
0
0
0
0
0
0
234
234
234
238
238
238
0
0
0
0
0
0
1
1
1
12
12
12
8
8
8
254
254
254
254
254
254
0
0
0
0
0
0
4
4
4
0
0
0
20
20
20
254
254
254
254
254
254
0
0
0
0
0
0
0
0
0
0
0
0
0
0
0
254
254
254
254
254
254
1
1
1
0
0
0
0
0
0
0
0
0
254
254
254
254
254
254
2
2
2
4
4
4
254
254
254
254
254
254
18
18
18
22
22
22
254
254
254
254
254
254
0
0
0
254
254
254
254
254
254
8
8
8
0
0
0
0
0
0
0
0
0
0
0
0
0
0
0
237
237
237
238
238
238
237
237
237
239
239
239
249
249
249
243
243
243
7
7
7
254
254
254
254
254
254
254
254
254
254
254
254
254
254
254
254
254
254
1
1
1
254
254
254
254
254
254
0
0
0
0
0
0
0
0
0
0
0
0
0
0
0
254
254
254
254
254
254
9
9
9
0
0
0
15
15
15
0
0
0
254
254
254
254
254
254
3
3
3
5
5
5
254
254
254
254
254
254
254
254
254
254
254
254
254
254
254
254
254
254
0
0
0
254
254
254
254
254
254
254
254
254
254
254
254
254
254
254
254
254
254
0
0
0
0
0
0
234
234
234
242
242
242
239
239
239
241
241
241
247
247
247
246
246
246
1
1
1
254
254
254
254
254
254
254
254
254
254
254
254
254
254
254
254
254
254
9
9
9
254
254
254
254
254
254
0
0
0
0
0
0
0
0
0
0
0
0
0
0
0
254
254
254
254
254
254
254
254
254
254
254
254
254
254
254
254
254
254
254
254
254
254
254
254
2
2
2
14
14
14
254
254
254
254
254
254
254
254
254
254
254
254
254
254
254
254
254
254
0
0
0
254
254
254
254
254
254
254
254
254
254
254
254
254
254
254
254
254
254
16
16
16
0
0
0
236
236
236
240
240
240
3
3
3
0
0
0
0
0
0
0
0
0
0
0
0
8
8
8
11
11
11
0
0
0
11
11
11
254
254
254
254
254
254
19
19
19
254
254
254
254
254
254
0
0
0
0
0
0
0
0
0
0
0
0
0
0
0
254
254
254
254
254
254
254
254
254
254
254
254
254
254
254
254
254
254
254
254
254
254
254
254
3
3
3
5
5
5
254
254
254
254
254
254
0
0
0
0
0
0
0
0
0
0
0
0
0
0
0
254
254
254
254
254
254
0
0
0
0
0
0
0
0
0
0
0
0
0
0
0
2
2
2
242
242
242
243
243
243
0
0
0
1
1
1
0
0
0
0
0
0
0
0
0
0
0
0
0
0
0
0
0
0
11
11
11
254
254
254
254
254
254
18
18
18
254
254
254
254
254
254
0
0
0
0
0
0
0
0
0
0
0
0
10
10
10
254
254
254
254
254
254
0
0
0
0
0
0
0
0
0
0
0
0
254
254
254
254
254
254
2
2
2
5
5
5
254
254
254
254
254
254
0
0
0
0
0
0
0
0
0
0
0
0
0
0
0
254
254
254
254
254
254
0
0
0
0
0
0
0
0
0
0
0
0
0
0
0
0
0
0
238
238
238
238
238
238
6
6
6
0
0
0
1
1
1
0
0
0
0
0
0
0
0
0
0
0
0
0
0
0
5
5
5
254
254
254
254
254
254
0
0
0
254
254
254
254
254
254
0
0
0
0
0
0
0
0
0
0
0
0
8
8
8
254
254
254
254
254
254
0
0
0
0
0
0
0
0
0
0
0
0
254
254
254
254
254
254
5
5
5
5
5
5
254
254
254
254
254
254
0
0
0
0
0
0
0
0
0
0
0
0
0
0
0
254
254
254
254
254
254
0
0
0
0
0
0
0
0
0
0
0
0
0
0
0
9
9
9
244
244
244
240
240
240
23
23
23
21
21
21
0
0
0
0
0
0
0
0
0
0
0
0
0
0
0
1
1
1
8
8
8
254
254
254
254
254
254
1
1
1
254
254
254
254
254
254
0
0
0
0
0
0
0
0
0
0
0
0
0
0
0
254
254
254
254
254
254
0
0
0
0
0
0
0
0
0
0
0
0
254
254
254
254
254
254
2
2
2
7
7
7
254
254
254
254
254
254
0
0
0
0
0
0
0
0
0
0
0
0
0
0
0
254
254
254
254
254
254
0
0
0
0
0
0
0
0
0
0
0
0
0
0
0
0
0
0
238
238
238
243
243
243
248
248
248
245
245
245
247
247
247
240
240
240
1
1
1
254
254
254
254
254
254
254
254
254
254
254
254
254
254
254
254
254
254
1
1
1
254
254
254
254
254
254
254
254
254
254
254
254
254
254
254
254
254
254
0
0
0
254
254
254
254
254
254
0
0
0
0
0
0
0
0
0
0
0
0
254
254
254
254
254
254
4
4
4
5
5
5
254
254
254
254
254
254
0
0
0
0
0
0
0
0
0
0
0
0
0
0
0
254
254
254
254
254
254
254
254
254
254
254
254
254
254
254
254
254
254
0
0
0
0
0
0
240
240
240
244
244
244
248
248
248
249
249
249
247
247
247
244
244
244
18
18
18
254
254
254
254
254
254
254
254
254
254
254
254
254
254
254
254
254
254
1
1
1
254
254
254
254
254
254
254
254
254
254
254
254
254
254
254
254
254
254
17
17
17
254
254
254
254
254
254
0
0
0
0
0
0
0
0
0
0
0
0
254
254
254
254
254
254
6
6
6
10
10
10
254
254
254
254
254
254
0
0
0
0
0
0
0
0
0
0
0
0
0
0
0
254
254
254
254
254
254
254
254
254
254
254
254
254
254
254
254
254
254
0
0
0
0
17
250
2
5
29
8
10
33
0
0
0
9
9
9
0
0
0
8
8
8
0
0
0
19
19
19
3
3
3
5
5
5
2
2
2
0
0
0
0
0
0
0
0
0
0
0
0
0
0
0
0
0
0
0
0
0
0
0
0
0
0
0
0
0
0
0
0
0
0
0
0
0
0
0
0
0
0
0
0
0
0
0
0
0
0
0
0
0
0
0
0
0
0
0
0
17
17
17
0
0
0
0
0
0
0
0
0
0
0
0
0
0
0
0
0
0
0
0
0
8
8
8
5
5
5
0
0
0
10
10
10
5
5
28
0
17
238
