P3
6 6
255
246
28
16
255
129
0
246
28
16
2
155
2
2
155
2
2
155
2
255
129
0
246
28
16
255
129
0
30
103
255
30
103
255
2
155
2
246
28
16
255
129
0
246
28
16
2
155
2
2
155
2
2
155
2
25
214
236
0
23
255
0
23
255
255
183
0
198
0
255
198
0
255
0
23
255
25
214
236
25
214
236
198
0
255
255
183
0
198
0
255
25
214
236
0
23
255
25
214
236
198
0
255
198
0
255
255
183
0
