P3
19 7
255
255
255
255
0
0
0
0
0
0
0
0
0
255
255
255
13
13
13
0
0
0
255
255
255
255
255
255
12
12
12
0
0
0
255
255
255
255
255
255
244
244
244
20
20
20
255
255
255
255
255
255
7
7
7
0
0
0
255
255
255
1
1
1
0
0
0
0
0
0
255
255
255
10
10
10
255
255
255
9
9
9
13
13
13
255
255
255
0
0
0
255
255
255
10
10
10
0
0
0
14
14
14
255
255
255
7
7
7
255
255
255
20
20
20
255
255
255
0
0
0
255
255
255
0
0
0
255
255
255
0
0
0
255
255
255
1
1
1
2
2
2
255
255
255
0
0
0
255
255
255
14
14
14
13
13
13
15
15
15
255
255
255
0
0
0
0
0
0
255
255
255
245
245
245
12
12
12
255
255
255
19
19
19
255
255
255
0
0
0
255
255
255
0
0
0
3
3
3
255
255
255
0
0
0
255
255
255
255
255
255
255
255
255
16
16
16
255
255
255
17
17
17
0
0
0
255
255
255
245
245
245
0
0
0
255
255
255
13
13
13
255
255
255
0
0
0
255
255
255
255
255
255
255
255
255
255
255
255
0
0
0
0
0
0
0
0
0
255
255
255
0
0
0
255
255
255
17
17
17
27
27
27
255
255
255
255
255
255
255
255
255
1
1
1
255
255
255
255
255
255
0
0
0
255
255
255
20
20
20
21
21
21
255
255
255
0
0
0
0
0
0
0
0
0
255
255
255
11
11
11
255
255
255
20
20
20
255
255
255
4
4
4
255
255
255
3
3
3
0
0
0
0
0
0
255
255
255
0
0
0
255
255
255
19
19
19
21
21
21
255
255
255
0
0
0
255
255
255
255
255
255
255
255
255
13
13
13
255
255
255
255
255
255
24
24
24
0
0
0
