P3
14 7
255
255
255
255
255
255
255
255
255
255
0
0
0
0
0
0
0
0
0
0
0
0
0
0
0
7
7
7
6
6
6
3
3
3
236
236
236
255
255
255
255
255
255
255
255
255
8
8
8
2
2
2
11
11
11
255
255
255
0
0
0
0
0
0
0
0
0
255
255
255
8
8
8
8
8
8
0
0
0
7
7
7
255
255
255
248
248
248
0
0
0
0
0
0
0
0
0
6
6
6
255
255
255
0
0
0
255
255
255
12
12
12
1
1
1
2
2
2
0
0
0
0
0
0
255
255
255
255
255
255
0
0
0
0
0
0
0
0
0
0
0
0
4
4
4
255
255
255
6
6
6
4
4
4
0
0
0
0
0
0
0
0
0
0
0
0
255
255
255
255
255
255
0
0
0
0
0
0
0
0
0
0
0
0
255
255
255
23
23
23
255
255
255
0
0
0
0
0
0
0
0
0
0
0
0
0
0
0
255
255
255
255
255
255
11
11
11
0
0
0
0
0
0
255
255
255
2
2
2
0
0
0
0
0
0
255
255
255
0
0
0
0
0
0
0
0
0
0
0
0
255
255
255
255
255
255
255
255
255
255
255
255
0
0
0
12
12
12
0
0
0
0
0
0
0
0
0
0
0
0
0
0
0
0
0
0
255
255
255
255
255
255
255
255
255
