P3
14 7
255
255
255
255
255
255
255
255
255
255
8
8
8
255
255
255
5
5
5
0
0
0
0
0
0
255
255
255
6
6
6
8
8
8
255
255
255
255
255
255
255
255
255
255
255
255
0
0
0
0
0
0
6
6
6
15
15
15
255
255
255
11
11
11
255
255
255
10
10
10
0
0
0
0
0
0
0
0
0
0
0
0
255
255
255
255
255
255
0
0
0
0
0
0
0
0
0
0
0
0
0
0
0
255
255
255
4
4
4
0
0
0
0
0
0
0
0
0
0
0
0
0
0
0
255
255
255
255
255
255
0
0
0
0
0
0
0
0
0
0
0
0
3
3
3
255
255
255
1
1
1
4
4
4
0
0
0
0
0
0
0
0
0
0
0
0
255
255
255
255
255
255
0
0
0
0
0
0
0
0
0
0
0
0
10
10
10
255
255
255
0
0
0
0
0
0
0
0
0
0
0
0
0
0
0
0
0
0
255
255
255
255
255
255
11
11
11
0
0
0
0
0
0
0
0
0
0
0
0
255
255
255
1
1
1
0
0
0
0
0
0
1
1
1
5
5
5
10
10
10
255
255
255
255
255
255
255
255
255
255
255
255
12
12
12
0
0
0
0
0
0
255
255
255
6
6
6
0
0
0
0
0
0
13
13
13
255
255
255
255
255
255
255
255
255
